<svg width="50" height="47" viewBox="0 0 50 47" fill="none" xmlns="http://www.w3.org/2000/svg">
<path fill-rule="evenodd" clip-rule="evenodd" d="M28.2704 20.8156L14.145 12.6509L11.5766 14.1356L25.702 22.3003V23.785L14.1436 30.4649L2.5852 23.785V10.4238L14.1436 3.74935L25.702 10.4306V16.3682L28.2704 17.8515V8.9459L14.145 0.78125L0.0195312 8.9459V25.2752L14.145 33.433L28.2704 25.2752V20.8156ZM23.1336 14.878V11.9072L14.1436 6.71336L5.15359 11.9072V16.3614L16.712 23.0413L14.1436 24.526L5.15359 19.3308V22.3003L14.1436 27.4955L21.8529 23.0427L7.72741 14.878V13.3933L14.1491 9.68282L23.1336 14.878Z" fill="#5E99C6"/>
<path fill-rule="evenodd" clip-rule="evenodd" d="M23.1584 14.887V11.9255L14.1436 6.74414L5.12891 11.9255V16.3678L16.7191 23.03L14.1436 24.5107L5.12891 19.328V22.2896L14.1436 27.4709L21.87 23.03L7.70435 14.887V13.4063L14.1436 9.70569L23.1584 14.887Z" fill="#C6D92D"/>
<path d="M7.22815 41.5655H9.31607V44.8776C8.39261 45.9079 7.11553 46.4231 5.48483 46.4231C4.11991 46.4231 2.97391 45.9708 2.04685 45.0662C1.11978 44.1616 0.65625 43.0146 0.65625 41.6252C0.65625 40.2412 1.12834 39.086 2.07252 38.1597C2.52013 37.7092 3.05362 37.354 3.64108 37.1152C4.22854 36.8765 4.85792 36.7592 5.49159 36.7702C6.77646 36.7511 8.02033 37.2242 8.97011 38.0932L7.88898 39.655C7.54983 39.3407 7.16065 39.0857 6.73758 38.9006C6.3751 38.7604 5.98947 38.6904 5.60105 38.6943C5.23176 38.6865 4.86475 38.7541 4.52231 38.8932C4.17987 39.0322 3.86917 39.2397 3.60908 39.503C3.06851 40.0458 2.79823 40.7559 2.79823 41.6333C2.79823 42.5108 3.0577 43.2163 3.57664 43.75C3.8142 44.0044 4.1018 44.2064 4.4212 44.3433C4.74061 44.4802 5.08486 44.5489 5.43213 44.5452C6.15288 44.5452 6.75155 44.4095 7.22815 44.1381V41.5655Z" fill="#303188"/>
<path d="M17.9716 36.9824V38.8455H13.3203V40.7752H17.5044V42.5579H13.3203V44.5027H18.1196V46.3521H11.2344V36.9824H17.9716Z" fill="#5E99C6"/>
<path d="M23.9126 38.791V46.3521H21.8313V38.791H19.1836V36.9824H26.5657V38.791H23.9126Z" fill="#C6D92D"/>
<path d="M33.8347 38.8471C33.737 38.9254 33.6589 39.0253 33.6066 39.1388C33.5543 39.2523 33.5292 39.3763 33.5333 39.5011C33.5319 39.6321 33.5654 39.7611 33.6303 39.875C33.6952 39.9889 33.7893 40.0837 33.903 40.1498C34.1485 40.3099 34.7169 40.499 35.6081 40.717C36.4993 40.935 37.1905 41.262 37.6815 41.6981C38.1744 42.135 38.4209 42.7719 38.4209 43.6087C38.4318 43.9977 38.352 44.3839 38.1877 44.737C38.0235 45.0901 37.7793 45.4007 37.4742 45.6442C36.8431 46.1635 36.0128 46.4231 34.9833 46.4231C33.4983 46.4231 32.1601 45.8753 30.9688 44.7798L32.2224 43.2613C33.2345 44.1434 34.1699 44.5839 35.0283 44.583C35.3498 44.6018 35.6685 44.515 35.9355 44.3361C36.0411 44.2601 36.1263 44.1595 36.1836 44.0431C36.2409 43.9266 36.2686 43.798 36.2642 43.6684C36.2675 43.5369 36.2371 43.4066 36.1761 43.2899C36.115 43.1731 36.0252 43.0737 35.915 43.0008C35.6831 42.8371 35.222 42.6701 34.5318 42.5001C33.4405 42.2422 32.6416 41.9062 32.1351 41.4918C31.6285 41.0775 31.3757 40.4275 31.3766 39.5418C31.3766 38.6553 31.6949 37.9718 32.3315 37.4914C32.9681 37.0111 33.767 36.7704 34.7282 36.7695C35.3683 36.772 36.0035 36.8802 36.608 37.0898C37.2059 37.2885 37.7611 37.5969 38.2449 37.999L37.1836 39.5215C36.3652 38.9072 35.524 38.6001 34.66 38.6001C34.3643 38.5834 34.0721 38.6708 33.8347 38.8471Z" fill="#303188"/>
<path d="M46.711 46.3521L45.8431 44.3283H41.9317L41.0637 46.3521H38.8477L42.8797 36.9824H44.8964L48.9271 46.3521H46.711ZM43.8955 39.7702L42.721 42.4939H45.0578L43.8955 39.7702Z" fill="#5E99C6"/>
<path d="M38.1367 13.9122V8.51758H32.6711V13.9122H38.1367Z" fill="#C6D92D"/>
<path d="M38.9883 23.2824V19.0234H34.7294V23.2824H38.9883Z" fill="#5E99C6"/>
<path d="M34.7305 17.8869V14.7637H31.6073V17.8869H34.7305Z" fill="#C6D92D"/>
<path d="M36.293 27.6115V24.4883H33.1698V27.6115H36.293Z" fill="#C6D92D"/>
<path d="M40.5508 30.0955V28.4629H38.9892V30.0955H40.5508Z" fill="#303188"/>
<path d="M47.293 22.1456V20.584H45.7314V22.1456H47.293Z" fill="#C6D92D"/>
<path d="M45.5195 19.8038V18.2422H43.8869V19.8038H45.5195Z" fill="#5E99C6"/>
<path d="M44.7383 27.6827V26.1211H43.1057V27.6827H44.7383Z" fill="#C6D92D"/>
<path d="M41.332 4.32919V2.76758H39.7704V4.32919H41.332Z" fill="#C6D92D"/>
<path d="M46.0156 9.29794V7.73633H44.454V9.29794H46.0156Z" fill="#C6D92D"/>
<path d="M48.5 15.617V13.9844H46.9384V15.617H48.5Z" fill="#C6D92D"/>
<path d="M21.3164 2.34286V0.78125L19.7548 0.78125V2.34286H21.3164Z" fill="#303188"/>
<path d="M30.8281 11.6417V10.0801H29.1955V11.6417H30.8281Z" fill="#5E99C6"/>
<path d="M47.293 22.1456V20.584H45.7314V22.1456H47.293Z" fill="#303188"/>
<path d="M42.1133 26.9025V23.7793H38.9901V26.9025H42.1133Z" fill="#C6D92D"/>
<path d="M29.9023 33.9288V32.3672H28.3407V33.9288H29.9023Z" fill="#5E99C6"/>
<path d="M26.5664 30.878V29.3164H25.0048V30.878H26.5664Z" fill="#303188"/>
<path d="M31.4648 30.7345V27.6113H28.3416V30.7345H31.4648Z" fill="#C6D92D"/>
<path d="M43.8867 16.3254V14.125H41.6863V16.3254H43.8867Z" fill="#C6D92D"/>
<path d="M39.6992 15.4746V13.2031H37.4278V15.4746H39.6992Z" fill="#5E99C6"/>
<path d="M25.7852 4.61451V2.41406H23.5847V4.61451H25.7852Z" fill="#C6D92D"/>
<path d="M46.3711 13.9133V11.7129H44.0997V13.9133H46.3711Z" fill="#303188"/>
<path d="M39.2734 7.31049V5.03906H37.073V7.31049H39.2734Z" fill="#5E99C6"/>
<path d="M43.8867 11.6419V9.44141H41.6863V11.6419H43.8867Z" fill="#5E99C6"/>
<path d="M33.168 4.32919V2.76758H31.6064V4.32919H33.168Z" fill="#303188"/>
<path d="M31.0391 6.74408V4.47266H28.8386V6.74408H31.0391Z" fill="#C6D92D"/>
<path d="M43.8867 22.1464V19.875H41.6863V22.1464H43.8867Z" fill="#C6D92D"/>
<path d="M49.918 24.843V22.6426H47.7175V24.843H49.918Z" fill="#5E99C6"/>
<path d="M23.1602 32.3671V30.0957H20.9597V32.3671H23.1602Z" fill="#C6D92D"/>
<path d="M41.6875 19.4494V16.3262H38.5643V19.4494H41.6875Z" fill="#303188"/>
<path d="M29.832 3.12321V0L26.7088 0V3.12321H29.832Z" fill="#5E99C6"/>
<path d="M33.168 24.4884V21.3652H30.0448V24.4884H33.168Z" fill="#303188"/>
</svg>
