<svg width="85" height="20" viewBox="0 0 85 20" fill="none" xmlns="http://www.w3.org/2000/svg">
<path d="M4.99525 2.32598L12.4427 13.612V2.22485C12.4427 1.4866 12.6042 0.930391 12.917 0.556212C13.2298 0.182033 13.6638 0 14.1986 0C14.7335 0 15.1977 0.182033 15.5105 0.556212C15.8233 0.930391 15.9949 1.4866 15.9949 2.22485V17.283C15.9949 18.9618 15.2986 19.8011 13.906 19.8011C13.5629 19.8011 13.25 19.7506 12.9675 19.6495C12.6849 19.5483 12.4326 19.3865 12.1803 19.1741C11.9381 18.9618 11.706 18.6988 11.5042 18.4056C11.2923 18.1123 11.0905 17.819 10.8785 17.5156L3.62282 6.36104V17.5864C3.62282 18.3145 3.45126 18.8708 3.11825 19.2449C2.77514 19.6191 2.34121 19.8113 1.81646 19.8113C1.2917 19.8113 0.827496 19.6191 0.49448 19.2449C0.161463 18.8708 0 18.3145 0 17.5965V2.8114C0 2.1844 0.0706399 1.68886 0.21192 1.33491C0.373382 0.940504 0.645851 0.627003 1.02932 0.374179C1.4128 0.131468 1.82655 0 2.27057 0C2.61368 0 2.91642 0.0606777 3.15861 0.17192C3.4109 0.283162 3.62282 0.434857 3.81456 0.627003C3.9962 0.819148 4.18794 1.06186 4.38977 1.37536C4.5815 1.67875 4.78333 2.00236 4.99525 2.32598Z" fill="#004177"/>
<path d="M20.2617 11.5607V2.35792C20.2617 1.56911 20.4333 0.982561 20.7865 0.598269C21.1397 0.203865 21.6039 0.0117188 22.1791 0.0117188C22.7543 0.0117188 23.2589 0.203865 23.602 0.598269C23.9552 0.992674 24.1267 1.57922 24.1267 2.35792V11.7731C24.1267 12.845 24.2478 13.735 24.49 14.453C24.7322 15.171 25.1561 15.7272 25.7615 16.1216C26.367 16.516 27.2248 16.7183 28.3147 16.7183C29.8284 16.7183 30.8981 16.3138 31.5237 15.5149C32.1494 14.7058 32.4622 13.4923 32.4622 11.854V2.35792C32.4622 1.56911 32.6338 0.972448 32.987 0.588157C33.3301 0.203865 33.8044 0.0117188 34.3796 0.0117188C34.9548 0.0117188 35.4291 0.203865 35.7924 0.588157C36.1557 0.972448 36.3373 1.56911 36.3373 2.35792V11.5607C36.3373 13.0574 36.1961 14.3114 35.9034 15.3126C35.6108 16.3138 35.0658 17.1936 34.2585 17.9521C33.5622 18.5993 32.7549 19.0645 31.8366 19.3578C30.9183 19.6511 29.8385 19.8027 28.6073 19.8027C27.134 19.8027 25.8725 19.6409 24.8129 19.3274C23.7534 19.0139 22.8855 18.5184 22.2195 17.851C21.5534 17.1835 21.0589 16.334 20.7461 15.2924C20.4333 14.2507 20.2819 13.0069 20.2819 11.5607H20.2617Z" fill="#004177"/>
<path d="M42.9206 0.324566H47.9663C49.2782 0.324566 50.4085 0.445921 51.347 0.688632C52.2855 0.931343 53.1332 1.38643 53.9001 2.06399C55.8881 3.77308 56.8872 6.36199 56.8872 9.85096C56.8872 11.0038 56.7862 12.0455 56.5844 12.9961C56.3826 13.9467 56.0799 14.7962 55.656 15.5648C55.2423 16.3232 54.7074 17.0109 54.0515 17.6076C53.5368 18.0728 52.9818 18.4368 52.3662 18.72C51.7607 19.0032 51.1048 19.1953 50.4085 19.3066C49.7122 19.4178 48.925 19.4785 48.037 19.4785H42.9913C42.2849 19.4785 41.7601 19.3672 41.3968 19.1549C41.0436 18.9425 40.8115 18.6391 40.7005 18.2548C40.5895 17.8705 40.5391 17.3649 40.5391 16.748V2.70111C40.5391 1.86173 40.7207 1.25496 41.1042 0.880778C41.4776 0.506599 42.0831 0.314453 42.9206 0.314453V0.324566ZM44.4243 3.3989V16.394H47.3609C48.0067 16.394 48.5113 16.3738 48.8746 16.3435C49.2379 16.3131 49.6213 16.2221 50.0048 16.0805C50.3984 15.939 50.7314 15.7468 51.0241 15.494C52.3158 14.4018 52.9616 12.5107 52.9616 9.82062C52.9616 7.9295 52.679 6.51369 52.1038 5.57318C51.5387 4.63268 50.8323 4.03602 49.9947 3.77308C49.1571 3.52026 48.148 3.38879 46.9673 3.38879H44.4142L44.4243 3.3989Z" fill="#004177"/>
<path d="M60.4062 5.22706C60.4062 4.48882 60.6384 3.91238 61.1026 3.49775C61.5668 3.09323 62.1319 2.88086 62.7878 2.88086C63.4438 2.88086 63.9685 3.08312 64.4327 3.49775C64.8868 3.91238 65.1189 4.4787 65.1189 5.21695C65.1189 5.8035 64.8667 6.33949 64.3722 6.83502C63.8676 7.33056 63.3328 7.57327 62.7475 7.57327C62.1117 7.57327 61.5668 7.34067 61.1026 6.86536C60.6384 6.39005 60.4163 5.84395 60.4163 5.21695L60.4062 5.22706ZM62.7878 16.9075C62.142 16.9075 61.5869 16.6951 61.1127 16.2805C60.6484 15.8659 60.4062 15.2793 60.4062 14.5209C60.4062 13.8837 60.6283 13.3376 61.0824 12.8724C61.5365 12.4073 62.0814 12.1848 62.7374 12.1848C63.3933 12.1848 63.9584 12.4073 64.4226 12.8623C64.8868 13.3174 65.1189 13.8635 65.1189 14.5209C65.1189 15.2591 64.8868 15.8457 64.4226 16.2704C63.9584 16.6951 63.4135 16.9075 62.7878 16.9075Z" fill="#73C8AE"/>
<path d="M71.0339 0.322613H76.0796C77.3915 0.322613 78.5218 0.443968 79.4603 0.686679C80.3988 0.92939 81.2464 1.38447 82.0134 2.06204C84.0014 3.77113 85.0005 6.36004 85.0005 9.849C85.0005 11.0019 84.8995 12.0435 84.6977 12.9941C84.4959 13.9447 84.1931 14.7942 83.7693 15.5628C83.3555 16.3213 82.8207 17.009 82.1648 17.6056C81.6501 18.0708 81.0951 18.4349 80.4795 18.7181C79.874 19.0012 79.2181 19.1934 78.5218 19.3046C77.8254 19.4159 77.0383 19.4765 76.1503 19.4765H71.1046C70.3982 19.4765 69.8734 19.3653 69.5101 19.1529C69.1569 18.9405 68.9248 18.6372 68.8138 18.2529C68.7028 17.8686 68.6523 17.3629 68.6523 16.746V2.69915C68.6523 1.85978 68.834 1.253 69.2175 0.878825C69.5908 0.504646 70.1963 0.3125 71.0339 0.3125V0.322613Z" fill="#73C8AE"/>
</svg>
