<svg width="154" height="58" viewBox="0 0 154 58" fill="none" xmlns="http://www.w3.org/2000/svg">
<path opacity="0.2" d="M22.427 36.2295V54.998C22.4259 55.095 22.4052 55.1909 22.3661 55.2799C22.327 55.369 22.2702 55.4495 22.1992 55.5167C22.1281 55.5839 22.0442 55.6365 21.9523 55.6713C21.8604 55.7062 21.7624 55.7227 21.664 55.7199H16.9026C16.8042 55.7227 16.7061 55.7062 16.6142 55.6713C16.5223 55.6365 16.4384 55.5839 16.3674 55.5167C16.2963 55.4495 16.2396 55.369 16.2005 55.2799C16.1614 55.1909 16.1407 55.095 16.1396 54.998V48.0951H9.57746V54.9956C9.57645 55.0926 9.5558 55.1885 9.51671 55.2776C9.47762 55.3667 9.42089 55.4472 9.34983 55.5145C9.27877 55.5817 9.19482 55.6343 9.10288 55.6691C9.01094 55.704 8.91288 55.7204 8.81442 55.7174H4.05308C3.95462 55.7204 3.85655 55.704 3.76462 55.6691C3.67268 55.6343 3.58872 55.5817 3.51766 55.5145C3.44661 55.4472 3.38987 55.3667 3.35079 55.2776C3.3117 55.1885 3.29105 55.0926 3.29004 54.9956V36.227C3.29113 36.13 3.31184 36.0342 3.35096 35.9451C3.39007 35.856 3.4468 35.7756 3.51784 35.7084C3.58888 35.6411 3.67281 35.5886 3.76471 35.5537C3.85661 35.5188 3.95464 35.5023 4.05308 35.5052H8.81442C9.01184 35.5043 9.20187 35.5791 9.34428 35.7139C9.4867 35.8486 9.57032 36.0326 9.57746 36.227V43.1275H16.1396V36.2295C16.1407 36.1324 16.1614 36.0366 16.2005 35.9475C16.2396 35.8585 16.2963 35.778 16.3674 35.7107C16.4384 35.6435 16.5223 35.591 16.6142 35.5561C16.7061 35.5212 16.8042 35.5047 16.9026 35.5076H21.664C21.8613 35.5068 22.0513 35.5817 22.1936 35.7164C22.336 35.8511 22.4197 36.0351 22.427 36.2295V36.2295Z" fill="#1A1818"/>
<path opacity="0.2" d="M88.053 43.1296C88.053 47.2286 85.4593 51.1549 78.2251 51.1549H76.1191V54.9952C76.1116 55.1899 76.0277 55.374 75.8849 55.5087C75.7422 55.6434 75.5519 55.7182 75.3542 55.7171H70.5642C70.3669 55.7178 70.177 55.6429 70.0347 55.5082C69.8924 55.3735 69.8089 55.1895 69.8018 54.9952V36.2267C69.8139 36.0341 69.8991 35.8531 70.0403 35.7194C70.1815 35.5857 70.3684 35.5092 70.5642 35.5049H78.2251C84.5735 35.5067 88.053 38.8279 88.053 43.1296ZM81.5824 43.1897C81.5824 42.2952 80.972 40.4755 77.7691 40.4755H76.1209V46.1903H77.8301C81.1551 46.1897 81.5824 44.0818 81.5824 43.1873V43.1897Z" fill="#1A1818"/>
<path opacity="0.2" d="M118.945 43.1296C118.945 47.2286 116.352 51.1549 109.117 51.1549H107.013V54.9952C107.006 55.1894 106.922 55.3733 106.78 55.508C106.638 55.6427 106.448 55.7177 106.251 55.7171H101.459C101.262 55.7177 101.072 55.6428 100.93 55.5081C100.787 55.3734 100.704 55.1895 100.696 54.9952V36.2267C100.709 36.0341 100.794 35.8532 100.935 35.7195C101.077 35.5859 101.264 35.5093 101.459 35.5049H109.119C115.467 35.5067 118.945 38.8279 118.945 43.1296ZM112.475 43.1897C112.475 42.2952 111.864 40.4755 108.659 40.4755H107.011V46.1903H108.72C112.049 46.1897 112.477 44.0818 112.477 43.1873L112.475 43.1897Z" fill="#1A1818"/>
<path opacity="0.2" d="M152.641 36.4842C152.306 37.0918 145.682 49.0729 145.682 49.0729V54.9916C145.681 55.0887 145.661 55.1845 145.621 55.2736C145.582 55.3627 145.526 55.4431 145.455 55.5104C145.384 55.5776 145.3 55.6302 145.208 55.665C145.116 55.6999 145.018 55.7164 144.919 55.7135H140.129C140.033 55.7135 139.937 55.6948 139.848 55.6585C139.76 55.6223 139.679 55.5691 139.611 55.5021C139.543 55.4351 139.489 55.3555 139.452 55.2679C139.415 55.1803 139.396 55.0864 139.396 54.9916V49.0729C139.396 49.0729 132.744 37.0912 132.409 36.4295C132.073 35.7942 132.47 35.5049 132.989 35.5049H137.964C138.848 35.5049 139.002 35.7942 139.307 36.545C139.52 37.0064 142.542 43.4442 142.542 43.4442C142.542 43.4442 145.533 36.9775 145.746 36.545C146.082 35.7942 146.204 35.5049 147.119 35.5049H152.064C152.58 35.5031 152.976 35.8502 152.641 36.4842Z" fill="#1A1818"/>
<path opacity="0.2" d="M22.689 6.04753L15.7302 18.6363V24.5544C15.7291 24.6514 15.7083 24.7473 15.6692 24.8363C15.6301 24.9254 15.5734 25.0059 15.5023 25.0731C15.4313 25.1403 15.3474 25.1929 15.2555 25.2278C15.1636 25.2626 15.0656 25.2791 14.9671 25.2762H10.1765C9.98219 25.2762 9.79587 25.2002 9.6585 25.0648C9.52113 24.9294 9.44395 24.7458 9.44395 24.5544V18.6363C9.44395 18.6363 2.79027 6.6545 2.45637 5.99038C2.12002 5.35514 2.51742 5.06641 3.03567 5.06641H8.01006C8.89457 5.06641 9.04778 5.35514 9.353 6.10648C9.56665 6.56787 12.5883 13.0063 12.5883 13.0063C12.5883 13.0063 15.5794 6.539 15.7924 6.10648C16.1288 5.35574 16.2502 5.06641 17.1653 5.06641H22.1097C22.628 5.06581 23.0248 5.41229 22.689 6.04753Z" fill="#1A1818"/>
<path opacity="0.2" d="M87.2773 5.78858V15.8346C87.2773 23.2547 83.0654 25.6218 77.6643 25.6218C72.2632 25.6218 68.0195 23.2547 68.0195 15.8346V5.78858C68.0206 5.69159 68.0413 5.59579 68.0804 5.50677C68.1195 5.41775 68.1761 5.33728 68.2471 5.27008C68.3181 5.20288 68.402 5.15029 68.4938 5.11538C68.5856 5.08046 68.6836 5.06393 68.782 5.06673H73.5732C73.7675 5.06673 73.9538 5.14278 74.0912 5.27816C74.2286 5.41353 74.3057 5.59713 74.3057 5.78858V16.7916C74.3057 19.6189 75.5266 20.5158 77.6631 20.5158C79.7685 20.5158 80.9893 19.6207 80.9893 16.7916V5.78858C80.9906 5.69154 81.0114 5.59571 81.0506 5.50668C81.0898 5.41765 81.1466 5.33719 81.2177 5.27001C81.2888 5.20282 81.3727 5.15026 81.4646 5.11536C81.5565 5.08046 81.6545 5.06393 81.753 5.06673H86.5143C86.6127 5.06385 86.7108 5.08031 86.8027 5.11519C86.8946 5.15007 86.9785 5.20265 87.0496 5.26986C87.1206 5.33707 87.1773 5.41756 87.2164 5.50662C87.2555 5.59569 87.2763 5.69154 87.2773 5.78858V5.78858Z" fill="#1A1818"/>
<path opacity="0.2" d="M114.94 25.2738C114.638 25.3119 114.331 25.2642 114.056 25.1364C113.78 25.0085 113.547 24.8057 113.384 24.5519L106.548 14.8218V24.5519C106.54 24.7463 106.457 24.9304 106.314 25.0651C106.172 25.1998 105.982 25.2747 105.785 25.2738H100.994C100.895 25.2766 100.797 25.2602 100.706 25.2253C100.614 25.1904 100.53 25.1378 100.459 25.0706C100.388 25.0034 100.331 24.9229 100.292 24.8338C100.253 24.7448 100.232 24.6489 100.231 24.5519V5.7834C100.239 5.58908 100.322 5.40512 100.464 5.27041C100.607 5.13569 100.797 5.06078 100.994 5.06153H104.503C105.235 5.06153 105.571 5.29313 106.212 6.10162C106.852 6.91011 112.804 15.3409 112.804 15.3409V5.78581C112.806 5.68874 112.826 5.59288 112.866 5.50381C112.905 5.41474 112.962 5.33425 113.033 5.26705C113.104 5.19985 113.188 5.14729 113.28 5.11242C113.372 5.07754 113.47 5.06107 113.568 5.06395H118.329C118.428 5.06123 118.526 5.07783 118.617 5.11278C118.709 5.14774 118.793 5.20033 118.864 5.26752C118.935 5.33472 118.991 5.41516 119.03 5.50414C119.069 5.59312 119.09 5.68887 119.091 5.78581V24.5543C119.09 24.6513 119.07 24.7471 119.031 24.8361C118.992 24.9251 118.935 25.0056 118.864 25.0728C118.793 25.14 118.709 25.1926 118.618 25.2275C118.526 25.2624 118.428 25.279 118.329 25.2762L114.94 25.2738Z" fill="#1A1818"/>
<path opacity="0.2" d="M153.602 24.5558C153.601 24.6528 153.581 24.7487 153.542 24.8377C153.502 24.9268 153.446 25.0073 153.375 25.0745C153.304 25.1417 153.22 25.1943 153.128 25.2292C153.036 25.264 152.938 25.2805 152.839 25.2776H149.391C149.292 25.2805 149.194 25.264 149.102 25.2292C149.01 25.1943 148.926 25.1417 148.855 25.0745C148.784 25.0073 148.727 24.9268 148.688 24.8377C148.649 24.7487 148.629 24.6528 148.627 24.5558V23.5452C146.939 24.9216 144.807 25.6588 142.615 25.6241C136.389 25.6241 131.173 20.947 131.173 15.1727C131.173 9.39839 136.391 4.7207 142.615 4.7207C147.896 4.7207 150.948 6.65591 153.359 11.333C153.41 11.4112 153.438 11.5018 153.44 11.5947C153.443 11.6877 153.419 11.7795 153.372 11.86C153.324 11.9405 153.255 12.0066 153.173 12.0511C153.09 12.0955 152.996 12.1166 152.902 12.112H148.11C147.963 12.1061 147.819 12.0696 147.688 12.005C147.556 11.9405 147.44 11.8492 147.347 11.7372C145.914 10.1203 144.478 9.83151 142.617 9.83151C141.211 9.87802 139.878 10.4611 138.9 11.4577C137.922 12.4543 137.375 13.7864 137.375 15.1727C137.375 16.559 137.922 17.8911 138.9 18.8877C139.878 19.8843 141.211 20.4674 142.617 20.5139C144.57 20.5139 146.309 19.792 147.073 18.2328H143.502C143.307 18.2328 143.121 18.1568 142.984 18.0214C142.846 17.886 142.769 17.7024 142.769 17.511V14.8834C142.769 14.6919 142.846 14.5083 142.984 14.3729C143.121 14.2376 143.307 14.1615 143.502 14.1615H152.841C152.94 14.1586 153.038 14.1751 153.13 14.21C153.222 14.2448 153.305 14.2974 153.377 14.3646C153.448 14.4318 153.504 14.5123 153.543 14.6014C153.582 14.6905 153.603 14.7863 153.604 14.8834L153.602 24.5558Z" fill="#1A1818"/>
<path d="M21.0896 34.9121V53.6806C21.0885 53.7776 21.0678 53.8735 21.0287 53.9626C20.9895 54.0516 20.9328 54.1321 20.8618 54.1993C20.7907 54.2665 20.7068 54.3191 20.6149 54.354C20.523 54.3889 20.425 54.4053 20.3265 54.4025H15.5652C15.4668 54.4053 15.3688 54.3889 15.2769 54.354C15.1851 54.3191 15.1012 54.2665 15.0302 54.1993C14.9592 54.1321 14.9025 54.0516 14.8635 53.9625C14.8244 53.8734 14.8038 53.7776 14.8028 53.6806V46.7778H8.2425V53.6782C8.24141 53.7752 8.2207 53.8711 8.18158 53.9601C8.14247 54.0492 8.08573 54.1297 8.01469 54.1969C7.94364 54.2641 7.85972 54.3167 7.76783 54.3516C7.67593 54.3865 7.5779 54.4029 7.47946 54.4H2.71811C2.61966 54.403 2.52159 54.3866 2.42966 54.3518C2.33772 54.3169 2.25376 54.2643 2.1827 54.1971C2.11164 54.1299 2.05491 54.0494 2.01583 53.9603C1.97674 53.8712 1.95609 53.7753 1.95508 53.6782V34.9097C1.95617 34.8127 1.97688 34.7168 2.01599 34.6277C2.05511 34.5387 2.11184 34.4582 2.18288 34.391C2.25392 34.3238 2.33785 34.2712 2.42975 34.2363C2.52165 34.2014 2.61968 34.1849 2.71811 34.1878H7.47946C7.67683 34.1871 7.86677 34.2619 8.00915 34.3966C8.15154 34.5313 8.23521 34.7153 8.2425 34.9097V41.8137H14.8034V34.9121C14.8044 34.8151 14.825 34.7192 14.8641 34.6302C14.9031 34.5411 14.9598 34.4606 15.0308 34.3934C15.1018 34.3262 15.1857 34.2736 15.2775 34.2387C15.3694 34.2038 15.4674 34.1873 15.5658 34.1902H20.3272C20.5244 34.1898 20.7141 34.2648 20.8563 34.3994C20.9985 34.5341 21.0821 34.7179 21.0896 34.9121V34.9121Z" fill="#A1CF77"/>
<path d="M86.7223 41.8122C86.7223 45.9112 84.1286 49.8375 76.8944 49.8375H74.789V53.6778C74.7816 53.8724 74.6977 54.0564 74.5551 54.1911C74.4125 54.3258 74.2223 54.4006 74.0247 54.3997H69.2341C69.0368 54.4005 68.8469 54.3256 68.7046 54.1909C68.5623 54.0562 68.4788 53.8722 68.4717 53.6778V34.9094C68.484 34.7168 68.5692 34.5359 68.7103 34.4022C68.8515 34.2685 69.0384 34.1919 69.2341 34.1875H76.8944C83.2428 34.1881 86.7223 37.5093 86.7223 41.8122ZM80.2517 41.8723C80.2517 40.9778 79.6413 39.1581 76.4378 39.1581H74.7896V44.8729H76.4988C79.8263 44.8711 80.2523 42.7633 80.2523 41.8687L80.2517 41.8723Z" fill="#A1CF77"/>
<path d="M117.616 41.8122C117.616 45.9112 115.023 49.8375 107.789 49.8375H105.683V53.6778C105.675 53.8722 105.592 54.0562 105.45 54.1909C105.307 54.3256 105.117 54.4005 104.92 54.3997H100.129C99.9314 54.4006 99.7413 54.3258 99.5988 54.1911C99.4563 54.0564 99.3725 53.8723 99.3652 53.6778V34.9094C99.3777 34.7167 99.4631 34.5356 99.6045 34.402C99.7459 34.2683 99.933 34.1918 100.129 34.1875H107.789C114.139 34.1881 117.616 37.5093 117.616 41.8122ZM111.146 41.8723C111.146 40.9778 110.535 39.1581 107.331 39.1581H105.683V44.8729H107.391C110.721 44.8711 111.149 42.7633 111.149 41.8687L111.146 41.8723Z" fill="#A1CF77"/>
<path d="M151.308 35.1716L144.349 47.7597V53.6784C144.348 53.7754 144.327 53.8713 144.288 53.9603C144.249 54.0494 144.192 54.1299 144.121 54.1971C144.05 54.2643 143.966 54.3169 143.874 54.3518C143.782 54.3867 143.684 54.4031 143.586 54.4002H138.795C138.601 54.4002 138.414 54.3242 138.277 54.1888C138.14 54.0535 138.062 53.8699 138.062 53.6784V47.7597C138.062 47.7597 131.409 35.7785 131.074 35.115C130.739 34.4798 131.135 34.1904 131.654 34.1904H136.629C137.513 34.1904 137.666 34.4798 137.971 35.2311C138.185 35.6925 141.207 42.1298 141.207 42.1298C141.207 42.1298 144.198 35.6642 144.411 35.2311C144.746 34.4804 144.869 34.1904 145.784 34.1904H150.729C151.246 34.1898 151.643 34.5351 151.308 35.1716Z" fill="#A1CF77"/>
<path d="M21.3544 4.73603L14.3955 17.3248V23.2428C14.3944 23.3398 14.3738 23.4356 14.3347 23.5247C14.2956 23.6137 14.2389 23.6941 14.1679 23.7613C14.097 23.8285 14.0131 23.8811 13.9213 23.9161C13.8295 23.951 13.7315 23.9675 13.6331 23.9647H8.84186C8.64758 23.9647 8.46126 23.8887 8.32389 23.7533C8.18651 23.6179 8.10934 23.4343 8.10934 23.2428V17.3248C8.10934 17.3248 1.45566 5.34299 1.12115 4.67888C0.785413 4.04364 1.18219 3.75488 1.70045 3.75488H6.67422C7.55873 3.75488 7.71195 4.04363 8.01716 4.79497C8.23081 5.25637 11.2524 11.6948 11.2524 11.6948C11.2524 11.6948 14.2435 5.22749 14.4566 4.79497C14.7929 4.04423 14.9144 3.75488 15.8294 3.75488H20.7739C21.2934 3.75428 21.6908 4.10078 21.3544 4.73603Z" fill="#A1CF77"/>
<path d="M85.9473 4.47417V14.5201C85.9473 21.9403 81.7353 24.3074 76.3342 24.3074C70.9331 24.3074 66.6895 21.9403 66.6895 14.5201V4.47417C66.6905 4.37718 66.7112 4.28138 66.7503 4.19235C66.7894 4.10333 66.8461 4.02286 66.917 3.95566C66.988 3.88846 67.0719 3.83586 67.1637 3.80094C67.2555 3.76603 67.3535 3.74949 67.4519 3.75229H72.2431C72.4374 3.75229 72.6237 3.82835 72.7611 3.96372C72.8985 4.0991 72.9757 4.28272 72.9757 4.47417V15.4742C72.9757 18.3015 74.1965 19.1984 76.333 19.1984C78.4378 19.1984 79.6592 18.3033 79.6592 15.4742V4.47417C79.6605 4.37717 79.6813 4.2814 79.7205 4.19241C79.7596 4.10342 79.8164 4.02299 79.8874 3.95581C79.9584 3.88863 80.0423 3.83605 80.1341 3.80111C80.2259 3.76617 80.3239 3.74957 80.4223 3.75229H85.1836C85.2821 3.74933 85.3802 3.76575 85.4722 3.80059C85.5641 3.83544 85.6481 3.88801 85.7192 3.95522C85.7903 4.02244 85.8471 4.10295 85.8863 4.19206C85.9254 4.28116 85.9462 4.37707 85.9473 4.47417V4.47417Z" fill="#A1CF77"/>
<path d="M113.608 23.9624C113.306 24.0006 112.999 23.953 112.723 23.8251C112.447 23.6972 112.214 23.4944 112.051 23.2405L105.216 13.5128V23.2423C105.208 23.4368 105.125 23.6209 104.982 23.7556C104.84 23.8903 104.65 23.9651 104.452 23.9642H99.6621C99.5636 23.9672 99.4655 23.9507 99.3735 23.9159C99.2816 23.8811 99.1976 23.8285 99.1265 23.7613C99.0553 23.6941 98.9986 23.6135 98.9594 23.5244C98.9203 23.4353 98.8995 23.3394 98.8984 23.2423V4.47383C98.9057 4.27936 98.9895 4.0953 99.132 3.96058C99.2745 3.82587 99.4646 3.75105 99.6621 3.75196H103.17C103.903 3.75196 104.238 3.98356 104.879 4.79205C105.52 5.60054 111.472 14.0313 111.472 14.0313V4.47444C111.473 4.3774 111.494 4.28154 111.533 4.19248C111.572 4.10342 111.629 4.02293 111.7 3.95572C111.771 3.88851 111.855 3.83593 111.947 3.80105C112.039 3.76617 112.137 3.74968 112.235 3.75257H116.996C117.095 3.74985 117.193 3.76645 117.284 3.8014C117.376 3.83635 117.46 3.88897 117.531 3.95616C117.602 4.02335 117.658 4.10377 117.697 4.19276C117.736 4.28174 117.757 4.3775 117.758 4.47444V23.2429C117.757 23.3399 117.736 23.4356 117.697 23.5246C117.658 23.6136 117.602 23.694 117.531 23.7612C117.46 23.8284 117.376 23.881 117.284 23.916C117.193 23.9509 117.095 23.9675 116.996 23.9648L113.608 23.9624Z" fill="#A1CF77"/>
<path d="M152.273 23.2427C152.272 23.3397 152.251 23.4356 152.212 23.5246C152.173 23.6137 152.116 23.6942 152.045 23.7614C151.974 23.8286 151.89 23.8812 151.798 23.9161C151.706 23.9509 151.608 23.9674 151.51 23.9645H148.062C147.963 23.9674 147.865 23.9509 147.773 23.9161C147.681 23.8812 147.597 23.8286 147.526 23.7614C147.455 23.6942 147.399 23.6137 147.36 23.5246C147.32 23.4356 147.3 23.3397 147.299 23.2427V22.2326C145.609 23.609 143.477 24.3462 141.286 24.3116C135.059 24.3116 129.843 19.6345 129.843 13.8596C129.843 8.08468 135.061 3.4082 141.286 3.4082C146.566 3.4082 149.618 5.34281 152.029 10.0205C152.081 10.0987 152.109 10.1894 152.111 10.2824C152.113 10.3754 152.089 10.4673 152.042 10.5478C151.995 10.6283 151.926 10.6944 151.843 10.7388C151.76 10.7833 151.666 10.8042 151.572 10.7995H146.78C146.634 10.7936 146.49 10.7571 146.358 10.6925C146.227 10.628 146.111 10.5367 146.017 10.4247C144.585 8.80776 143.148 8.51962 141.287 8.51962C139.881 8.56612 138.548 9.14921 137.571 10.1458C136.593 11.1424 136.046 12.4745 136.046 13.8608C136.046 15.2472 136.593 16.5792 137.571 17.5758C138.548 18.5724 139.881 19.1555 141.287 19.202C143.24 19.202 144.98 18.4802 145.743 16.9209H142.174C141.98 16.9209 141.793 16.8449 141.656 16.7095C141.519 16.5741 141.442 16.3905 141.442 16.1991V13.5715C141.442 13.38 141.519 13.1964 141.656 13.061C141.793 12.9257 141.98 12.8496 142.174 12.8496H151.514C151.612 12.8466 151.71 12.8631 151.802 12.8979C151.894 12.9328 151.978 12.9853 152.049 13.0526C152.12 13.1198 152.177 13.2003 152.216 13.2894C152.255 13.3785 152.276 13.4744 152.277 13.5715L152.273 23.2427Z" fill="#A1CF77"/>
<g style="mix-blend-mode:multiply" opacity="0.2">
<g style="mix-blend-mode:multiply" opacity="0.2">
<g style="mix-blend-mode:multiply" opacity="0.2">
<g style="mix-blend-mode:multiply" opacity="0.2">
<path d="M36.3187 45.3986C36.4343 45.0591 36.6561 44.7644 36.9522 44.5568C37.2483 44.3492 37.6035 44.2393 37.9669 44.243C38.02 44.0739 38.0712 43.9109 38.1201 43.7617C38.1133 43.7617 38.1097 43.7569 38.106 43.7551C37.8384 43.6668 37.5557 43.6313 37.2742 43.6506C36.9927 43.67 36.7177 43.7437 36.4651 43.8678C36.2125 43.9918 35.9872 44.1637 35.8019 44.3735C35.6167 44.5834 35.4753 44.8272 35.3856 45.0909C35.296 45.3546 35.26 45.6332 35.2796 45.9106C35.2992 46.1881 35.3741 46.459 35.5 46.7079C35.6258 46.9569 35.8002 47.1789 36.0132 47.3614C36.2261 47.544 36.4735 47.6834 36.7411 47.7717C36.8058 47.7934 36.8699 47.8096 36.9352 47.8252C36.9591 47.6722 36.9923 47.5207 37.0347 47.3716C36.7083 47.1694 36.4603 46.8649 36.3304 46.5071C36.2006 46.1493 36.1965 45.759 36.3187 45.3986V45.3986Z" fill="#1A1818"/>
</g>
</g>
<g style="mix-blend-mode:multiply" opacity="0.2">
<g style="mix-blend-mode:multiply" opacity="0.2">
<path d="M36.318 45.3992C36.1959 45.7597 36.2002 46.1502 36.3303 46.508C36.4604 46.8658 36.7087 47.1702 37.0353 47.3723C37.2184 46.6396 37.6317 45.3024 37.9674 44.2442C37.6039 44.2403 37.2485 44.35 36.9522 44.5575C36.6558 44.765 36.4338 45.0597 36.318 45.3992V45.3992Z" fill="#1A1818"/>
</g>
</g>
</g>
<g style="mix-blend-mode:multiply" opacity="0.2">
<g style="mix-blend-mode:multiply" opacity="0.2">
<path d="M35.106 47.1274C35.044 47.3088 35.0381 47.5043 35.0889 47.689C35.1396 47.8737 35.2449 48.0395 35.3913 48.1652C35.5377 48.291 35.7187 48.3711 35.9113 48.3955C36.104 48.4198 36.2996 48.3873 36.4735 48.3021C36.6474 48.2168 36.7917 48.0826 36.8882 47.9165C36.9846 47.7504 37.0289 47.5598 37.0155 47.3689C37.002 47.178 36.9313 46.9953 36.8124 46.8439C36.6936 46.6926 36.5318 46.5794 36.3476 46.5187C36.101 46.4374 35.8318 46.4559 35.599 46.57C35.3662 46.6842 35.1889 46.8846 35.106 47.1274Z" fill="#1A1818"/>
</g>
</g>
<g style="mix-blend-mode:multiply" opacity="0.2">
<g style="mix-blend-mode:multiply" opacity="0.7">
<g style="mix-blend-mode:multiply" opacity="0.7">
<path d="M35.7879 46.8022C35.7344 46.8489 35.6961 46.9101 35.6779 46.9782C35.6597 47.0463 35.6625 47.1181 35.6858 47.1847C35.7091 47.2512 35.7519 47.3095 35.8089 47.352C35.8658 47.3945 35.9343 47.4194 36.0056 47.4236C36.0769 47.4277 36.1478 47.4109 36.2094 47.3752C36.2711 47.3396 36.3205 47.2867 36.3516 47.2233C36.3827 47.16 36.394 47.0889 36.384 47.0192C36.3741 46.9495 36.3434 46.8842 36.2958 46.8317C36.2323 46.7615 36.1432 46.719 36.048 46.7135C35.9528 46.708 35.8593 46.7399 35.7879 46.8022V46.8022Z" fill="#1A1818"/>
</g>
</g>
<g style="mix-blend-mode:multiply" opacity="0.8">
<g style="mix-blend-mode:multiply" opacity="0.8">
<path d="M35.4824 46.8715C35.4326 46.9161 35.4026 46.9782 35.3988 47.0443C35.3951 47.1105 35.4178 47.1754 35.4622 47.2252C35.4957 47.2619 35.5394 47.2879 35.5879 47.3001C35.6364 47.3123 35.6874 47.3101 35.7346 47.2937C35.7818 47.2774 35.823 47.2476 35.8531 47.2082C35.8831 47.1687 35.9006 47.1215 35.9034 47.0722C35.9062 47.023 35.8942 46.9741 35.8688 46.9316C35.8434 46.8891 35.8059 46.855 35.7608 46.8335C35.7158 46.812 35.6653 46.8042 35.6157 46.811C35.5662 46.8177 35.5198 46.8388 35.4824 46.8715Z" fill="#1A1818"/>
</g>
</g>
</g>
<g style="mix-blend-mode:multiply" opacity="0.2">
<g style="mix-blend-mode:multiply" opacity="0.2">
<g style="mix-blend-mode:multiply" opacity="0.2">
<g style="mix-blend-mode:multiply" opacity="0.2">
<path d="M38.2262 43.1043C38.048 43.6295 36.7355 47.6852 36.6788 48.2175C36.2911 51.9411 38.8153 55.6768 42.9009 57.0237C46.9865 58.3706 51.2839 56.8902 53.247 53.6869C53.5284 53.2285 54.9617 49.2125 55.1393 48.6868C56.5659 44.4891 53.9362 39.8349 49.2658 38.2949C44.5954 36.7549 39.6534 38.9055 38.2262 43.1043Z" fill="#1A1818"/>
</g>
</g>
</g>
<g style="mix-blend-mode:multiply" opacity="0.7">
<g style="mix-blend-mode:multiply" opacity="0.7">
<g style="mix-blend-mode:multiply" opacity="0.7">
<path d="M49.8768 52.4206C49.7764 52.7155 49.767 53.0331 49.8498 53.3332C49.9326 53.6332 50.1039 53.9024 50.3419 54.1066C50.5799 54.3108 50.874 54.4409 51.187 54.4804C51.5 54.5199 51.8179 54.467 52.1005 54.3284C52.383 54.1899 52.6175 53.9719 52.7743 53.702C52.9311 53.4322 53.0032 53.1225 52.9815 52.8123C52.9597 52.502 52.8451 52.2051 52.6521 51.959C52.4592 51.713 52.1965 51.5288 51.8973 51.4299C51.496 51.2977 51.0579 51.3277 50.6791 51.5135C50.3003 51.6992 50.0118 52.0255 49.8768 52.4206V52.4206Z" fill="#1A1818"/>
</g>
</g>
<g style="mix-blend-mode:multiply" opacity="0.7">
<g style="mix-blend-mode:multiply" opacity="0.7">
<path d="M37.1296 48.2157C37.0293 48.5104 37.02 48.8277 37.1027 49.1276C37.1855 49.4275 37.3566 49.6964 37.5945 49.9005C37.8323 50.1045 38.1262 50.2344 38.439 50.2739C38.7518 50.3133 39.0695 50.2604 39.3518 50.122C39.6341 49.9835 39.8684 49.7656 40.0251 49.4959C40.1817 49.2262 40.2537 48.9168 40.232 48.6068C40.2102 48.2968 40.0956 48.0001 39.9027 47.7542C39.7098 47.5084 39.4473 47.3244 39.1483 47.2256C38.7474 47.0936 38.3096 47.1237 37.9312 47.3093C37.5527 47.495 37.2645 47.8209 37.1296 48.2157Z" fill="#1A1818"/>
</g>
</g>
</g>
<g style="mix-blend-mode:multiply" opacity="0.2">
<g style="mix-blend-mode:multiply" opacity="0.2">
<g style="mix-blend-mode:multiply" opacity="0.2">
<path d="M52.18 49.7683C52.3188 49.8171 52.4716 49.8101 52.6053 49.7489C52.7389 49.6877 52.8428 49.5771 52.8945 49.4411C52.9462 49.305 52.9415 49.1544 52.8815 49.0217C52.8215 48.889 52.7109 48.7849 52.5737 48.7319L50.4415 47.8602C50.3046 47.8076 50.1523 47.8098 50.0171 47.8664C49.8818 47.9231 49.7745 48.0296 49.718 48.1633C49.6615 48.297 49.6604 48.4471 49.7148 48.5816C49.7693 48.7161 49.875 48.8242 50.0093 48.8829L52.1458 49.7545C52.1569 49.7599 52.1683 49.7645 52.18 49.7683V49.7683Z" fill="#1A1818"/>
</g>
</g>
<g style="mix-blend-mode:multiply" opacity="0.2">
<g style="mix-blend-mode:multiply" opacity="0.2">
<g style="mix-blend-mode:multiply" opacity="0.2">
<path d="M43.8226 52.5108C43.4943 52.4001 43.1395 52.3911 42.806 52.485C42.4724 52.5789 42.1759 52.7711 41.9565 53.0359C41.8082 52.5113 41.8143 51.9559 41.9742 51.4346L47.0004 53.0937C46.8087 53.5736 46.4986 53.9989 46.0982 54.3311C45.6978 54.6633 45.2196 54.892 44.707 54.9964C44.7927 54.8752 44.8605 54.7428 44.9085 54.6029C45.0458 54.1836 45.0085 53.7277 44.8048 53.3354C44.6012 52.9431 44.2479 52.6465 43.8226 52.5108V52.5108Z" fill="#1A1818"/>
</g>
</g>
<g style="mix-blend-mode:multiply" opacity="0.2">
<g style="mix-blend-mode:multiply" opacity="0.2">
<path d="M41.957 53.0385C42.2088 52.7376 42.5587 52.5322 42.9471 52.4572C43.3354 52.3822 43.7381 52.4424 44.0865 52.6274C44.4348 52.8124 44.7072 53.1108 44.8573 53.4716C45.0073 53.8325 45.0256 54.2334 44.9091 54.6061C44.8611 54.746 44.7933 54.8784 44.7076 54.9995C44.3327 55.077 43.9438 55.0562 43.5795 54.9394C43.1715 54.7781 42.8101 54.5203 42.5271 54.1888C42.2442 53.8573 42.0484 53.4622 41.957 53.0385V53.0385Z" fill="#1A1818"/>
</g>
</g>
</g>
<g style="mix-blend-mode:multiply" opacity="0.2">
<g style="mix-blend-mode:multiply" opacity="0.2">
<path d="M44.3211 49.8555C44.1569 50.3397 44.5225 50.5629 45.0145 50.7241C45.5065 50.8853 45.9338 50.925 46.098 50.442L44.3211 49.8555Z" fill="#1A1818"/>
</g>
</g>
<g style="mix-blend-mode:multiply" opacity="0.2">
<g style="mix-blend-mode:multiply" opacity="0.2">
<g style="mix-blend-mode:multiply" opacity="0.2">
<g style="mix-blend-mode:multiply" opacity="0.2">
<path d="M48.8776 49.9874C48.7678 50.3108 48.7577 50.659 48.8486 50.988C48.9396 51.317 49.1275 51.612 49.3886 51.8358C49.6498 52.0595 49.9724 52.202 50.3156 52.245C50.6589 52.2881 51.0074 52.2299 51.3171 52.0777C51.6268 51.9256 51.8838 51.6864 52.0555 51.3903C52.2272 51.0943 52.306 50.7547 52.2818 50.4145C52.2577 50.0744 52.1317 49.7489 51.9199 49.4793C51.708 49.2097 51.4198 49.008 51.0917 48.8998C50.8738 48.8279 50.6437 48.799 50.4146 48.8147C50.1854 48.8305 49.9616 48.8906 49.756 48.9916C49.5504 49.0926 49.367 49.2325 49.2163 49.4034C49.0656 49.5743 48.9505 49.7727 48.8776 49.9874V49.9874Z" fill="#1A1818"/>
</g>
</g>
<g style="mix-blend-mode:multiply" opacity="0.2">
<g style="mix-blend-mode:multiply" opacity="0.2">
<path d="M49.5184 49.6674C49.4877 49.7579 49.4849 49.8552 49.5105 49.9472C49.5361 50.0392 49.5888 50.1216 49.6619 50.184C49.7351 50.2464 49.8254 50.286 49.9215 50.2977C50.0175 50.3094 50.1149 50.2928 50.2013 50.2498C50.2877 50.2069 50.3592 50.1397 50.4068 50.0566C50.4544 49.9736 50.4758 49.8785 50.4684 49.7834C50.4611 49.6884 50.4252 49.5976 50.3654 49.5226C50.3056 49.4477 50.2245 49.3919 50.1325 49.3624C50.0718 49.3425 50.0078 49.3346 49.9441 49.3391C49.8803 49.3437 49.8181 49.3607 49.761 49.389C49.704 49.4174 49.6531 49.4565 49.6115 49.5043C49.5699 49.5521 49.5382 49.6075 49.5184 49.6674V49.6674Z" fill="#1A1818"/>
</g>
</g>
</g>
</g>
<g style="mix-blend-mode:multiply" opacity="0.2">
<g style="mix-blend-mode:multiply" opacity="0.2">
<path d="M39.9857 45.7407C39.996 45.7407 40.0088 45.7485 40.0229 45.7503L42.2583 46.3206C42.4008 46.3522 42.5503 46.3279 42.6749 46.2528C42.7996 46.1777 42.8897 46.0577 42.9261 45.9182C42.9626 45.7788 42.9425 45.6308 42.8701 45.5057C42.7977 45.3806 42.6788 45.2882 42.5385 45.248L40.3025 44.6778C40.1613 44.6418 40.0114 44.6614 39.8845 44.7323C39.7576 44.8031 39.6637 44.9198 39.6225 45.0577C39.5813 45.1956 39.5961 45.3438 39.6637 45.4712C39.7314 45.5985 39.8466 45.6949 39.985 45.7401L39.9857 45.7407Z" fill="#1A1818"/>
</g>
</g>
<g style="mix-blend-mode:multiply" opacity="0.2">
<g style="mix-blend-mode:multiply" opacity="0.2">
<g style="mix-blend-mode:multiply" opacity="0.2">
<g style="mix-blend-mode:multiply" opacity="0.2">
<path d="M39.0197 46.7339C38.9095 47.0572 38.8992 47.4055 38.9899 47.7346C39.0807 48.0637 39.2685 48.3589 39.5295 48.5829C39.7906 48.8068 40.1131 48.9494 40.4565 48.9926C40.7998 49.0359 41.1484 48.9778 41.4582 48.8257C41.768 48.6737 42.025 48.4345 42.1969 48.1384C42.3687 47.8423 42.4475 47.5027 42.4234 47.1625C42.3993 46.8222 42.2734 46.4966 42.0615 46.227C41.8496 45.9573 41.5613 45.7556 41.2331 45.6474C40.7933 45.5027 40.3133 45.5358 39.8983 45.7395C39.4834 45.9432 39.1673 46.3008 39.0197 46.7339V46.7339Z" fill="#1A1818"/>
</g>
</g>
<g style="mix-blend-mode:multiply" opacity="0.2">
<g style="mix-blend-mode:multiply" opacity="0.2">
<path d="M39.6584 46.4135C39.6269 46.5038 39.6233 46.6013 39.6482 46.6936C39.673 46.7859 39.7252 46.8688 39.7981 46.9318C39.8709 46.9948 39.9611 47.035 40.0572 47.0473C40.1533 47.0596 40.2509 47.0435 40.3377 47.001C40.4245 46.9585 40.4964 46.8914 40.5444 46.8085C40.5924 46.7255 40.6143 46.6303 40.6072 46.5351C40.6002 46.4398 40.5645 46.3488 40.5048 46.2736C40.4451 46.1984 40.364 46.1424 40.2719 46.1127C40.1501 46.0734 40.0174 46.083 39.9027 46.1392C39.7879 46.1955 39.7002 46.294 39.6584 46.4135V46.4135Z" fill="#1A1818"/>
</g>
</g>
</g>
</g>
</g>
<g style="mix-blend-mode:multiply" opacity="0.2">
<g style="mix-blend-mode:multiply" opacity="0.2">
<g style="mix-blend-mode:multiply" opacity="0.2">
<path d="M55.2726 51.658C55.3881 51.3182 55.3913 50.951 55.2816 50.6093C55.1719 50.2676 54.955 49.969 54.6622 49.7565C54.7232 49.5898 54.7842 49.4286 54.8337 49.2812C54.8388 49.2822 54.8439 49.2834 54.8489 49.2848C55.3892 49.4631 55.8354 49.8456 56.0895 50.3481C56.3436 50.8507 56.3847 51.4321 56.2038 51.9645C56.0229 52.4969 55.6348 52.9366 55.1248 53.187C54.6149 53.4374 54.0249 53.4779 53.4846 53.2996C53.4199 53.278 53.3571 53.2545 53.2979 53.2286C53.3442 53.1492 53.412 53.0007 53.4956 52.8076C53.8797 52.8399 54.2636 52.7441 54.5858 52.5356C54.9081 52.3272 55.1499 52.0181 55.2726 51.658V51.658Z" fill="#1A1818"/>
</g>
</g>
<g style="mix-blend-mode:multiply" opacity="0.2">
<g style="mix-blend-mode:multiply" opacity="0.2">
<path d="M55.2743 51.6574C55.1513 52.0175 54.9092 52.3264 54.5868 52.5347C54.2643 52.7429 53.8802 52.8384 53.4961 52.8057C53.7915 52.1085 54.2811 50.799 54.6626 49.7559C54.9557 49.9682 55.1728 50.2667 55.2827 50.6084C55.3926 50.9502 55.3897 51.3174 55.2743 51.6574V51.6574Z" fill="#1A1818"/>
</g>
</g>
</g>
<g style="mix-blend-mode:multiply" opacity="0.2">
<g style="mix-blend-mode:multiply" opacity="0.2">
<path d="M53.3239 53.1454C53.2633 53.3258 53.2582 53.5198 53.3094 53.703C53.3605 53.8863 53.4655 54.0505 53.6112 54.175C53.7569 54.2995 53.9367 54.3787 54.128 54.4027C54.3193 54.4266 54.5135 54.3942 54.6862 54.3096C54.8588 54.2249 55.0022 54.0918 55.0982 53.927C55.1942 53.7622 55.2385 53.5731 55.2256 53.3835C55.2127 53.1939 55.1431 53.0122 55.0257 52.8615C54.9082 52.7108 54.7481 52.5978 54.5655 52.5366C54.4434 52.4962 54.3145 52.4799 54.186 52.4886C54.0575 52.4973 53.932 52.531 53.8167 52.5875C53.7014 52.644 53.5985 52.7224 53.514 52.8181C53.4294 52.9138 53.3648 53.025 53.3239 53.1454V53.1454Z" fill="#1A1818"/>
</g>
</g>
<g style="mix-blend-mode:multiply" opacity="0.2">
<g style="mix-blend-mode:multiply" opacity="0.7">
<g style="mix-blend-mode:multiply" opacity="0.7">
<path d="M54.0066 52.8173C53.9348 52.8801 53.8913 52.9683 53.8854 53.0627C53.8796 53.1571 53.912 53.2499 53.9754 53.3208C54.0068 53.3562 54.0451 53.385 54.0879 53.4055C54.1307 53.4261 54.1773 53.4381 54.2249 53.4407C54.2725 53.4433 54.3201 53.4366 54.365 53.4208C54.4099 53.4051 54.4512 53.3807 54.4864 53.3491C54.5577 53.2863 54.6009 53.1981 54.6065 53.104C54.6121 53.0099 54.5797 52.9174 54.5163 52.8468C54.4519 52.7775 54.3627 52.7356 54.2675 52.7301C54.1723 52.7246 54.0787 52.7559 54.0066 52.8173V52.8173Z" fill="#1A1818"/>
</g>
</g>
<g style="mix-blend-mode:multiply" opacity="0.8">
<g style="mix-blend-mode:multiply" opacity="0.8">
<path d="M53.7037 52.8884C53.6659 52.921 53.6387 52.964 53.6258 53.0119C53.6128 53.0597 53.6146 53.1103 53.6309 53.1572C53.6472 53.2041 53.6772 53.2451 53.7173 53.2751C53.7573 53.3051 53.8055 53.3226 53.8557 53.3255C53.9059 53.3284 53.9558 53.3165 53.9992 53.2913C54.0425 53.2662 54.0772 53.2289 54.099 53.1842C54.1207 53.1395 54.1284 53.0895 54.1212 53.0404C54.114 52.9914 54.0921 52.9456 54.0584 52.9088C54.014 52.86 53.9518 52.8304 53.8853 52.8266C53.8189 52.8228 53.7536 52.845 53.7037 52.8884V52.8884Z" fill="#1A1818"/>
</g>
</g>
</g>
<g style="mix-blend-mode:multiply" opacity="0.2">
<g style="mix-blend-mode:multiply" opacity="0.2">
<path d="M50.2604 35.3869C50.6872 35.5277 51.105 35.6934 51.5118 35.8832C52.861 36.4943 54.0687 37.3716 55.0602 38.4608C57.0185 40.633 57.8261 43.4537 56.944 46.0494C56.9019 46.1697 55.7476 49.5565 55.595 49.983C53.6044 48.8683 52.5233 45.8954 51.6015 44.0276C50.1614 45.107 48.4717 45.8169 46.6842 46.0935C44.8968 46.3702 43.0676 46.205 41.361 45.6127C39.8577 45.1208 38.4735 44.3287 37.2949 43.2859C37.5446 42.5008 38.3442 40.1235 38.4089 39.9334C39.8361 35.7315 45.1414 33.6965 50.2604 35.3869Z" fill="#1A1818"/>
</g>
<g style="mix-blend-mode:multiply" opacity="0.2">
<path d="M36.815 43.8138C36.7129 43.7227 36.6393 43.6049 36.6025 43.4741C36.5658 43.3434 36.5675 43.205 36.6074 43.0751C36.8553 42.2985 37.6452 39.9392 37.7264 39.7064C38.1301 38.5743 38.7852 37.5454 39.6439 36.6946C40.5026 35.8438 41.5432 35.1927 42.6897 34.7887C45.2019 33.8678 47.9617 33.8412 50.4916 34.7135C50.9447 34.8622 51.3887 35.0367 51.8212 35.2363C53.2583 35.8943 54.5456 36.8319 55.6058 37.9926C57.8034 40.4349 58.564 43.5323 57.6318 46.2754C57.6209 46.3091 56.4378 49.7789 56.2773 50.221C56.2426 50.3195 56.1863 50.4093 56.1124 50.4839C56.0384 50.5584 55.9486 50.616 55.8495 50.6524C55.7503 50.6888 55.6442 50.7031 55.5388 50.6943C55.4333 50.6856 55.3312 50.654 55.2396 50.6018C53.3747 49.5575 52.2912 47.2138 51.4189 45.3286C51.3853 45.254 51.3505 45.1788 51.3169 45.1084C50.0067 45.9516 48.5321 46.5159 46.9878 46.7651C45.1762 47.0494 43.323 46.9319 41.5632 46.4214C39.8034 45.9109 38.1813 45.0201 36.815 43.8138V43.8138ZM52.2515 43.7152C52.4084 44.0328 52.5671 44.3769 52.735 44.7378C53.3826 46.1401 54.1615 47.825 55.2341 48.8284C55.6235 47.6957 56.2211 45.9469 56.2626 45.8242C57.0287 43.5684 56.378 40.9931 54.5235 38.9358C53.5949 37.9222 52.4681 37.1037 51.2107 36.5296C50.8275 36.3526 50.4341 36.1978 50.0326 36.0658C45.2993 34.5018 40.3927 36.3395 39.0943 40.1612C39.0272 40.3561 38.4528 42.0729 38.1292 43.0571C39.1553 43.8904 40.329 44.5293 41.591 44.9418C43.1845 45.4904 44.8908 45.6433 46.5586 45.387C48.2264 45.1306 49.8044 44.4729 51.1527 43.4722C51.2377 43.4059 51.3366 43.3592 51.4422 43.3354C51.5478 43.3117 51.6575 43.3116 51.7632 43.335C51.7833 43.3404 51.8071 43.3465 51.8303 43.3543C51.9212 43.3839 52.0052 43.4311 52.0774 43.4931C52.1496 43.555 52.2086 43.6305 52.2509 43.7152H52.2515Z" fill="#1A1818"/>
</g>
</g>
<g style="mix-blend-mode:multiply" opacity="0.2">
<g style="mix-blend-mode:multiply" opacity="0.2">
<g style="mix-blend-mode:multiply" opacity="0.2">
<path d="M46.4605 50.0121C46.7147 49.2645 47.1881 48.608 47.8209 48.1255C48.4536 47.643 49.2174 47.3563 50.0156 47.3016C50.8137 47.2469 51.6104 47.4266 52.3049 47.8181C52.9994 48.2096 53.5604 48.7952 53.9172 49.5009C54.2739 50.2067 54.4103 51.0008 54.3091 51.7829C54.2079 52.565 53.8736 53.3 53.3485 53.8948C52.8234 54.4897 52.1311 54.9178 51.3591 55.1249C50.5871 55.3321 49.7701 55.309 49.0115 55.0586C48.5077 54.8923 48.0421 54.6299 47.6413 54.2863C47.2405 53.9427 46.9123 53.5246 46.6754 53.056C46.4385 52.5874 46.2976 52.0774 46.2607 51.5551C46.2239 51.0329 46.2917 50.5085 46.4605 50.0121ZM47.0709 50.2137C46.8573 50.8422 46.8375 51.519 47.0142 52.1586C47.1909 52.7981 47.556 53.3718 48.0635 53.8068C48.571 54.2418 49.198 54.5188 49.8652 54.6026C50.5325 54.6865 51.2099 54.5735 51.812 54.2779C52.414 53.9823 52.9136 53.5174 53.2475 52.942C53.5814 52.3666 53.7347 51.7065 53.6879 51.0453C53.6412 50.384 53.3965 49.7513 52.9848 49.2271C52.5731 48.7029 52.0129 48.3108 51.3751 48.1004C50.5198 47.8191 49.5863 47.8837 48.7793 48.28C47.9724 48.6764 47.358 49.372 47.0709 50.2142V50.2137Z" fill="#1A1818"/>
</g>
</g>
<g style="mix-blend-mode:multiply" opacity="0.2">
<g style="mix-blend-mode:multiply" opacity="0.2">
<path d="M36.6567 46.7763C36.9109 46.0288 37.3843 45.3724 38.017 44.89C38.6498 44.4077 39.4134 44.121 40.2114 44.0663C41.0095 44.0115 41.806 44.1912 42.5005 44.5826C43.1949 44.9739 43.756 45.5594 44.1128 46.2649C44.4697 46.9705 44.6062 47.7645 44.5052 48.5465C44.4042 49.3285 44.0702 50.0635 43.5454 50.6584C43.0206 51.2534 42.3285 51.6817 41.5568 51.8892C40.785 52.0966 39.9681 52.0739 39.2095 51.8239C38.1923 51.4874 37.3521 50.7668 36.8735 49.8205C36.3949 48.8741 36.3169 47.7793 36.6567 46.7763ZM37.2671 46.9784C37.0535 47.6067 37.0339 48.2833 37.2105 48.9227C37.3872 49.562 37.7522 50.1354 38.2595 50.5704C38.7668 51.0053 39.3936 51.2822 40.0606 51.3661C40.7276 51.4501 41.4048 51.3372 42.0067 51.0418C42.6086 50.7465 43.1082 50.2819 43.4422 49.7068C43.7762 49.1316 43.9296 48.4719 43.8831 47.8108C43.8367 47.1498 43.5923 46.5171 43.181 45.9929C42.7697 45.4687 42.2099 45.0764 41.5724 44.8657C40.7171 44.5847 39.7836 44.6496 38.9768 45.0461C38.1699 45.4426 37.5557 46.1384 37.2689 46.9808L37.2671 46.9784Z" fill="#1A1818"/>
</g>
</g>
<g style="mix-blend-mode:multiply" opacity="0.2">
<g style="mix-blend-mode:multiply" opacity="0.2">
<path d="M43.2416 48.8295L43.0371 49.4307L47.6133 50.9412L47.8177 50.34L43.2416 48.8295Z" fill="#1A1818"/>
</g>
</g>
</g>
<g style="mix-blend-mode:multiply" opacity="0.2">
<g style="mix-blend-mode:multiply" opacity="0.2">
<path d="M49.4609 37.447C51.9856 38.2795 54.6495 37.1462 55.4065 34.9126C56.1634 32.6791 54.735 30.1916 52.2109 29.3585C49.6868 28.5253 47.0222 29.6592 46.2653 31.8952C45.5084 34.1312 46.9356 36.6138 49.4609 37.447Z" fill="#1A1818"/>
</g>
</g>
<g style="mix-blend-mode:multiply" opacity="0.2">
<g style="mix-blend-mode:multiply" opacity="0.2">
<path d="M54.9304 42.5038C54.9304 42.5038 42.6749 48.9482 34.6074 42.0195C34.6074 42.0195 47.236 45.3413 54.9304 42.5038Z" fill="#1A1818"/>
</g>
</g>
<g style="mix-blend-mode:multiply" opacity="0.2">
<g style="mix-blend-mode:multiply" opacity="0.2">
<path d="M54.3882 30.7314C54.3882 30.7314 51.4234 33.3951 46.1621 32.1902C46.1621 32.1902 51.0455 35.2215 54.923 31.419C54.7781 31.1664 54.5981 30.935 54.3882 30.7314V30.7314Z" fill="#1A1818"/>
</g>
</g>
<g style="mix-blend-mode:multiply" opacity="0.2">
<g style="mix-blend-mode:multiply" opacity="0.2">
<path d="M55.6059 33.8029C55.6059 33.8029 51.6485 37.4693 46.0869 33.5791C46.0869 33.5791 50.4484 38.4956 54.8893 35.9113C55.3362 35.2947 55.5858 34.5604 55.6059 33.8029V33.8029Z" fill="#1A1818"/>
</g>
</g>
</g>
</g>
<g style="mix-blend-mode:multiply" opacity="0.2">
<g style="mix-blend-mode:multiply" opacity="0.2">
<g style="mix-blend-mode:multiply" opacity="0.2">
<g style="mix-blend-mode:multiply" opacity="0.2">
<path d="M54.684 10.8998C54.8427 11.4833 55.9903 15.989 55.9988 16.5755C56.0489 20.6877 52.5224 24.7266 47.349 26.0951C42.1756 27.4636 37.0737 25.7071 35.0275 22.1248C34.7357 21.6141 33.4404 17.1482 33.2799 16.5647C32.0096 11.8996 35.771 6.85017 41.68 5.28673C47.5889 3.72329 53.413 6.23478 54.684 10.8998Z" fill="#1A1818"/>
</g>
</g>
<g style="mix-blend-mode:multiply" opacity="0.7">
<g style="mix-blend-mode:multiply" opacity="0.7">
<g style="mix-blend-mode:multiply" opacity="0.7">
<path d="M39.4495 19.294C39.5275 19.5812 39.5173 19.8848 39.4203 20.1663C39.3232 20.4478 39.1437 20.6947 38.9043 20.8757C38.6649 21.0567 38.3764 21.1637 38.0754 21.1832C37.7743 21.2027 37.4741 21.1339 37.2128 20.9853C36.9514 20.8367 36.7406 20.6151 36.607 20.3485C36.4734 20.0819 36.423 19.7823 36.4621 19.4875C36.5013 19.1926 36.6282 18.9159 36.8269 18.6921C37.0256 18.4684 37.2872 18.3077 37.5786 18.2304C37.7723 18.179 37.9744 18.1658 38.1733 18.1914C38.3722 18.2171 38.564 18.2811 38.7378 18.3799C38.9116 18.4787 39.0639 18.6102 39.186 18.7671C39.3081 18.9239 39.3977 19.103 39.4495 19.294V19.294Z" fill="#1A1818"/>
</g>
</g>
<g style="mix-blend-mode:multiply" opacity="0.7">
<g style="mix-blend-mode:multiply" opacity="0.7">
<path d="M53.7913 15.502C53.8693 15.7892 53.8591 16.0928 53.7621 16.3743C53.665 16.6559 53.4855 16.9027 53.2461 17.0837C53.0067 17.2647 52.7183 17.3718 52.4172 17.3913C52.1161 17.4108 51.8159 17.3419 51.5546 17.1933C51.2932 17.0447 51.0824 16.8231 50.9488 16.5565C50.8152 16.2899 50.7648 15.9903 50.8039 15.6955C50.8431 15.4007 50.97 15.1239 51.1687 14.9001C51.3675 14.6764 51.629 14.5157 51.9204 14.4384C52.1141 14.387 52.3162 14.3738 52.5151 14.3994C52.714 14.4251 52.9058 14.4891 53.0796 14.5879C53.2534 14.6867 53.4057 14.8183 53.5278 14.9751C53.6499 15.132 53.7395 15.311 53.7913 15.502Z" fill="#1A1818"/>
</g>
</g>
</g>
<g style="mix-blend-mode:multiply" opacity="0.2">
<g style="mix-blend-mode:multiply" opacity="0.2">
<g style="mix-blend-mode:multiply" opacity="0.2">
<path d="M43.2628 11.8205C41.989 12.147 40.6776 12.3088 39.3615 12.3017C39.3384 12.301 39.3156 12.2958 39.2945 12.2863C39.2735 12.2768 39.2546 12.2632 39.2389 12.2464C39.2233 12.2296 39.2112 12.2098 39.2034 12.1883C39.1957 12.1669 39.1923 12.144 39.1936 12.1212C39.1959 12.0754 39.2163 12.0323 39.2506 12.0012C39.2849 11.9701 39.3302 11.9536 39.3768 11.9552C40.743 11.9625 42.1035 11.7819 43.419 11.4186L43.4294 11.4132H43.4416C44.6819 11.0992 45.8761 10.6296 46.9949 10.0158C47.015 10.0043 47.0371 9.99682 47.0601 9.99376C47.0831 9.99069 47.1064 9.99212 47.1288 9.99796C47.1513 10.0038 47.1723 10.0139 47.1907 10.0278C47.2092 10.0416 47.2247 10.0589 47.2363 10.0787C47.248 10.0984 47.2556 10.1202 47.2587 10.1429C47.2618 10.1655 47.2604 10.1886 47.2545 10.2107C47.2485 10.2327 47.2383 10.2535 47.2242 10.2716C47.2101 10.2898 47.1926 10.3051 47.1726 10.3166C46.0224 10.9462 44.7952 11.4284 43.521 11.7513C43.452 11.7687 43.3671 11.7958 43.2628 11.8205Z" fill="#1A1818"/>
</g>
</g>
<g style="mix-blend-mode:multiply" opacity="0.2">
<g style="mix-blend-mode:multiply" opacity="0.2">
<path d="M43.0049 10.6691C42.1878 10.8781 41.3464 10.9808 40.5021 10.9747C40.4725 10.9733 40.4447 10.9604 40.4247 10.9388C40.4047 10.9172 40.3943 10.8887 40.3956 10.8595C40.397 10.8303 40.4101 10.8028 40.432 10.7831C40.4539 10.7634 40.4829 10.7531 40.5125 10.7545C41.3875 10.759 42.2589 10.6432 43.1014 10.4104L43.1087 10.4074H43.1166C43.911 10.2059 44.676 9.90513 45.3929 9.51229C45.4185 9.49997 45.4478 9.49762 45.475 9.5057C45.5023 9.51377 45.5254 9.5317 45.5399 9.55587C45.5543 9.58003 45.5589 9.60867 45.5528 9.63606C45.5468 9.66344 45.5304 9.68757 45.5071 9.70359C44.7698 10.1061 43.9838 10.4152 43.1679 10.6234C43.1239 10.6354 43.0715 10.651 43.0049 10.6691Z" fill="#1A1818"/>
</g>
</g>
</g>
<g style="mix-blend-mode:multiply" opacity="0.2">
<g style="mix-blend-mode:multiply" opacity="0.2">
<g style="mix-blend-mode:multiply" opacity="0.2">
<path d="M36.2075 8.20262C35.7842 7.72684 35.4763 7.16237 35.3071 6.55196C35.2821 6.45993 35.2601 6.36668 35.2418 6.27344C34.4379 6.93982 33.7167 7.69741 33.0931 8.53048C32.1763 9.7387 31.5231 11.1208 31.1745 12.5898C30.8232 14.0755 30.8488 15.6236 31.249 17.0972C31.3381 17.4233 31.7007 18.6841 32.0828 19.9408L34.455 20.647C34.0722 19.3837 33.3635 16.8536 33.2829 16.5564C32.4778 13.601 33.6974 10.4855 36.2075 8.20262Z" fill="#1A1818"/>
</g>
</g>
<g style="mix-blend-mode:multiply" opacity="0.2">
<g style="mix-blend-mode:multiply" opacity="0.2">
<path d="M54.4924 6.42407C53.8096 5.70223 53.0273 5.07855 52.1685 4.57129C51.9359 5.22996 51.5927 5.84547 51.1533 6.39218C52.8757 7.39093 54.1408 9.00592 54.6852 10.9008C54.7652 11.195 55.4367 13.733 55.7456 15.0179L57.442 13.2349C57.1337 11.959 56.8083 10.6885 56.7198 10.3624C56.3171 8.88917 55.5521 7.53647 54.4924 6.42407V6.42407Z" fill="#1A1818"/>
</g>
</g>
<g style="mix-blend-mode:multiply" opacity="0.2">
<g style="mix-blend-mode:multiply" opacity="0.2">
<path d="M36.205 8.20262C37.7654 6.80893 39.6439 5.80668 41.6811 5.28087C43.2543 4.82707 44.9043 4.6912 46.5321 4.8814C48.1599 5.0716 49.7319 5.58396 51.1537 6.38773C51.5931 5.84102 51.9363 5.22551 52.1689 4.56684C51.7187 4.29925 51.2513 4.06072 50.7698 3.85278C47.7166 2.59354 44.3208 2.39019 41.1354 3.27588C38.9712 3.83767 36.9584 4.86074 35.2393 6.27284C35.2576 6.36608 35.2795 6.45931 35.3046 6.55135C35.4737 7.16197 35.7816 7.72666 36.205 8.20262V8.20262Z" fill="#1A1818"/>
</g>
</g>
<g style="mix-blend-mode:multiply" opacity="0.2">
<g style="mix-blend-mode:multiply" opacity="0.2">
<path d="M41.6822 5.28156C39.645 5.80734 37.7665 6.8096 36.2061 8.20331C37.9354 10.1692 41.5693 10.956 45.332 9.96044C47.6104 9.41382 49.6509 8.16191 51.1542 6.38842C49.7324 5.58476 48.1605 5.07246 46.5329 4.88225C44.9052 4.69205 43.2553 4.82788 41.6822 5.28156V5.28156Z" fill="#1A1818"/>
</g>
</g>
</g>
<g style="mix-blend-mode:multiply" opacity="0.2">
<g style="mix-blend-mode:multiply" opacity="0.2">
<g style="mix-blend-mode:multiply" opacity="0.2">
<path d="M32.8176 19.5728C32.7148 19.1949 32.7361 18.7946 32.8787 18.4294C33.0213 18.0643 33.2778 17.7531 33.6112 17.5407C33.5569 17.356 33.5056 17.1798 33.458 17.0107L33.4403 17.0149C32.8456 17.1788 32.3406 17.5673 32.035 18.096C31.7293 18.6246 31.6476 19.2508 31.8077 19.8384C31.9678 20.4261 32.3567 20.9278 32.8899 21.2345C33.4231 21.5413 34.0577 21.6283 34.6556 21.4767C34.7277 21.4574 34.7954 21.4364 34.8644 21.4117C34.8192 21.3215 34.7545 21.1561 34.6764 20.9395C34.2559 20.9501 33.844 20.8211 33.5069 20.5732C33.1698 20.3254 32.927 19.973 32.8176 19.5728V19.5728Z" fill="#1A1818"/>
</g>
</g>
<g style="mix-blend-mode:multiply" opacity="0.2">
<g style="mix-blend-mode:multiply" opacity="0.2">
<path d="M32.8186 19.5725C32.9285 19.9722 33.1714 20.324 33.5083 20.5714C33.8452 20.8188 34.2567 20.9475 34.6768 20.9369C34.3997 20.1585 33.9559 18.6991 33.6116 17.5381C33.2778 17.7507 33.0212 18.0623 32.8787 18.428C32.7362 18.7936 32.7151 19.1944 32.8186 19.5725Z" fill="#1A1818"/>
</g>
</g>
</g>
<g style="mix-blend-mode:multiply" opacity="0.2">
<g style="mix-blend-mode:multiply" opacity="0.2">
<g style="mix-blend-mode:multiply" opacity="0.2">
<path d="M56.6631 13.2668C56.5599 12.8889 56.3378 12.553 56.0287 12.3073C55.7197 12.0616 55.3395 11.9188 54.9429 11.8995C54.8971 11.7124 54.8507 11.5331 54.8086 11.3647L54.8245 11.3599C55.4208 11.2131 56.0518 11.303 56.5816 11.6102C57.1114 11.9174 57.4976 12.4173 57.657 13.0024C57.8164 13.5874 57.7363 14.2107 57.434 14.7381C57.1316 15.2655 56.6312 15.6548 56.0404 15.8222C55.9696 15.8408 55.8988 15.8553 55.8268 15.8673C55.8195 15.7668 55.7932 15.5918 55.7505 15.3656C56.1191 15.1669 56.4093 14.8521 56.5748 14.4716C56.7402 14.091 56.7713 13.6668 56.6631 13.2668V13.2668Z" fill="#1A1818"/>
</g>
</g>
<g style="mix-blend-mode:multiply" opacity="0.2">
<g style="mix-blend-mode:multiply" opacity="0.2">
<path d="M56.6631 13.2622C56.7713 13.6627 56.74 14.0875 56.5739 14.4683C56.4079 14.8492 56.1168 15.164 55.7474 15.3623C55.5905 14.552 55.234 13.0691 54.9404 11.8955C55.3374 11.9144 55.718 12.0568 56.0276 12.3024C56.3371 12.548 56.5596 12.8841 56.6631 13.2622V13.2622Z" fill="#1A1818"/>
</g>
</g>
</g>
<g style="mix-blend-mode:multiply" opacity="0.2">
<g style="mix-blend-mode:multiply" opacity="0.2">
<path d="M49.6196 11.6158L46.8001 12.3617C46.6429 12.4033 46.4753 12.3816 46.3344 12.3015C46.1934 12.2213 46.0905 12.0892 46.0483 11.9343C46.0061 11.7794 46.0281 11.6143 46.1095 11.4754C46.1908 11.3365 46.3248 11.2351 46.482 11.1935L49.301 10.4476C49.4577 10.407 49.6244 10.4292 49.7647 10.5093C49.9049 10.5895 50.0072 10.721 50.0493 10.8753C50.0914 11.0295 50.0698 11.1939 49.9893 11.3326C49.9088 11.4712 49.7759 11.5728 49.6196 11.6152V11.6158Z" fill="#1A1818"/>
</g>
</g>
<g style="mix-blend-mode:multiply" opacity="0.2">
<g style="mix-blend-mode:multiply" opacity="0.2">
<path d="M41.1269 14.6275L38.3067 15.3734C38.1498 15.4149 37.9826 15.3934 37.8419 15.3135C37.7011 15.2335 37.5983 15.1018 37.5562 14.9472C37.514 14.7926 37.5359 14.6278 37.617 14.4891C37.6981 14.3504 37.8318 14.2491 37.9886 14.2076L40.8094 13.461C40.9663 13.4196 41.1335 13.4412 41.2742 13.5212C41.4149 13.6012 41.5176 13.7329 41.5597 13.8875C41.6017 14.0421 41.5798 14.2069 41.4986 14.3455C41.4175 14.4842 41.2837 14.5854 41.1269 14.6269V14.6275Z" fill="#1A1818"/>
</g>
</g>
<g style="mix-blend-mode:multiply" opacity="0.2">
<g style="mix-blend-mode:multiply" opacity="0.2">
<path d="M41.1263 16.8289C41.1755 17.0102 41.1689 17.2018 41.1076 17.3795C41.0462 17.5572 40.9328 17.7129 40.7816 17.8271C40.6305 17.9413 40.4484 18.0087 40.2583 18.0209C40.0683 18.0331 39.8788 17.9896 39.7139 17.8957C39.549 17.8018 39.416 17.6619 39.3318 17.4936C39.2475 17.3252 39.2158 17.1361 39.2406 16.95C39.2654 16.7639 39.3457 16.5893 39.4712 16.4481C39.5967 16.3069 39.7619 16.2056 39.9458 16.1569C40.0681 16.1243 40.1957 16.1158 40.3213 16.132C40.447 16.1481 40.5681 16.1886 40.6778 16.251C40.7875 16.3135 40.8836 16.3967 40.9606 16.4958C41.0376 16.595 41.0939 16.7082 41.1263 16.8289V16.8289Z" fill="#1A1818"/>
</g>
</g>
<g style="mix-blend-mode:multiply" opacity="0.2">
<g style="mix-blend-mode:multiply" opacity="0.2">
<path d="M49.8961 14.5084C49.9453 14.6899 49.9387 14.8817 49.8773 15.0595C49.8159 15.2373 49.7023 15.3932 49.551 15.5074C49.3997 15.6217 49.2175 15.6891 49.0273 15.7013C48.8371 15.7135 48.6475 15.6698 48.4825 15.5758C48.3174 15.4818 48.1844 15.3417 48.1002 15.1732C48.016 15.0047 47.9843 14.8154 48.0093 14.6291C48.0342 14.4429 48.1146 14.2682 48.2403 14.127C48.3661 13.9858 48.5314 13.8845 48.7155 13.8359C48.9626 13.7709 49.2257 13.8052 49.4471 13.9313C49.6685 14.0574 49.83 14.265 49.8961 14.5084V14.5084Z" fill="#1A1818"/>
</g>
</g>
<g style="mix-blend-mode:multiply" opacity="0.2">
<g style="mix-blend-mode:multiply" opacity="0.2">
<g style="mix-blend-mode:multiply" opacity="0.2">
<path d="M47.0337 20.3807C47.7332 20.1925 48.4743 20.2192 49.1579 20.4573C49.8416 20.6954 50.4351 21.1336 50.8592 21.7132C51.2359 20.6368 51.2952 19.4773 51.0302 18.3691L40.3281 21.2007C40.6658 22.2263 41.2574 23.1529 42.0494 23.8967C42.8415 24.6406 43.809 25.1784 44.8648 25.4615C44.7041 25.1963 44.5809 24.9107 44.4986 24.6127C44.2655 23.7202 44.4016 22.7731 44.877 21.9795C45.3524 21.1859 46.1282 20.6108 47.0337 20.3807V20.3807Z" fill="#1A1818"/>
</g>
</g>
<g style="mix-blend-mode:multiply" opacity="0.2">
<g style="mix-blend-mode:multiply" opacity="0.2">
<path d="M50.8628 21.7101C50.3773 21.0493 49.6738 20.5752 48.8727 20.3691C48.0716 20.1629 47.2228 20.2375 46.4713 20.58C45.7199 20.9225 45.1125 21.5117 44.7532 22.2467C44.3939 22.9818 44.305 23.8171 44.5016 24.6096C44.5839 24.9077 44.7071 25.1932 44.8678 25.4584C45.6417 25.661 46.4554 25.6641 47.2308 25.4674C49.0187 24.9952 50.2896 23.4342 50.8628 21.7101Z" fill="#1A1818"/>
</g>
</g>
</g>
<g style="mix-blend-mode:multiply" opacity="0.2">
<g style="mix-blend-mode:multiply" opacity="0.2">
<path d="M46.0524 17.2754C46.1989 17.8126 45.7844 18.0309 45.2399 18.1777C44.6954 18.3245 44.2247 18.3371 44.0801 17.8006L46.0524 17.2754Z" fill="#1A1818"/>
</g>
</g>
<g style="mix-blend-mode:multiply" opacity="0.2">
<g style="mix-blend-mode:multiply" opacity="0.2">
<g style="mix-blend-mode:multiply" opacity="0.2">
<path d="M49.3905 14.2999C49.4047 14.3503 49.4033 14.4038 49.3866 14.4535C49.3699 14.5032 49.3386 14.5468 49.2966 14.5789C49.2547 14.6111 49.204 14.6301 49.151 14.6338C49.098 14.6375 49.0451 14.6256 48.999 14.5995C48.953 14.5735 48.9157 14.5346 48.8922 14.4877C48.8686 14.4408 48.8596 14.3881 48.8665 14.3362C48.8734 14.2843 48.8958 14.2355 48.9308 14.1962C48.9658 14.1569 49.012 14.1287 49.0633 14.1152C49.1315 14.0975 49.2041 14.1069 49.2653 14.1415C49.3265 14.176 49.3715 14.2329 49.3905 14.2999Z" fill="#1A1818"/>
</g>
</g>
<g style="mix-blend-mode:multiply" opacity="0.2">
<g style="mix-blend-mode:multiply" opacity="0.2">
<path d="M40.7059 16.593C40.7199 16.6433 40.7184 16.6966 40.7017 16.7461C40.6849 16.7956 40.6537 16.8391 40.6118 16.871C40.57 16.903 40.5194 16.922 40.4666 16.9256C40.4138 16.9292 40.3611 16.9173 40.3151 16.8914C40.2692 16.8655 40.2321 16.8267 40.2086 16.78C40.185 16.7332 40.1761 16.6806 40.1829 16.6289C40.1897 16.5772 40.2119 16.5286 40.2468 16.4893C40.2816 16.45 40.3275 16.4218 40.3787 16.4083C40.4469 16.3904 40.5195 16.3998 40.5808 16.4344C40.6421 16.4689 40.687 16.5259 40.7059 16.593V16.593Z" fill="#1A1818"/>
</g>
</g>
</g>
<g style="mix-blend-mode:multiply" opacity="0.2">
<g style="mix-blend-mode:multiply" opacity="0.2">
<path d="M40.2917 3.89474C40.2917 3.89474 51.4082 4.99499 53.4434 1.46387C53.4434 1.46387 50.9644 14.5074 36.2061 8.20909L40.2917 3.89474Z" fill="#1A1818"/>
</g>
</g>
<g style="mix-blend-mode:multiply" opacity="0.2">
<g style="mix-blend-mode:multiply" opacity="0.2">
<path d="M43.5244 3.70516C43.5244 3.70516 49.6287 3.79058 51.3086 1.41504C51.3086 1.41504 50.6103 3.9909 49.3113 4.88721L43.5244 3.70516Z" fill="#1A1818"/>
</g>
</g>
<g style="mix-blend-mode:multiply" opacity="0.2">
<g style="mix-blend-mode:multiply" opacity="0.2">
<g style="mix-blend-mode:multiply" opacity="0.2">
<path d="M45.6788 19.1814C45.5516 19.0764 45.402 19.0009 45.2412 18.9605C45.0804 18.9201 44.9124 18.9158 44.7497 18.948C43.5203 19.0978 41.133 21.2231 40.4865 19.0383C40.4664 18.9241 40.4584 18.8082 40.4627 18.6924C40.4062 18.882 40.3316 19.0659 40.2399 19.2416C40.0995 19.6389 40.0405 20.0597 40.0665 20.4796C40.1666 21.4517 41.3173 21.8463 42.1328 21.8902C43.0091 21.9792 43.8871 21.738 44.5904 21.2153C45.0526 20.8881 45.4412 20.4703 45.7319 19.9881C45.8156 19.8671 45.8558 19.7219 45.8462 19.5758C45.8366 19.4296 45.7776 19.2908 45.6788 19.1814V19.1814Z" fill="#1A1818"/>
</g>
</g>
</g>
<g style="mix-blend-mode:multiply" opacity="0.2">
<g style="mix-blend-mode:multiply" opacity="0.2">
<g style="mix-blend-mode:multiply" opacity="0.2">
<path d="M47.2842 18.2486C47.2842 18.2486 51.7312 17.4335 52.222 15.9326C52.222 15.9326 52.3251 21.0843 46.208 19.8385L47.2842 18.2486Z" fill="#1A1818"/>
</g>
</g>
<g style="mix-blend-mode:multiply" opacity="0.2">
<g style="mix-blend-mode:multiply" opacity="0.2">
<g style="mix-blend-mode:multiply" opacity="0.2">
<path d="M48.3346 18.0098C47.6236 18.0131 46.9246 18.1906 46.3006 18.5265C46.1581 18.6096 46.036 18.7228 45.9433 18.8581C45.8506 18.9933 45.7896 19.1472 45.7646 19.3085C45.7657 19.4551 45.8161 19.5971 45.9079 19.7124C45.9997 19.8277 46.1277 19.9097 46.2719 19.9456C46.8145 20.1142 47.3868 20.1701 47.9524 20.1098C48.8305 20.0372 49.6484 19.6403 50.2422 18.9987L48.3346 18.0098Z" fill="#1A1818"/>
</g>
</g>
</g>
</g>
</g>
<g style="mix-blend-mode:multiply" opacity="0.2">
<g style="mix-blend-mode:multiply" opacity="0.2">
<path d="M36.4961 6.20743C36.4961 6.20743 49.8645 8.76885 53.4404 1.45996C53.4404 1.45996 48.7273 6.55934 36.4961 6.20743Z" fill="#1A1818"/>
</g>
</g>
</g>
<path d="M35.1485 44.8388C35.2639 44.4991 35.4855 44.2042 35.7817 43.9964C36.0778 43.7887 36.4332 43.6788 36.7966 43.6826C36.8497 43.5136 36.901 43.3499 36.9499 43.2014C36.9455 43.199 36.9407 43.1974 36.9358 43.1965C36.3954 43.0182 35.8052 43.0587 35.2951 43.3091C34.785 43.5596 34.3967 43.9995 34.2157 44.532C34.0347 45.0646 34.0758 45.6461 34.33 46.1488C34.5841 46.6515 35.0305 47.0342 35.5709 47.2125C35.6352 47.2326 35.6999 47.2504 35.765 47.2661C35.7887 47.1126 35.822 46.9608 35.8645 46.8113C35.538 46.6093 35.2898 46.3049 35.16 45.9472C35.0301 45.5895 35.0261 45.1991 35.1485 44.8388V44.8388Z" fill="#FDC7AF"/>
<path d="M35.1511 44.835C35.0289 45.1953 35.0332 45.5857 35.1633 45.9433C35.2934 46.3009 35.5417 46.6051 35.8683 46.8069C36.0514 46.0736 36.4653 44.7376 36.8004 43.6788C36.4367 43.6748 36.0811 43.7846 35.7848 43.9923C35.4884 44.2001 35.2665 44.4951 35.1511 44.835Z" fill="#EAAF9A"/>
<path d="M33.9415 46.5566C33.8792 46.7381 33.8729 46.9336 33.9235 47.1186C33.974 47.3036 34.0792 47.4696 34.2255 47.5957C34.3719 47.7217 34.5529 47.8021 34.7457 47.8267C34.9385 47.8513 35.1343 47.819 35.3085 47.7338C35.4826 47.6487 35.6272 47.5145 35.7239 47.3483C35.8206 47.1821 35.865 46.9914 35.8517 46.8003C35.8383 46.6092 35.7677 46.4263 35.6488 46.2747C35.5299 46.1232 35.368 46.0099 35.1837 45.949C34.9372 45.8682 34.6682 45.8867 34.4355 46.0005C34.2028 46.1143 34.0252 46.3142 33.9415 46.5566Z" fill="#92BE27"/>
<g opacity="0.7">
<path opacity="0.7" d="M34.6231 46.2319C34.5871 46.2629 34.5578 46.3006 34.5368 46.3428C34.5158 46.3851 34.5035 46.431 34.5006 46.478C34.4978 46.5249 34.5045 46.572 34.5202 46.6164C34.536 46.6608 34.5606 46.7017 34.5926 46.7366C34.6238 46.7719 34.6619 46.8006 34.7045 46.8212C34.7472 46.8418 34.7936 46.8537 34.8411 46.8563C34.8885 46.859 34.936 46.8523 34.9807 46.8365C35.0255 46.8208 35.0666 46.7965 35.1016 46.7649C35.1372 46.7339 35.1661 46.6964 35.1869 46.6544C35.2077 46.6124 35.2199 46.5667 35.2228 46.5201C35.2257 46.4735 35.2192 46.4267 35.2038 46.3825C35.1883 46.3383 35.1642 46.2976 35.1328 46.2626C35.1013 46.2276 35.0632 46.199 35.0206 46.1786C34.978 46.1581 34.9317 46.1461 34.8844 46.1432C34.837 46.1404 34.7896 46.1467 34.7448 46.162C34.6999 46.1772 34.6586 46.2009 34.6231 46.2319V46.2319Z" fill="white"/>
</g>
<g opacity="0.8">
<path opacity="0.8" d="M34.3192 46.2974C34.2812 46.3303 34.254 46.3735 34.241 46.4216C34.228 46.4698 34.2298 46.5206 34.2462 46.5677C34.2625 46.6149 34.2927 46.6561 34.3329 46.6863C34.3731 46.7165 34.4215 46.7342 34.472 46.7373C34.5224 46.7403 34.5727 46.7285 34.6163 46.7034C34.6599 46.6783 34.695 46.641 34.7171 46.5962C34.7392 46.5514 34.7473 46.5011 34.7403 46.4518C34.7334 46.4024 34.7117 46.3562 34.6781 46.3191C34.6331 46.2698 34.5703 46.2399 34.5031 46.2358C34.436 46.2318 34.3699 46.2539 34.3192 46.2974V46.2974Z" fill="white"/>
</g>
<path d="M37.0723 42.5373C36.8934 43.0625 35.5816 47.1169 35.5254 47.6505C35.1378 51.3748 37.662 55.1098 41.7476 56.4567C45.8332 57.8036 50.1306 56.3231 52.0937 53.1199C52.3751 52.6609 53.8084 48.6449 53.986 48.1197C55.4132 43.9209 52.7829 39.2673 48.1125 37.7261C43.4421 36.1849 38.4994 38.3361 37.0723 42.5373Z" fill="#FDC7AF"/>
<g opacity="0.7">
<g opacity="0.7">
<path opacity="0.7" d="M48.7152 51.8455C48.6152 52.1402 48.606 52.4576 48.6889 52.7574C48.7719 53.0573 48.9431 53.3262 49.1811 53.5302C49.4191 53.7342 49.7131 53.864 50.0259 53.9034C50.3388 53.9427 50.6564 53.8898 50.9388 53.7513C51.2211 53.6127 51.4554 53.3948 51.6121 53.1251C51.7688 52.8554 51.8409 52.5459 51.8191 52.2359C51.7974 51.9258 51.6829 51.629 51.4901 51.3831C51.2972 51.1372 51.0347 50.9531 50.7357 50.8541C50.537 50.7884 50.3271 50.7619 50.118 50.7762C49.9089 50.7905 49.7047 50.8452 49.5171 50.9373C49.3294 51.0294 49.162 51.157 49.0245 51.3128C48.8869 51.4686 48.7818 51.6496 48.7152 51.8455V51.8455Z" fill="#EC545C"/>
</g>
<g opacity="0.7">
<path opacity="0.7" d="M35.9687 47.6349C35.8683 47.9296 35.8588 48.2471 35.9415 48.5472C36.0242 48.8472 36.1954 49.1164 36.4333 49.3206C36.6713 49.5248 36.9653 49.6548 37.2783 49.6943C37.5912 49.7338 37.9091 49.6809 38.1915 49.5424C38.474 49.4038 38.7084 49.1858 38.8651 48.916C39.0219 48.6461 39.0939 48.3365 39.072 48.0263C39.0501 47.7161 38.9354 47.4193 38.7424 47.1734C38.5493 46.9274 38.2866 46.7434 37.9874 46.6447C37.5864 46.5125 37.1487 46.5426 36.7702 46.7282C36.3917 46.9139 36.1034 47.2399 35.9687 47.6349V47.6349Z" fill="#EC545C"/>
</g>
</g>
<path d="M51.0116 49.1959C51.1501 49.2435 51.3019 49.2358 51.4347 49.1745C51.5674 49.1131 51.6706 49.003 51.7219 48.8677C51.7733 48.7323 51.7689 48.5825 51.7096 48.4504C51.6504 48.3182 51.5409 48.2142 51.4048 48.1606L49.2725 47.2889C49.1357 47.2362 48.9833 47.2385 48.8481 47.2951C48.7129 47.3518 48.6056 47.4583 48.5491 47.592C48.4926 47.7257 48.4914 47.8758 48.5459 48.0103C48.6003 48.1448 48.706 48.2529 48.8403 48.3116L50.9768 49.1826C50.9881 49.1878 50.9998 49.1922 51.0116 49.1959V49.1959Z" fill="#FFFFFA"/>
<path d="M42.6567 51.9373C42.3283 51.8268 41.9735 51.818 41.6399 51.9121C41.3063 52.0062 41.0099 52.1987 40.7906 52.4636C40.6423 51.939 40.6482 51.3837 40.8077 50.8623L45.834 52.5208C45.6424 53.0008 45.3324 53.4263 44.9321 53.7587C44.5318 54.0911 44.0538 54.32 43.5412 54.4247C43.6269 54.3032 43.6947 54.1703 43.7427 54.0301C43.8801 53.6106 43.8429 53.1546 43.6393 52.7621C43.4356 52.3697 43.0822 52.073 42.6567 51.9373V51.9373Z" fill="#903136"/>
<path d="M40.79 52.4652C41.0417 52.165 41.3912 51.9599 41.779 51.885C42.1668 51.8101 42.569 51.8699 42.9171 52.0543C43.2652 52.2387 43.5377 52.5362 43.6882 52.8963C43.8387 53.2564 43.858 53.6568 43.7427 54.0293C43.6947 54.1695 43.6269 54.3024 43.5413 54.4239C43.1663 54.5002 42.7776 54.4795 42.4132 54.3638C42.0053 54.2029 41.6438 53.9456 41.3608 53.6145C41.0777 53.2833 40.8817 52.8887 40.79 52.4652Z" fill="#EC545C"/>
<path d="M43.156 49.2842C42.9918 49.7654 43.3575 49.9898 43.8489 50.1528C44.3403 50.3158 44.7682 50.3525 44.933 49.8713L43.156 49.2842Z" fill="#DE7D76"/>
<path d="M47.717 49.4162C47.6074 49.7397 47.5976 50.0879 47.6889 50.4168C47.7801 50.7457 47.9683 51.0406 48.2296 51.2641C48.4909 51.4876 48.8136 51.6298 49.1569 51.6726C49.5001 51.7154 49.8486 51.6569 50.1581 51.5046C50.4677 51.3522 50.7245 51.1128 50.896 50.8166C51.0674 50.5205 51.146 50.1808 51.1216 49.8407C51.0972 49.5006 50.971 49.1752 50.759 48.9057C50.547 48.6363 50.2586 48.4348 49.9304 48.3268C49.4903 48.1822 49.0099 48.2157 48.5948 48.42C48.1798 48.6243 47.864 48.9826 47.717 49.4162V49.4162Z" fill="#3E3C3D"/>
<path d="M48.3553 49.0964C48.3246 49.1868 48.3219 49.2842 48.3474 49.3762C48.373 49.4682 48.4257 49.5506 48.4988 49.613C48.572 49.6754 48.6623 49.715 48.7584 49.7267C48.8544 49.7384 48.9518 49.7218 49.0382 49.6789C49.1246 49.636 49.1961 49.5687 49.2437 49.4857C49.2913 49.4026 49.3127 49.3075 49.3053 49.2124C49.298 49.1174 49.2621 49.0266 49.2023 48.9516C49.1425 48.8767 49.0614 48.8209 48.9694 48.7915C48.9088 48.7714 48.8447 48.7633 48.7809 48.7678C48.7171 48.7723 48.6548 48.7892 48.5977 48.8176C48.5406 48.8459 48.4898 48.8852 48.4482 48.9331C48.4065 48.9809 48.375 49.0364 48.3553 49.0964V49.0964Z" fill="white"/>
<path d="M38.8233 45.1718L38.8599 45.1839L41.0959 45.7529C41.2385 45.7845 41.3879 45.7602 41.5126 45.6851C41.6373 45.61 41.7273 45.49 41.7638 45.3505C41.8002 45.2111 41.7801 45.0632 41.7077 44.9381C41.6354 44.813 41.5164 44.7206 41.3761 44.6804L39.1401 44.1101C38.9998 44.0768 38.852 44.098 38.7271 44.1691C38.6022 44.2403 38.5098 44.3561 38.4691 44.4924C38.4284 44.6288 38.4425 44.7754 38.5084 44.9019C38.5743 45.0284 38.6871 45.125 38.8233 45.1718Z" fill="#FFFFFA"/>
<path d="M37.8513 46.1588C37.7414 46.4821 37.7313 46.8304 37.8222 47.1595C37.9132 47.4885 38.1011 47.7836 38.3623 48.0073C38.6234 48.2311 38.9461 48.3735 39.2894 48.4166C39.6326 48.4596 39.9812 48.4014 40.2909 48.2492C40.6006 48.097 40.8575 47.8578 41.0292 47.5617C41.2009 47.2656 41.2796 46.9259 41.2554 46.5857C41.2312 46.2455 41.1052 45.92 40.8932 45.6504C40.6813 45.3808 40.3929 45.1792 40.0647 45.0712C39.6248 44.9265 39.1447 44.9597 38.7297 45.1636C38.3147 45.3676 37.9988 45.7255 37.8513 46.1588V46.1588Z" fill="#3E3C3D"/>
<path d="M38.4914 45.8393C38.4599 45.9296 38.4563 46.0271 38.4812 46.1194C38.506 46.2117 38.5582 46.2946 38.6311 46.3576C38.7039 46.4206 38.7941 46.4608 38.8902 46.4731C38.9863 46.4854 39.0839 46.4693 39.1707 46.4267C39.2575 46.3842 39.3294 46.3172 39.3774 46.2342C39.4254 46.1513 39.4473 46.0561 39.4402 45.9609C39.4332 45.8656 39.3975 45.7746 39.3378 45.6994C39.2781 45.6241 39.197 45.5681 39.1049 45.5385C38.9831 45.4992 38.8504 45.5087 38.7357 45.565C38.6209 45.6213 38.5332 45.7198 38.4914 45.8393V45.8393Z" fill="white"/>
<path d="M54.1099 51.0866C54.2256 50.7465 54.2289 50.379 54.1192 50.0369C54.0095 49.6949 53.7925 49.396 53.4994 49.1833C53.5605 49.0166 53.6215 48.856 53.671 48.708L53.6869 48.7134C54.2202 48.8969 54.6586 49.28 54.9073 49.7799C55.156 50.2797 55.1948 50.8559 55.0153 51.3838C54.8359 51.9116 54.4526 52.3485 53.9486 52.5998C53.4446 52.8511 52.8604 52.8966 52.3225 52.7264C52.2591 52.7066 52.1968 52.6838 52.1357 52.6578C52.1815 52.5778 52.2499 52.4292 52.3335 52.2367C52.7175 52.2686 53.1013 52.1726 53.4233 51.9641C53.7454 51.7556 53.9872 51.4466 54.1099 51.0866V51.0866Z" fill="#FDC7AF"/>
<path d="M54.1073 51.0947C53.984 51.4546 53.7418 51.7633 53.4194 51.9714C53.097 52.1795 52.7131 52.275 52.3291 52.2425C52.6252 51.5453 53.1135 50.2357 53.4956 49.1914C53.7889 49.404 54.0062 49.7028 54.1161 50.0449C54.226 50.3869 54.2229 50.7545 54.1073 51.0947V51.0947Z" fill="#EAAF9A"/>
<path d="M52.1614 52.5719C52.1004 52.7523 52.095 52.9464 52.1458 53.1298C52.1967 53.3132 52.3015 53.4777 52.447 53.6024C52.5926 53.7272 52.7724 53.8067 52.9637 53.8309C53.1551 53.8551 53.3494 53.8229 53.5222 53.7384C53.695 53.6539 53.8386 53.5208 53.9347 53.356C54.0309 53.1912 54.0753 53.002 54.0625 52.8123C54.0497 52.6226 53.9802 52.4409 53.8627 52.2901C53.7452 52.1393 53.5851 52.0262 53.4024 51.965C53.1562 51.8838 52.8873 51.9021 52.6547 52.0159C52.4221 52.1296 52.2447 52.3296 52.1614 52.5719Z" fill="#92BE27"/>
<g opacity="0.7">
<path opacity="0.7" d="M52.8367 52.2426C52.7655 52.3059 52.7223 52.3943 52.7165 52.4887C52.7107 52.583 52.7427 52.6759 52.8056 52.7473C52.87 52.8156 52.959 52.8564 53.0536 52.8608C53.1481 52.8653 53.2407 52.833 53.3114 52.771C53.3821 52.7091 53.4254 52.6222 53.4319 52.5292C53.4385 52.4361 53.4078 52.3443 53.3465 52.2733C53.2823 52.2038 53.1931 52.1617 53.0979 52.1559C53.0027 52.1502 52.909 52.1813 52.8367 52.2426V52.2426Z" fill="white"/>
</g>
<g opacity="0.8">
<path opacity="0.8" d="M52.5377 52.3182C52.5002 52.3508 52.4733 52.3937 52.4605 52.4414C52.4477 52.4891 52.4496 52.5395 52.466 52.5862C52.4823 52.6328 52.5123 52.6736 52.5522 52.7034C52.5921 52.7332 52.6401 52.7507 52.6901 52.7535C52.7401 52.7564 52.7899 52.7446 52.833 52.7196C52.8762 52.6946 52.9108 52.6574 52.9325 52.613C52.9543 52.5685 52.9621 52.5187 52.9551 52.4699C52.948 52.421 52.9264 52.3753 52.893 52.3386C52.8711 52.3141 52.8445 52.2941 52.8148 52.2798C52.785 52.2655 52.7527 52.2572 52.7197 52.2553C52.6866 52.2534 52.6535 52.258 52.6223 52.2688C52.5911 52.2796 52.5623 52.2963 52.5377 52.3182Z" fill="white"/>
</g>
<path d="M49.0987 34.8146C49.5254 34.9553 49.9432 35.1208 50.3501 35.3103C51.6994 35.9225 52.9072 36.8006 53.8991 37.8904C55.8573 40.0608 56.6649 42.8802 55.7823 45.4772C55.7401 45.6017 54.5864 48.9842 54.4332 49.4113C52.4426 48.2972 51.3615 45.325 50.4404 43.4559C49.0002 44.5352 47.3106 45.2452 45.5232 45.522C43.7358 45.7989 41.9066 45.634 40.1998 45.0422C38.6965 44.5503 37.3123 43.758 36.1338 42.7148C36.3835 41.9286 37.1831 39.5512 37.2472 39.3617C38.6738 35.1629 43.979 33.1254 49.0987 34.8146Z" fill="#B2B1B1"/>
<path d="M35.6492 43.24C35.547 43.1491 35.4732 43.0315 35.4365 42.9007C35.3997 42.77 35.4015 42.6317 35.4416 42.5019C35.6895 41.7241 36.4793 39.3654 36.5605 39.1332C36.9646 38.0013 37.6198 36.9725 38.4784 36.1218C39.3371 35.271 40.3775 34.6198 41.5239 34.2155C44.0361 33.2948 46.7957 33.268 49.3258 34.1397C49.7784 34.2899 50.2222 34.4644 50.6553 34.6625C52.092 35.3213 53.3792 36.2588 54.44 37.4188C56.6375 39.8611 57.3981 42.9585 56.4654 45.7028C56.4544 45.7365 55.272 49.2063 55.1108 49.6472C55.0761 49.7456 55.0197 49.8353 54.9458 49.9098C54.8718 49.9843 54.7821 50.0419 54.683 50.0783C54.5839 50.1148 54.4779 50.1293 54.3725 50.1208C54.2671 50.1123 54.1649 50.081 54.0731 50.0292C52.2083 48.9837 51.1248 46.6412 50.2525 44.7548C50.2183 44.6808 50.1841 44.605 50.1505 44.5346C48.8407 45.3788 47.366 45.9434 45.8213 46.1919C44.0096 46.4764 42.1563 46.3591 40.3964 45.8486C38.6365 45.338 37.0143 44.4471 35.6479 43.2407L35.6492 43.24ZM51.0863 43.1414C51.2432 43.459 51.4019 43.8031 51.5691 44.164C52.2168 45.5657 52.9957 47.2494 54.0682 48.2546C54.4577 47.1225 55.0553 45.3719 55.0968 45.2498C55.8635 42.9934 55.2128 40.4188 53.3577 38.3626C52.4293 37.3487 51.3025 36.5303 50.0449 35.9564C49.6616 35.7795 49.2682 35.6247 48.8668 35.4926C44.1335 33.9286 39.2269 35.7657 37.9285 39.5868C37.8614 39.7829 37.2869 41.5004 36.9634 42.4839C37.9892 43.3176 39.1633 43.9562 40.4258 44.3674C42.0191 44.9167 43.7254 45.0701 45.3934 44.8139C47.0613 44.5578 48.6393 43.9 49.9875 42.899C50.0724 42.8327 50.1713 42.7858 50.2769 42.7619C50.3825 42.7379 50.4922 42.7375 50.5979 42.7606C50.6181 42.7654 50.6419 42.7732 50.6651 42.781C50.7563 42.8107 50.8406 42.8581 50.913 42.9204C50.9853 42.9827 51.0442 43.0587 51.0863 43.1438V43.1414Z" fill="#B2B1B1"/>
<path d="M45.3037 49.4407C45.5579 48.6933 46.0313 48.0369 46.6641 47.5547C47.2969 47.0724 48.0605 46.7858 48.8585 46.7313C49.6565 46.6767 50.453 46.8565 51.1473 47.248C51.8416 47.6395 52.4025 48.225 52.7592 48.9306C53.1158 49.6363 53.2521 50.4303 53.1508 51.2122C53.0495 51.9942 52.7152 52.729 52.1902 53.3237C51.6652 53.9184 50.973 54.3464 50.2012 54.5535C49.4293 54.7606 48.6125 54.7375 47.854 54.4871C46.8372 54.1507 45.9974 53.4302 45.5192 52.484C45.041 51.5378 44.9635 50.4432 45.3037 49.4407ZM45.9141 49.6404C45.7001 50.2689 45.68 50.9457 45.8564 51.5854C46.0328 52.2251 46.3977 52.7989 46.905 53.2342C47.4124 53.6695 48.0393 53.9467 48.7066 54.0308C49.3738 54.1149 50.0514 54.0022 50.6536 53.7068C51.2557 53.4114 51.7555 52.9466 52.0896 52.3712C52.4237 51.7959 52.5772 51.1358 52.5306 50.4745C52.484 49.8132 52.2394 49.1804 51.8278 48.656C51.4162 48.1317 50.8561 47.7395 50.2182 47.5289C49.3632 47.2479 48.43 47.3125 47.6232 47.7084C46.8164 48.1043 46.2018 48.7992 45.9141 49.641V49.6404Z" fill="#546DB2"/>
<path d="M35.4994 46.2021C35.7538 45.4548 36.2273 44.7985 36.86 44.3163C37.4928 43.8341 38.2564 43.5476 39.0544 43.493C39.8523 43.4384 40.6488 43.618 41.3431 44.0094C42.0375 44.4007 42.5985 44.9862 42.9553 45.6917C43.3121 46.3971 43.4486 47.191 43.3477 47.973C43.2467 48.7549 42.9128 49.4899 42.3881 50.0848C41.8635 50.6798 41.1716 51.1081 40.3999 51.3157C39.6283 51.5233 38.8115 51.5007 38.0528 51.251C37.0354 50.9143 36.1951 50.1936 35.7164 49.247C35.2377 48.3004 35.1596 47.2053 35.4994 46.2021ZM36.1098 46.4042C35.8961 47.0325 35.8762 47.7092 36.0526 48.3486C36.2291 48.988 36.594 49.5616 37.1012 49.9966C37.6084 50.4317 38.2351 50.7088 38.9021 50.7929C39.5691 50.877 40.2464 50.7643 40.8484 50.4691C41.4504 50.1739 41.9501 49.7093 42.2842 49.1343C42.6183 48.5592 42.7719 47.8994 42.7255 47.2383C42.6792 46.5772 42.4349 45.9445 42.0237 45.4202C41.6125 44.8959 41.0527 44.5036 40.4152 44.2928C39.5604 44.0119 38.6274 44.0765 37.8207 44.4722C37.0141 44.868 36.3995 45.5627 36.1117 46.4042H36.1098Z" fill="#546DB2"/>
<path d="M42.0822 48.2546L41.8779 48.8564L46.4545 50.3676L46.6588 49.7657L42.0822 48.2546Z" fill="#546DB2"/>
<path d="M48.2954 36.8812C50.8195 37.7137 53.484 36.5804 54.2403 34.345C54.9967 32.1096 53.5689 29.624 51.0447 28.7915C48.5206 27.9589 45.8561 29.0952 45.0992 31.3282C44.3422 33.5612 45.7706 36.0456 48.2954 36.8812Z" fill="#B2B1B1"/>
<path d="M53.765 41.936C53.765 41.936 41.5094 48.3787 33.4414 41.4512C33.4414 41.4512 46.0699 44.773 53.765 41.936Z" fill="#E3E2E2"/>
<path d="M53.2242 30.1621C53.2242 30.1621 50.2587 32.8252 44.998 31.6209C44.998 31.6209 49.8815 34.6515 53.7589 30.8503C53.614 30.5975 53.434 30.3659 53.2242 30.1621V30.1621Z" fill="#E3E2E2"/>
<path d="M54.436 33.2365C54.436 33.2365 50.4786 36.906 44.917 33.0127C44.917 33.0127 49.2785 37.9286 53.7194 35.3455C54.1659 34.7285 54.4154 33.9941 54.436 33.2365V33.2365Z" fill="#E3E2E2"/>
<path d="M53.522 10.3175C53.6808 10.9016 54.8284 15.4066 54.8369 15.9931C54.887 20.1054 51.3575 24.1442 46.1871 25.5128C41.0168 26.8813 35.9118 25.1253 33.8656 21.5425C33.5738 21.0318 32.2785 16.5658 32.118 15.9823C30.8471 11.3173 34.6085 6.26782 40.5181 4.70377C46.4276 3.13973 52.2511 5.65363 53.522 10.3175Z" fill="#FDC7AF"/>
<g opacity="0.7">
<g opacity="0.7">
<path opacity="0.7" d="M38.2816 18.7168C38.3595 19.0041 38.3493 19.3076 38.2523 19.5892C38.1552 19.8707 37.9757 20.1176 37.7363 20.2986C37.4969 20.4796 37.2085 20.5866 36.9074 20.6061C36.6063 20.6256 36.3062 20.5567 36.0448 20.4082C35.7834 20.2596 35.5726 20.038 35.439 19.7714C35.3054 19.5048 35.255 19.2052 35.2942 18.9103C35.3333 18.6155 35.4602 18.3387 35.659 18.115C35.8577 17.8912 36.1192 17.7306 36.4106 17.6533C36.6043 17.6019 36.8064 17.5886 37.0053 17.6143C37.2042 17.6399 37.3961 17.704 37.5698 17.8028C37.7436 17.9015 37.8959 18.0331 38.0181 18.19C38.1402 18.3468 38.2297 18.5258 38.2816 18.7168Z" fill="#EC545C"/>
</g>
<g opacity="0.7">
<path opacity="0.7" d="M52.6253 14.9229C52.7033 15.2101 52.6931 15.5137 52.596 15.7952C52.499 16.0768 52.3194 16.3236 52.0801 16.5046C51.8407 16.6856 51.5522 16.7926 51.2512 16.8122C50.9501 16.8317 50.6499 16.7628 50.3885 16.6142C50.1272 16.4656 49.9164 16.244 49.7828 15.9774C49.6492 15.7109 49.5988 15.4112 49.6379 15.1164C49.677 14.8216 49.804 14.5448 50.0027 14.321C50.2014 14.0973 50.463 13.9366 50.7543 13.8593C50.9481 13.8079 51.1501 13.7947 51.3491 13.8203C51.548 13.846 51.7398 13.91 51.9136 14.0088C52.0874 14.1076 52.2397 14.2392 52.3618 14.396C52.4839 14.5529 52.5735 14.7319 52.6253 14.9229V14.9229Z" fill="#EC545C"/>
</g>
</g>
<path d="M42.0955 11.242C40.8215 11.5686 39.5099 11.7304 38.1936 11.7232C38.1704 11.7226 38.1476 11.7174 38.1265 11.7079C38.1054 11.6985 38.0865 11.6849 38.0708 11.6681C38.0551 11.6512 38.0431 11.6315 38.0353 11.6099C38.0276 11.5884 38.0243 11.5656 38.0257 11.5427C38.0278 11.4968 38.0482 11.4536 38.0825 11.4225C38.1168 11.3914 38.1623 11.3749 38.2088 11.3767C39.5751 11.3838 40.9356 11.203 42.2511 10.8395L42.2615 10.8341H42.2731C43.5135 10.5202 44.708 10.0505 45.827 9.4367C45.847 9.42521 45.8692 9.41772 45.8922 9.41465C45.9151 9.41159 45.9385 9.41302 45.9609 9.41886C45.9833 9.4247 46.0044 9.43482 46.0228 9.44867C46.0413 9.46252 46.0568 9.47981 46.0684 9.49956C46.0801 9.51931 46.0877 9.54113 46.0908 9.56378C46.0939 9.58642 46.0925 9.60944 46.0865 9.63154C46.0806 9.65363 46.0703 9.67436 46.0563 9.69254C46.0422 9.71072 46.0247 9.72599 46.0046 9.73748C44.8542 10.3669 43.6269 10.8488 42.3524 11.1716C42.2835 11.1896 42.1986 11.2143 42.0955 11.242Z" fill="#EAAF9A"/>
<path d="M41.833 10.0887C41.0158 10.2975 40.1745 10.4002 39.3303 10.3943C39.3006 10.3929 39.2728 10.3801 39.2528 10.3585C39.2328 10.3368 39.2224 10.3083 39.2238 10.2791C39.2251 10.2499 39.2382 10.2224 39.2601 10.2028C39.2821 10.1831 39.311 10.1728 39.3406 10.1741C40.2158 10.1785 41.0874 10.0627 41.9301 9.83005L41.9374 9.82644H41.9447C42.7392 9.6253 43.5043 9.32446 44.221 8.93132C44.2468 8.91762 44.2769 8.91432 44.3051 8.92209C44.3333 8.92986 44.3573 8.9481 44.3721 8.97297C44.3869 8.99785 44.3913 9.02741 44.3844 9.05544C44.3775 9.08347 44.3599 9.10777 44.3352 9.12322C43.5979 9.52558 42.8119 9.83443 41.996 10.0424C41.9551 10.0544 41.902 10.0707 41.833 10.0887Z" fill="#EAAF9A"/>
<path d="M35.039 7.62645C34.6157 7.15066 34.3078 6.58618 34.1386 5.97577C34.113 5.88374 34.0916 5.79051 34.0727 5.69727C33.2692 6.36363 32.5483 7.12122 31.9252 7.95429C31.0083 9.16239 30.355 10.5445 30.0066 12.0136C29.6552 13.4993 29.6808 15.0474 30.0811 16.521C30.1702 16.8471 30.5328 18.1079 30.9156 19.3646L33.2877 20.0708C32.905 18.8075 32.1962 16.2774 32.1157 15.9802C31.3093 13.0194 32.5289 9.90634 35.039 7.62645Z" fill="#B2B1B1"/>
<path d="M53.325 5.83815C52.6423 5.11627 51.86 4.49256 51.0011 3.98535C50.7686 4.64418 50.4252 5.25975 49.9854 5.80626C51.7081 6.8048 52.9735 8.41982 53.5179 10.3149C53.5979 10.6091 54.2699 13.147 54.5782 14.4319L56.2746 12.6489C55.9694 11.373 55.641 10.1026 55.5525 9.77653C55.1496 8.30334 54.3845 6.95068 53.325 5.83815Z" fill="#B2B1B1"/>
<path d="M35.0405 7.62449C36.601 6.23082 38.4794 5.22857 40.5167 4.70274C42.0898 4.24915 43.7397 4.11343 45.3674 4.30373C46.9951 4.49404 48.5669 5.00645 49.9887 5.81021C50.4285 5.26369 50.7719 4.64812 51.0045 3.9893C50.5542 3.72164 50.0869 3.48293 49.6054 3.27466C46.5522 2.01541 43.1564 1.81207 39.971 2.69776C37.8066 3.25986 35.7936 4.2831 34.0742 5.69531C34.0931 5.78855 34.1145 5.8818 34.1401 5.97383C34.3093 6.58424 34.6172 7.1487 35.0405 7.62449V7.62449Z" fill="#B2B1B1"/>
<path d="M40.5133 4.69951C38.476 5.22536 36.5976 6.22763 35.0371 7.62128C36.7665 9.58716 40.4003 10.374 44.1636 9.37841C46.4418 8.83184 48.4823 7.5799 49.9853 5.80639C48.5635 5.00274 46.9916 4.49043 45.3639 4.30023C43.7362 4.11002 42.0863 4.24583 40.5133 4.69951V4.69951Z" fill="#E3E2E2"/>
<path d="M31.6542 18.9913C31.5513 18.6134 31.5726 18.213 31.7152 17.8477C31.8578 17.4825 32.1143 17.1712 32.4477 16.9587C32.3934 16.774 32.3421 16.5977 32.2939 16.4287L32.2762 16.4335C31.6816 16.5974 31.1766 16.9859 30.8709 17.5145C30.5652 18.0432 30.4836 18.6694 30.6436 19.257C30.8037 19.8447 31.1926 20.3464 31.7259 20.6531C32.2591 20.9598 32.8936 21.0469 33.4916 20.8952C33.5636 20.876 33.6314 20.855 33.7003 20.8297C33.6297 20.6755 33.567 20.5179 33.5123 20.3575C33.092 20.3681 32.6803 20.2392 32.3433 19.9914C32.0063 19.7436 31.7636 19.3914 31.6542 18.9913V18.9913Z" fill="#FDC7AF"/>
<path d="M31.6519 18.993C31.7612 19.3932 32.0038 19.7455 32.3408 19.9934C32.6778 20.2413 33.0896 20.3703 33.51 20.3597C33.2329 19.5813 32.7891 18.1219 32.4454 16.9609C32.1121 17.1734 31.8557 17.4846 31.7131 17.8497C31.5706 18.2148 31.5491 18.6151 31.6519 18.993V18.993Z" fill="#EAAF9A"/>
<path d="M55.4957 12.6862C55.3926 12.3083 55.1706 11.9723 54.8615 11.7266C54.5524 11.4809 54.1722 11.3381 53.7755 11.3188C53.7298 11.1318 53.6834 10.9525 53.6406 10.7835L53.6559 10.7792C54.2564 10.6203 54.8963 10.703 55.4349 11.0091C55.9735 11.3151 56.3667 11.8195 56.528 12.4113C56.6892 13.003 56.6053 13.6336 56.2947 14.1644C55.9841 14.6952 55.4723 15.0827 54.8719 15.2416C54.801 15.2602 54.7308 15.2747 54.6588 15.2873C54.6515 15.1868 54.6252 15.0118 54.5819 14.7856C54.9509 14.5872 55.2416 14.2723 55.4073 13.8916C55.573 13.5109 55.6041 13.0864 55.4957 12.6862V12.6862Z" fill="#FDC7AF"/>
<path d="M55.4974 12.6837C55.6057 13.0842 55.5743 13.5089 55.4082 13.8896C55.2422 14.2703 54.9511 14.585 54.5818 14.7832C54.4249 13.9729 54.0684 12.49 53.7754 11.3164C54.1724 11.3352 54.553 11.4778 54.8625 11.7235C55.172 11.9693 55.3943 12.3055 55.4974 12.6837V12.6837Z" fill="#EAAF9A"/>
<path d="M48.4575 11.0375L45.6379 11.7834C45.4807 11.825 45.3132 11.8033 45.1722 11.7232C45.0313 11.643 44.9284 11.5109 44.8862 11.356C44.844 11.2011 44.866 11.036 44.9474 10.8971C45.0287 10.7582 45.1627 10.6568 45.3199 10.6152L48.1395 9.86929C48.2967 9.82773 48.4642 9.84941 48.6052 9.92956C48.7462 10.0097 48.849 10.1418 48.8912 10.2967C48.9334 10.4516 48.9114 10.6167 48.8301 10.7556C48.7487 10.8945 48.6147 10.9959 48.4575 11.0375Z" fill="#FFFFFA"/>
<path d="M39.9645 14.0399L37.1443 14.7858C36.9875 14.8274 36.8204 14.8058 36.6797 14.726C36.539 14.6461 36.4362 14.5144 36.3941 14.3599C36.3519 14.2054 36.3737 14.0407 36.4548 13.902C36.5358 13.7634 36.6694 13.6622 36.8262 13.6206L39.6476 12.8741C39.7253 12.8536 39.8063 12.8483 39.886 12.8587C39.9658 12.869 40.0427 12.8948 40.1123 12.9344C40.1819 12.974 40.243 13.0268 40.2919 13.0897C40.3408 13.1526 40.3768 13.2243 40.3976 13.3009C40.4184 13.3774 40.4237 13.4573 40.4132 13.5358C40.4026 13.6144 40.3765 13.6901 40.3363 13.7588C40.2961 13.8274 40.2425 13.8875 40.1787 13.9358C40.1149 13.984 40.0421 14.0194 39.9645 14.0399V14.0399Z" fill="#FFFFFA"/>
<path d="M39.9642 16.2457C40.0133 16.4271 40.0068 16.6187 39.9455 16.7963C39.8841 16.974 39.7707 17.1298 39.6195 17.244C39.4684 17.3581 39.2863 17.4256 39.0962 17.4378C38.9062 17.45 38.7167 17.4064 38.5518 17.3125C38.3869 17.2187 38.2539 17.0787 38.1697 16.9104C38.0854 16.7421 38.0537 16.5529 38.0785 16.3669C38.1033 16.1808 38.1836 16.0061 38.3091 15.865C38.4346 15.7238 38.5997 15.6225 38.7837 15.5738C38.906 15.5412 39.0336 15.5328 39.1592 15.549C39.2848 15.5652 39.4059 15.6057 39.5156 15.6681C39.6253 15.7305 39.7214 15.8137 39.7984 15.9128C39.8754 16.0119 39.9317 16.1251 39.9642 16.2457V16.2457Z" fill="#3E3C3D"/>
<path d="M48.7319 13.9254C48.781 14.1068 48.7743 14.2984 48.7129 14.4761C48.6514 14.6537 48.538 14.8095 48.3867 14.9235C48.2355 15.0376 48.0533 15.105 47.8633 15.1171C47.6732 15.1292 47.4838 15.0855 47.3189 14.9915C47.154 14.8976 47.0211 14.7575 46.937 14.5891C46.8528 14.4208 46.8212 14.2316 46.8462 14.0455C46.8711 13.8594 46.9515 13.6848 47.0771 13.5437C47.2027 13.4026 47.368 13.3014 47.552 13.2529C47.7989 13.1879 48.062 13.2222 48.2833 13.3483C48.5046 13.4744 48.666 13.682 48.7319 13.9254V13.9254Z" fill="#3E3C3D"/>
<path d="M45.8715 19.7983C46.5709 19.6099 47.312 19.6365 47.9956 19.8745C48.6793 20.1125 49.2729 20.5506 49.697 21.1302C50.0736 20.0538 50.1328 18.8943 49.8679 17.7861L39.1641 20.6183C39.5017 21.6439 40.0933 22.5705 40.8853 23.3143C41.6774 24.0582 42.645 24.596 43.7008 24.8791C43.5402 24.6138 43.417 24.3283 43.3345 24.0303C43.1015 23.1376 43.2379 22.1902 43.7137 21.3966C44.1894 20.6029 44.9656 20.028 45.8715 19.7983Z" fill="#903136"/>
<path d="M49.6988 21.131C49.2132 20.4702 48.5097 19.9961 47.7087 19.79C46.9076 19.5838 46.0587 19.6584 45.3073 20.0009C44.5558 20.3434 43.9485 20.9326 43.5892 21.6676C43.2299 22.4027 43.1409 23.238 43.3375 24.0305C43.42 24.3285 43.5432 24.6141 43.7038 24.8793C44.4778 25.0819 45.2917 25.085 46.0673 24.8884C47.8547 24.4155 49.1256 22.8557 49.6988 21.131Z" fill="#EC545C"/>
<path d="M44.8883 16.6924C45.0348 17.2296 44.6203 17.4479 44.0758 17.5947C43.5313 17.7415 43.0607 17.7541 42.916 17.2175L44.8883 16.6924Z" fill="#DE7D76"/>
<path d="M48.2255 13.71C48.2396 13.7605 48.2383 13.8139 48.2216 13.8636C48.2049 13.9133 48.1735 13.957 48.1316 13.9891C48.0897 14.0212 48.039 14.0403 47.986 14.044C47.933 14.0477 47.8801 14.0357 47.834 14.0097C47.7879 13.9837 47.7507 13.9448 47.7271 13.8979C47.7035 13.851 47.6946 13.7982 47.7015 13.7463C47.7084 13.6944 47.7308 13.6457 47.7658 13.6064C47.8008 13.567 47.8469 13.5388 47.8983 13.5254C47.9665 13.5076 48.039 13.5171 48.1003 13.5516C48.1615 13.5862 48.2065 13.6431 48.2255 13.71V13.71Z" fill="white"/>
<path d="M39.5418 16.011C39.5558 16.0613 39.5544 16.1145 39.5376 16.164C39.5209 16.2135 39.4896 16.257 39.4478 16.289C39.4059 16.3209 39.3554 16.34 39.3026 16.3436C39.2498 16.3472 39.197 16.3353 39.1511 16.3094C39.1051 16.2834 39.0681 16.2446 39.0445 16.1979C39.021 16.1512 39.012 16.0986 39.0188 16.0469C39.0256 15.9951 39.0479 15.9465 39.0827 15.9073C39.1176 15.868 39.1635 15.8398 39.2146 15.8263C39.2828 15.8084 39.3555 15.8177 39.4167 15.8523C39.478 15.8869 39.5229 15.9439 39.5418 16.011Z" fill="white"/>
<path d="M39.126 3.30687C39.126 3.30687 50.2425 4.4071 52.2777 0.875977C52.2777 0.875977 49.7994 13.9201 35.041 7.62122L39.126 3.30687Z" fill="#B2B1B1"/>
<path d="M42.3564 3.1202C42.3564 3.1202 48.4607 3.20622 50.1406 0.830078C50.1406 0.830078 49.4423 3.40594 48.1439 4.30225L42.3564 3.1202Z" fill="#B2B1B1"/>
<path d="M44.5153 18.5994C44.388 18.4945 44.2385 18.419 44.0777 18.3786C43.9169 18.3382 43.7489 18.3339 43.5862 18.366C42.3568 18.5158 39.9694 20.6411 39.323 18.4563C39.3031 18.3421 39.2951 18.2261 39.2992 18.1104C39.2427 18.3001 39.1679 18.484 39.0758 18.6596C38.9355 19.0569 38.8766 19.4777 38.9024 19.8976C39.0025 20.8697 40.1532 21.2643 40.9693 21.3082C41.8456 21.3971 42.7236 21.156 43.4269 20.6333C43.8892 20.3062 44.2779 19.8884 44.5684 19.4061C44.6521 19.2851 44.6923 19.1399 44.6827 18.9938C44.6731 18.8476 44.6142 18.7088 44.5153 18.5994V18.5994Z" fill="#F2FAFC"/>
<path d="M46.124 17.6617C46.124 17.6617 50.571 16.8466 51.0618 15.3457C51.0618 15.3457 51.165 20.4974 45.0479 19.2516L46.124 17.6617Z" fill="#FFFFFA"/>
<path d="M47.1748 17.4277C46.4638 17.431 45.7648 17.6086 45.1408 17.9445C44.9983 18.0275 44.8764 18.1408 44.7838 18.2761C44.6912 18.4113 44.6303 18.5652 44.6055 18.7265C44.6065 18.873 44.6568 19.015 44.7484 19.1303C44.8401 19.2455 44.968 19.3276 45.1121 19.3635C45.655 19.5322 46.2273 19.5884 46.7933 19.5284C47.6713 19.4556 48.4891 19.0588 49.083 18.4173L47.1748 17.4277Z" fill="#F2FAFC"/>
<path d="M35.333 5.62442C35.333 5.62442 48.7014 8.18644 52.2767 0.876953C52.2767 0.876953 47.5636 5.97633 35.333 5.62442Z" fill="#E3E2E2"/>
</svg>
