<svg width="199" height="55" viewBox="0 0 199 55" fill="none" xmlns="http://www.w3.org/2000/svg">
<path d="M46.2815 17.2504C47.0734 16.7942 47.6026 15.9403 47.6026 14.9586C47.6026 13.9806 47.0698 13.1266 46.2815 12.6668L39.6689 8.84961V21.0676L46.2815 17.2504V17.2504Z" fill="#0082FA"/>
<path d="M14.5461 49.3191L22.4798 53.8991C22.8703 54.1253 23.3191 54.253 23.8008 54.253C24.2825 54.253 24.7351 54.1253 25.1219 53.8991L46.2807 41.6847C47.0726 41.2249 47.6018 40.371 47.6018 39.393V31.7586L23.7972 45.5019L21.1733 43.9875L21.1514 40.9147L46.2771 26.4123C47.069 25.9561 47.5981 25.1022 47.5981 24.1205V14.957C47.5981 15.9351 47.0653 16.789 46.2771 17.2488L39.6645 21.066L14.5388 35.5721C13.7469 36.0283 13.2178 36.8822 13.2178 37.8639V47.0274C13.2178 48.0054 13.7506 48.8593 14.5388 49.3191H14.5461Z" fill="#003CC8"/>
<path d="M1.32106 37.1024C0.529154 37.5585 0 38.4125 0 39.3941C0 40.3722 0.532803 41.2261 1.32106 41.6859L7.93365 45.5031V33.2852L1.32106 37.1024V37.1024Z" fill="#0082FA"/>
<path d="M33.0605 5.03351L25.1269 0.453595C24.7364 0.227336 24.2875 0.0996094 23.8058 0.0996094C23.3241 0.0996094 22.8716 0.227336 22.4848 0.453595L1.32594 12.6679C0.534034 13.1277 0.00488281 13.9817 0.00488281 14.9597V22.5941L23.8095 8.85071L26.4333 10.3652L26.4552 13.4379L1.32959 27.9404C0.537684 28.3965 0.00853014 29.2505 0.00853014 30.2321V39.3956C0.00853014 38.4176 0.541334 37.5637 1.32959 37.1038L7.94218 33.2866L33.0678 18.7805C33.8597 18.3244 34.3889 17.4704 34.3889 16.4888V7.32529C34.3889 6.34726 33.8561 5.49332 33.0678 5.03351H33.0605Z" fill="#003CC8"/>
<path d="M67.2422 8.85254C71.9644 8.85254 75.4131 9.8707 77.5844 11.907C79.7558 13.9434 80.8433 16.7424 80.8433 20.3005C80.8433 22.4244 80.3981 24.4169 79.5076 26.2817C78.6172 28.1466 77.1392 29.6428 75.0664 30.7741C72.9972 31.9017 70.1799 32.4674 66.6218 32.4674H63.2863V45.5064H55.5352V8.85254H67.2386H67.2422ZM66.8298 15.217H63.29V26.0993H65.8555C68.0451 26.0993 69.7822 25.6614 71.0667 24.7892C72.3513 23.917 72.9899 22.5047 72.9899 20.5559C72.9899 16.9978 70.9353 15.217 66.8298 15.217V15.217Z" fill="#1A1A1A"/>
<path d="M118.161 26.8145C118.161 33.0075 116.406 37.6713 112.899 40.8024C109.392 43.9336 104.473 45.4991 98.1412 45.4991H87.7734V8.85254H99.2725C103.104 8.85254 106.432 9.53861 109.257 10.9071C112.082 12.2756 114.271 14.2864 115.826 16.9395C117.384 19.5925 118.161 22.8842 118.161 26.8219V26.8145ZM110.104 27.0189C110.104 22.9463 109.213 19.9611 107.436 18.0635C105.655 16.1658 103.071 15.2133 99.6849 15.2133H95.5283V39.08H98.8638C106.359 39.08 110.104 35.0584 110.104 27.0189V27.0189Z" fill="#1A1A1A"/>
<path d="M175.338 45.4991L166.511 16.757H166.306C166.339 17.4431 166.39 18.4685 166.459 19.837C166.529 21.2055 166.595 22.6689 166.664 24.2272C166.733 25.7854 166.766 27.1977 166.766 28.4604V45.5028H159.836V8.85254H170.408L179.083 36.8794H179.236L188.425 8.85254H198.997V45.4991H191.76V28.1502C191.76 26.9861 191.786 25.6541 191.837 24.1469C191.888 22.6397 191.939 21.2128 191.99 19.8626C192.041 18.5123 192.085 17.4942 192.118 16.8081H191.914L182.469 45.4991H175.335H175.338Z" fill="#1A1A1A"/>
<path d="M133.508 8.84961H125.757V45.4999H133.508V8.84961Z" fill="#1A1A1A"/>
<path d="M155.12 8.84961H146.493L133.509 27.1766L146.493 45.4999H155.12L142.132 27.1766L155.12 8.84961Z" fill="#1A1A1A"/>
</svg>
