<svg width="56" height="60" viewBox="0 0 56 60" fill="none" xmlns="http://www.w3.org/2000/svg">
<path d="M27.9447 11.8223C19.2509 11.8223 12.198 18.844 12.1836 27.5137C12.2556 33.1741 15.0192 38.4475 19.6396 41.7578V53.0929C19.6396 53.2218 19.6683 53.3508 19.7115 53.4655V53.5514C19.7115 53.5514 19.7547 53.6374 19.7835 53.6804L23.713 59.5127C23.9145 59.8137 24.2743 60 24.6342 60H31.1258C31.5 60 31.8454 59.8137 32.047 59.5127L35.9765 53.6804C35.9765 53.6804 36.0196 53.5944 36.0484 53.5514V53.4655C36.0916 53.3508 36.1204 53.2218 36.1204 53.0929V41.7578C40.7264 38.4475 43.49 33.1741 43.562 27.5137C43.562 18.9013 36.5666 11.8939 27.916 11.8223H27.9447ZM30.6076 57.8075H25.2963L22.8638 54.2106H33.0401L30.622 57.8075H30.6076ZM21.885 51.9751V49.0231H34.0189V51.9751H21.8706H21.885ZM34.5227 40.2245V40.2531C34.206 40.4537 34.0189 40.812 34.0189 41.1846V46.8306H21.8706V41.1129C21.8706 40.7403 21.6835 40.3821 21.3668 40.1815C17.0919 37.3441 14.501 32.5865 14.4146 27.4564C14.6305 20.0191 20.8486 14.1724 28.319 14.3873C35.4871 14.588 41.2446 20.32 41.4461 27.4564C41.3885 32.5865 38.7832 37.3584 34.4939 40.2101L34.5227 40.2245Z" fill="#3B82F6"/>
<path d="M28.3883 16.8672C27.7694 16.8672 27.2656 17.3687 27.2656 17.9849C27.2656 18.6011 27.7694 19.1027 28.3883 19.1027C33.0231 19.1027 36.7943 22.8572 36.7943 27.4714C36.7943 28.0876 37.2981 28.5892 37.917 28.5892C38.5359 28.5892 39.0397 28.0876 39.0397 27.4714C39.0397 21.6248 34.2754 16.8815 28.4027 16.8815L28.3883 16.8672Z" fill="#3B82F6"/>
<path d="M9.17395 26.3535H1.14224C0.523312 26.3535 0.0195312 26.8551 0.0195312 27.4713C0.0195312 28.0875 0.523312 28.589 1.14224 28.589H9.17395C9.79288 28.589 10.2967 28.0875 10.2967 27.4713C10.2967 26.8551 9.79288 26.3535 9.17395 26.3535Z" fill="#3B82F6"/>
<path d="M54.7313 26.3535H46.6852C46.0663 26.3535 45.5625 26.8551 45.5625 27.4713C45.5625 28.0875 46.0663 28.589 46.6852 28.589H54.7313C55.3502 28.589 55.854 28.0875 55.854 27.4713C55.854 26.8551 55.3502 26.3535 54.7313 26.3535Z" fill="#3B82F6"/>
<path d="M15.5782 39.8956C15.1752 39.4227 14.4699 39.3797 14.0093 39.781C13.9661 39.8239 13.9229 39.8526 13.8941 39.8956V39.8669L8.19419 45.5703C7.7192 45.9715 7.67602 46.6737 8.07904 47.1323C8.48207 47.6052 9.18736 47.6482 9.64796 47.2469C9.69114 47.2039 9.73433 47.1753 9.76311 47.1323L15.463 41.4576C15.938 41.0563 15.9812 40.3542 15.5782 39.8956Z" fill="#3B82F6"/>
<path d="M47.5767 7.78041C47.1593 7.42216 46.5404 7.42216 46.123 7.78041L40.423 13.4551C39.9912 13.885 39.9768 14.5872 40.423 15.0314C40.6389 15.2464 40.9268 15.361 41.2291 15.361C41.5313 15.361 41.8048 15.232 42.0207 15.0314L47.7207 9.35672C48.1237 8.88382 48.0661 8.18165 47.6055 7.79474L47.5767 7.78041Z" fill="#3B82F6"/>
<path d="M47.9211 45.7989C47.8636 45.713 47.7772 45.6413 47.7052 45.5697L42.0053 39.8663C41.6023 39.3934 40.897 39.3504 40.4364 39.7517C39.9614 40.1529 39.9182 40.8551 40.3212 41.3136C40.3644 41.3566 40.3932 41.3996 40.4364 41.4283L46.1363 47.103C46.4962 47.5902 47.2014 47.7048 47.6908 47.3323C48.1802 46.974 48.2954 46.2718 47.9211 45.7846V45.7989Z" fill="#3B82F6"/>
<path d="M15.4489 13.4567L9.74896 7.782C9.27396 7.38075 8.56867 7.43807 8.18004 7.89664C7.8202 8.31221 7.8202 8.9284 8.18004 9.34397L13.88 15.0187C14.355 15.4199 15.0459 15.3626 15.4489 14.904C15.8087 14.4885 15.8087 13.8723 15.4489 13.4567Z" fill="#3B82F6"/>
<path d="M27.9433 0C27.3244 0 26.8206 0.501552 26.8206 1.11775V9.14258C26.8062 9.75878 27.2812 10.2747 27.9002 10.289H27.9289C28.5479 10.289 29.0517 9.78744 29.0517 9.17124V1.11775C29.0517 0.501552 28.5479 0 27.9289 0H27.9433Z" fill="#3B82F6"/>
</svg>
