<svg width="48" height="46" viewBox="0 0 48 46" fill="none" xmlns="http://www.w3.org/2000/svg">
<path d="M8.62749 3.99023C6.90729 3.99023 5.50781 5.38925 5.50781 7.10871C5.50781 8.82818 6.90729 10.2272 8.62749 10.2272C10.3491 10.2272 11.7497 8.82818 11.7497 7.10871C11.7497 5.38925 10.3491 3.99023 8.62749 3.99023ZM8.62749 8.36737C7.93282 8.36737 7.36772 7.80273 7.36772 7.10871C7.36772 6.41469 7.93282 5.85014 8.62749 5.85014C9.32354 5.85014 9.88993 6.41478 9.88993 7.1088C9.88993 7.80282 9.32354 8.36737 8.62749 8.36737Z" fill="#0A0A0A"/>
<path d="M35.9056 3.99023H27.6587C25.9385 3.99023 24.5391 5.38925 24.5391 7.10871C24.5391 8.82818 25.9385 10.2272 27.6587 10.2272H35.9056C37.6258 10.2272 39.0252 8.82818 39.0252 7.10871C39.0252 5.38925 37.6258 3.99023 35.9056 3.99023ZM35.9056 8.36737H27.6587C26.9641 8.36737 26.399 7.80273 26.399 7.10871C26.399 6.41469 26.9642 5.85005 27.6587 5.85005H35.9056C36.6002 5.85005 37.1653 6.41469 37.1653 7.10871C37.1653 7.80273 36.6002 8.36737 35.9056 8.36737Z" fill="#0A0A0A"/>
<path d="M16.7134 3.99023C14.9932 3.99023 13.5938 5.38925 13.5938 7.10871C13.5938 8.82818 14.9932 10.2272 16.7134 10.2272C18.435 10.2272 19.8357 8.82818 19.8357 7.10871C19.8357 5.38925 18.435 3.99023 16.7134 3.99023ZM16.7134 8.36737C16.0188 8.36737 15.4537 7.80273 15.4537 7.10871C15.4537 6.41469 16.0189 5.85005 16.7134 5.85005C17.4095 5.85005 17.9759 6.41469 17.9759 7.10871C17.9759 7.80273 17.4095 8.36737 16.7134 8.36737Z" fill="#0A0A0A"/>
<path d="M15.1982 19.4066C14.6988 19.287 14.1969 19.5953 14.0776 20.0949L12.2327 27.8151C12.1134 28.3146 12.4215 28.8164 12.921 28.9357C12.9937 28.953 13.0664 28.9614 13.138 28.9614C13.5584 28.9614 13.9396 28.6743 14.0416 28.2474L15.8865 20.5272C16.0059 20.0277 15.6977 19.526 15.1982 19.4066Z" fill="#3B82F6"/>
<path d="M18.6123 28.0281C18.7895 28.186 19.0105 28.2636 19.2305 28.2636C19.4866 28.2636 19.7415 28.1585 19.9253 27.9522L22.533 25.0249C22.9633 24.5459 22.9633 23.7958 22.5357 23.3199L19.9252 20.3895C19.5835 20.0059 18.9956 19.9722 18.6123 20.3136C18.2286 20.6553 18.1947 21.2432 18.5364 21.6266L20.8028 24.1708L18.5364 26.715C18.1948 27.0986 18.2287 27.6865 18.6123 28.0281Z" fill="#3B82F6"/>
<path d="M9.50561 20.3136C9.12199 19.972 8.53429 20.0062 8.19263 20.3895L5.58521 23.3166C5.15438 23.7956 5.15438 24.5461 5.58226 25.0218L8.19272 27.9522C8.37651 28.1586 8.6314 28.2636 8.88757 28.2636C9.1076 28.2636 9.32864 28.1859 9.50579 28.0281C9.88941 27.6864 9.92335 27.0985 9.58168 26.7151L7.31528 24.1709L9.58168 21.6267C9.92316 21.2431 9.88923 20.6552 9.50561 20.3136Z" fill="#3B82F6"/>
<path d="M45.1298 30.2042H44.7846C44.6037 29.6184 44.3694 29.0529 44.0835 28.5125L44.3299 28.2653C44.7234 27.8742 44.9406 27.352 44.9414 26.7948C44.9423 26.2364 44.7258 25.712 44.3319 25.3182L43.8518 24.8384V5.03031C43.8518 2.25653 41.8944 0 39.4883 0H4.36349C1.95738 0 0 2.25653 0 5.03031V31.0217C0 33.7955 1.95738 36.0521 4.36349 36.0521H9.81956C10.3331 36.0521 10.7495 35.6357 10.7495 35.1221C10.7495 34.6086 10.3331 34.1922 9.81956 34.1922H4.36349C3.00644 34.1922 1.85991 32.7403 1.85991 31.0218V14.1505H41.9918V23.5478C41.8858 23.5315 41.7785 23.5208 41.6692 23.5208H41.666C41.1088 23.5217 40.5866 23.7386 40.1986 24.1288L39.9472 24.379C39.3954 24.0875 38.8209 23.8505 38.2284 23.6694V23.3382C38.2284 22.1888 37.2931 21.2538 36.1434 21.2538H34.4606C33.3124 21.2538 32.3783 22.1888 32.3783 23.3382V23.6921C31.797 23.8748 31.2357 24.1099 30.6992 24.3954L30.4583 24.1552C30.0671 23.7621 29.5448 23.545 28.9876 23.5442H28.9845C28.4272 23.5442 27.904 23.7604 27.5109 24.1533L26.3219 25.3417C25.928 25.7354 25.7116 26.2599 25.7124 26.8182C25.7132 27.3754 25.9303 27.8976 26.3208 28.2857L26.5777 28.5432C26.2989 29.0753 26.0699 29.6304 25.8928 30.204H25.5396C24.3913 30.204 23.4572 31.1378 23.4572 32.2857V33.9702C23.4572 34.0451 23.4614 34.119 23.4691 34.1919H18.0583C17.5448 34.1919 17.1284 34.6082 17.1284 35.1218C17.1284 35.6353 17.5448 36.0517 18.0583 36.0517H25.5395H25.8963C26.0761 36.6307 26.3086 37.1902 26.5921 37.7258L26.3408 37.976C25.5318 38.7893 25.5326 40.1098 26.3428 40.9193L27.5324 42.1084C27.9236 42.5016 28.4459 42.7186 29.003 42.7195H29.0061C29.5634 42.7195 30.0867 42.5032 30.4798 42.1103L30.7289 41.8614C31.2693 42.1463 31.8311 42.379 32.4095 42.5578V42.9177C32.4095 44.0671 33.3436 45.0021 34.4918 45.0021H36.1773C37.3255 45.0021 38.2595 44.0671 38.2595 42.9177V42.56C38.8433 42.3799 39.4075 42.1463 39.9473 41.8613L40.1952 42.1084C40.5863 42.5016 41.1086 42.7185 41.6657 42.7195H41.6689C42.2262 42.7195 42.7494 42.5032 43.1433 42.1096L44.3297 40.9213C44.7232 40.5302 44.9403 40.0079 44.9412 39.4508C44.942 38.8923 44.7256 38.368 44.3315 37.9741L44.0834 37.7261C44.3664 37.19 44.5987 36.6302 44.7782 36.0518H45.1296C46.2793 36.0518 47.2146 35.118 47.2146 33.9702V32.2857C47.2147 31.1379 46.2795 30.2042 45.1298 30.2042ZM1.85991 12.2906V5.03031C1.85991 3.31186 3.00644 1.85991 4.36349 1.85991H39.4883C40.8454 1.85991 41.9919 3.31186 41.9919 5.03031V12.2907L1.85991 12.2906ZM45.3548 33.9704C45.3548 34.0885 45.2497 34.192 45.1297 34.192H44.0663C43.6327 34.192 43.2566 34.4917 43.1598 34.9143C42.959 35.7908 42.614 36.622 42.1344 37.3851C41.9034 37.7526 41.9573 38.231 42.2644 38.5378L43.0169 39.2899C43.0731 39.3461 43.0814 39.4132 43.0814 39.4483C43.0813 39.4902 43.0704 39.5509 43.0161 39.6048L41.828 40.795C41.7717 40.8513 41.7045 40.8597 41.669 40.8597C41.6268 40.8597 41.5657 40.8488 41.5112 40.7939L40.7559 40.0418C40.4487 39.7359 39.9712 39.6829 39.6045 39.9134C38.8403 40.3941 38.0056 40.7397 37.1233 40.9404C36.7001 41.0369 36.3998 41.4131 36.3998 41.8473V42.918C36.3998 43.0375 36.2959 43.1425 36.1775 43.1425H34.492C34.3735 43.1425 34.2696 43.0376 34.2696 42.918V41.8446C34.2696 41.4101 33.9686 41.0334 33.5448 40.9376C32.6738 40.7406 31.8405 40.3956 31.0683 39.9124C30.9162 39.8171 30.7452 39.7707 30.5752 39.7707C30.335 39.7707 30.0969 39.8635 29.9175 40.043L29.1652 40.795C29.1088 40.8513 29.0416 40.8597 29.0062 40.8597C28.964 40.8597 28.9027 40.8488 28.8493 40.7951L27.6578 39.6041C27.5743 39.5208 27.5753 39.373 27.6567 39.2911L28.4118 38.539C28.7204 38.2318 28.7743 37.7517 28.5419 37.3836C28.0615 36.623 27.7161 35.7923 27.515 34.9146C27.4182 34.4919 27.0422 34.1922 26.6085 34.1922H25.5397C25.4191 34.1922 25.3172 34.0907 25.3172 33.9705V32.286C25.3172 32.1659 25.4191 32.0643 25.5397 32.0643H26.6058C27.0399 32.0643 27.4163 31.7639 27.5126 31.3407C27.7111 30.4686 28.0521 29.6414 28.5262 28.8817C28.7551 28.5149 28.701 28.0388 28.3957 27.7327L27.6349 26.9697C27.5833 26.9184 27.5724 26.8576 27.5723 26.8158C27.5723 26.7807 27.5806 26.7136 27.6369 26.6574L28.8257 25.4691C28.8821 25.4129 28.9493 25.4044 28.9847 25.4044C29.0268 25.4045 29.0882 25.4154 29.1427 25.4702L29.8926 26.2172C30.2007 26.524 30.6799 26.5766 31.0467 26.3438C31.8066 25.8621 32.6389 25.5131 33.5203 25.3068C33.9408 25.2084 34.2382 24.8333 34.2382 24.4014V23.3385C34.2382 23.2168 34.34 23.114 34.4605 23.114H36.1433C36.2654 23.114 36.3684 23.2168 36.3684 23.3385V24.3857C36.3684 24.8214 36.6709 25.1987 37.0963 25.2934C37.9811 25.4904 38.8253 25.8385 39.6053 26.3278C39.9719 26.5576 40.4489 26.5045 40.7558 26.1989L41.5141 25.4437C41.5656 25.3919 41.6265 25.3811 41.6687 25.381C41.7041 25.381 41.7716 25.3895 41.8278 25.4457L43.0168 26.6339C43.073 26.6902 43.0813 26.7573 43.0813 26.7923C43.0812 26.8342 43.0704 26.895 43.0157 26.9493L42.2631 27.7041C41.9567 28.0114 41.9035 28.4899 42.1351 28.8569C42.6166 29.6201 42.9629 30.456 43.1647 31.3411C43.2612 31.7642 43.6374 32.0643 44.0715 32.0643H45.1297C45.2496 32.0643 45.3548 32.1681 45.3548 32.2861V33.9704Z" fill="#0A0A0A"/>
<path d="M35.3355 27.4492C32.2018 27.4492 29.6523 29.9975 29.6523 33.1298C29.6523 36.2607 32.2018 38.8079 35.3355 38.8079C38.4678 38.8079 41.016 36.2608 41.016 33.1298C41.016 29.9976 38.4678 27.4492 35.3355 27.4492ZM35.3355 36.948C33.2274 36.948 31.5123 35.2351 31.5123 33.1298C31.5123 31.0231 33.2274 29.3091 35.3355 29.3091C37.4421 29.3091 39.1561 31.0231 39.1561 33.1298C39.1561 35.2351 37.442 36.948 35.3355 36.948Z" fill="#0A0A0A"/>
<path d="M13.9677 34.1914H13.9494C13.4359 34.1914 13.0195 34.6078 13.0195 35.1213C13.0195 35.6349 13.4359 36.0512 13.9494 36.0512H13.9677C14.4813 36.0512 14.8976 35.6349 14.8976 35.1213C14.8976 34.6078 14.4813 34.1914 13.9677 34.1914Z" fill="#0A0A0A"/>
</svg>
