<svg width="100" height="100" viewBox="0 0 100 100" fill="none" xmlns="http://www.w3.org/2000/svg">
<g clip-path="url(#clip0_275_4998)">
<path d="M22.9886 45.379C22.8672 45.379 22.8368 45.318 22.8976 45.2264L23.5352 44.4026C23.5959 44.311 23.7477 44.25 23.8692 44.25H34.7088C34.8302 44.25 34.8606 44.3415 34.7998 44.4331L34.2837 45.2264C34.2229 45.318 34.0711 45.4095 33.98 45.4095L22.9886 45.379Z" fill="white"/>
<path d="M18.4027 48.1857C18.2812 48.1857 18.2509 48.1246 18.3116 48.0331L18.9492 47.2092C19.01 47.1177 19.1618 47.0566 19.2832 47.0566H33.1288C33.2502 47.0566 33.3109 47.1482 33.2806 47.2397L33.0377 47.9721C33.0073 48.0941 32.8859 48.1551 32.7644 48.1551L18.4027 48.1857Z" fill="white"/>
<path d="M25.7504 50.9943C25.6289 50.9943 25.5985 50.9027 25.6593 50.8112L26.0844 50.0483C26.1451 49.9568 26.2665 49.8652 26.388 49.8652H32.4606C32.582 49.8652 32.6428 49.9568 32.6428 50.0788L32.582 50.8112C32.582 50.9332 32.4606 51.0248 32.3695 51.0248L25.7504 50.9943Z" fill="white"/>
<path d="M57.2658 44.8295C55.3529 45.3178 54.0473 45.6839 52.1648 46.1722C51.7093 46.2942 51.679 46.3247 51.2842 45.867C50.8288 45.3483 50.4948 45.0126 49.8572 44.7075C47.9443 43.7615 46.0922 44.0362 44.3615 45.1652C42.2968 46.5078 41.2341 48.4912 41.2645 50.9629C41.2948 53.404 42.9648 55.4179 45.3635 55.7536C47.4281 56.0282 49.1588 55.2958 50.5252 53.7396C50.7984 53.404 51.0413 53.0378 51.345 52.6106C50.2519 52.6106 48.8856 52.6106 45.4849 52.6106C44.8473 52.6106 44.6955 52.2139 44.908 51.6952C45.3027 50.7493 46.0314 49.1625 46.4565 48.3692C46.5476 48.1861 46.7602 47.8809 47.2156 47.8809C48.7641 47.8809 54.4724 47.8809 58.2677 47.8809C58.207 48.7048 58.207 49.5287 58.0856 50.3526C57.7516 52.5496 56.9318 54.5635 55.5958 56.3333C53.4097 59.2322 50.5555 61.0325 46.9423 61.5207C43.9668 61.9174 41.2037 61.3376 38.7747 59.5068C36.5278 57.798 35.2526 55.54 34.9186 52.7327C34.5239 49.4066 35.4955 46.4163 37.4994 43.7921C39.6552 40.9543 42.5093 39.1539 46.0011 38.5131C48.8552 37.9944 51.5879 38.3301 54.0473 40.0083C55.6565 41.0763 56.8103 42.541 57.5694 44.3108C57.7516 44.5854 57.6301 44.738 57.2658 44.8295Z" fill="white"/>
<path d="M67.3172 61.7044C64.5542 61.6434 62.0341 60.85 59.9087 59.0192C58.1173 57.463 56.9938 55.4796 56.6295 53.13C56.0829 49.6819 57.0242 46.6305 59.0889 43.9148C61.3054 40.9854 63.9773 39.4597 67.5905 38.8189C70.6875 38.2697 73.6024 38.5748 76.244 40.3751C78.6426 42.0229 80.1304 44.2504 80.5252 47.1798C81.0413 51.2992 79.8572 54.6557 77.0334 57.524C75.0295 59.5685 72.57 60.85 69.7463 61.4298C68.9265 61.5824 68.1067 61.6129 67.3172 61.7044ZM74.5436 49.3768C74.5133 48.9801 74.5133 48.675 74.4526 48.3698C73.906 45.3489 71.143 43.6401 68.2585 44.3114C65.4347 44.9522 63.613 46.7526 62.945 49.6209C62.3984 52.001 63.5522 54.4116 65.7384 55.388C67.4083 56.1204 69.0783 56.0288 70.6875 55.205C73.0862 53.9539 74.3918 52.001 74.5436 49.3768Z" fill="white"/>
</g>
<defs>
<clipPath id="clip0_275_4998">
<rect width="62.3656" height="23.4043" fill="white" transform="translate(18.2812 38.2988)"/>
</clipPath>
</defs>
</svg>
