<svg width="60" height="60" viewBox="0 0 60 60" fill="none" xmlns="http://www.w3.org/2000/svg">
<path d="M7.99983 50.0273C7.40807 50.0273 6.82959 50.2028 6.33756 50.5316C5.84552 50.8604 5.46203 51.3276 5.23557 51.8744C5.00911 52.4211 4.94986 53.0227 5.0653 53.6031C5.18075 54.1835 5.46571 54.7166 5.88416 55.135C6.3026 55.5535 6.83572 55.8384 7.41612 55.9539C7.99651 56.0693 8.59811 56.0101 9.14483 55.7836C9.69155 55.5572 10.1588 55.1737 10.4876 54.6816C10.8164 54.1896 10.9919 53.6111 10.9919 53.0194C10.9919 52.2258 10.6766 51.4648 10.1155 50.9037C9.5544 50.3426 8.79337 50.0273 7.99983 50.0273ZM7.99983 54.0167C7.80258 54.0167 7.60975 53.9582 7.44574 53.8486C7.28173 53.739 7.1539 53.5833 7.07841 53.401C7.00292 53.2188 6.98317 53.0183 7.02166 52.8248C7.06014 52.6313 7.15513 52.4536 7.29461 52.3141C7.43409 52.1747 7.6118 52.0797 7.80526 52.0412C7.99873 52.0027 8.19926 52.0225 8.3815 52.0979C8.56374 52.1734 8.7195 52.3013 8.82909 52.4653C8.93868 52.6293 8.99717 52.8221 8.99717 53.0194C8.99717 53.2839 8.8921 53.5376 8.70506 53.7246C8.51802 53.9116 8.26434 54.0167 7.99983 54.0167Z" fill="#3B82F6"/>
<path d="M59.2314 25.1634L54.6436 23.3273L52.8075 18.7396C52.7337 18.5542 52.6059 18.3952 52.4407 18.2832C52.2755 18.1712 52.0805 18.1113 51.881 18.1113C51.6814 18.1113 51.4864 18.1712 51.3213 18.2832C51.1561 18.3952 51.0283 18.5542 50.9545 18.7396L49.1184 23.3273L44.5306 25.1634C44.3452 25.2373 44.1862 25.3651 44.0742 25.5302C43.9622 25.6954 43.9023 25.8904 43.9023 26.09C43.9023 26.2895 43.9622 26.4845 44.0742 26.6497C44.1862 26.8149 44.3452 26.9426 44.5306 27.0165L49.1602 28.8686L50.9824 32.5846C51.0647 32.7517 51.1921 32.8923 51.3502 32.9907C51.5083 33.089 51.6908 33.1411 51.877 33.1411C52.0632 33.1411 52.2457 33.089 52.4038 32.9907C52.5619 32.8923 52.6893 32.7517 52.7716 32.5846L54.5987 28.8686L59.2284 27.0165C59.4138 26.9426 59.5728 26.8149 59.6848 26.6497C59.7968 26.4845 59.8566 26.2895 59.8566 26.09C59.8566 25.8904 59.7968 25.6954 59.6848 25.5302C59.5728 25.3651 59.4138 25.2373 59.2284 25.1634H59.2314ZM53.5047 27.1581C53.2756 27.2499 53.0887 27.4233 52.9801 27.6448L51.88 29.8799L50.7829 27.6418C50.6743 27.4203 50.4874 27.2469 50.2583 27.1551L47.5834 26.09L50.2553 25.0218C50.3809 24.9718 50.495 24.8967 50.5906 24.8012C50.6863 24.7057 50.7616 24.5918 50.8118 24.4663L51.88 21.7934L52.9481 24.4663C52.9984 24.5918 53.0737 24.7057 53.1693 24.8012C53.265 24.8967 53.3791 24.9718 53.5047 25.0218L56.1765 26.09L53.5047 27.1581Z" fill="#3B82F6"/>
<path d="M12.6136 22.0302L17.2433 23.8822L19.0674 27.5983C19.1497 27.7653 19.2771 27.906 19.4352 28.0043C19.5933 28.1027 19.7758 28.1548 19.962 28.1548C20.1482 28.1548 20.3307 28.1027 20.4888 28.0043C20.6469 27.906 20.7743 27.7653 20.8566 27.5983L22.6838 23.8822L27.3134 22.0302C27.4988 21.9563 27.6578 21.8285 27.7698 21.6634C27.8818 21.4982 27.9417 21.3032 27.9417 21.1036C27.9417 20.9041 27.8818 20.7091 27.7698 20.5439C27.6578 20.3787 27.4988 20.251 27.3134 20.1771L22.7256 18.341L20.8895 13.7532C20.8157 13.5678 20.6879 13.4089 20.5227 13.2969C20.3576 13.1849 20.1626 13.125 19.963 13.125C19.7634 13.125 19.5685 13.1849 19.4033 13.2969C19.2381 13.4089 19.1103 13.5678 19.0365 13.7532L17.2004 18.341L12.6126 20.1771C12.4272 20.251 12.2682 20.3787 12.1562 20.5439C12.0442 20.7091 11.9844 20.9041 11.9844 21.1036C11.9844 21.3032 12.0442 21.4982 12.1562 21.6634C12.2682 21.8285 12.4272 21.9563 12.6126 22.0302H12.6136ZM18.3403 20.0355C18.4659 19.9854 18.58 19.9104 18.6757 19.8149C18.7713 19.7194 18.8466 19.6054 18.8969 19.48L19.965 16.8071L21.0332 19.48C21.0834 19.6054 21.1587 19.7194 21.2544 19.8149C21.35 19.9104 21.4641 19.9854 21.5897 20.0355L24.2615 21.1036L21.5897 22.1718C21.3606 22.2635 21.1737 22.4369 21.0651 22.6585L19.965 24.8935L18.8679 22.6555C18.7593 22.434 18.5724 22.2606 18.3433 22.1688L15.6685 21.1036L18.3403 20.0355Z" fill="#3B82F6"/>
<path d="M57.2369 7.2108L52.6492 5.3757L50.814 0.787937C50.7405 0.601911 50.6128 0.442291 50.4474 0.329809C50.282 0.217326 50.0865 0.157179 49.8865 0.157179C49.6865 0.157179 49.4911 0.217326 49.3257 0.329809C49.1603 0.442291 49.0325 0.601911 48.959 0.787937L47.1239 5.3757L46.0069 5.8245C44.9121 3.25248 42.8744 1.19699 40.3121 0.0798255C40.1593 0.0161246 39.9935 -0.00988063 39.8286 0.00400647C39.6637 0.0178936 39.5045 0.0712651 39.3646 0.159613C39.2268 0.251728 39.1138 0.376328 39.0355 0.522426C38.9573 0.668525 38.9161 0.831636 38.9158 0.997378V10.6317L35.9238 12.8757L32.9317 10.6317V0.997378C32.9314 0.831636 32.8903 0.668525 32.812 0.522426C32.7337 0.376328 32.6207 0.251728 32.4829 0.159613C32.3431 0.0710291 32.1839 0.0175178 32.019 0.00362685C31.854 -0.0102641 31.6882 0.015876 31.5355 0.0798255C29.8214 0.828527 28.3271 2.00306 27.1948 3.49184C26.0624 4.98062 25.3295 6.73419 25.0657 8.58598C24.8018 10.4378 25.0159 12.3263 25.6874 14.072C26.3589 15.8178 27.4657 17.3629 28.9025 18.5605C29.2307 18.8367 29.4939 19.1819 29.6732 19.5715C29.8525 19.9612 29.9435 20.3856 29.9397 20.8145V25.0931H27.6059C26.9506 25.0916 26.3014 25.2195 25.6955 25.4693C25.0897 25.7192 24.5391 26.0862 24.0754 26.5492L19.4278 31.1968C19.1517 31.4767 18.8224 31.6985 18.4593 31.8493C18.0961 32 17.7065 32.0766 17.3134 32.0745H15.977V30.0798C15.977 29.8153 15.8719 29.5616 15.6849 29.3746C15.4978 29.1875 15.2441 29.0825 14.9796 29.0825H1.01687C0.75236 29.0825 0.498683 29.1875 0.311645 29.3746C0.124608 29.5616 0.0195313 29.8153 0.0195312 30.0798V59.0027C0.0195313 59.2672 0.124608 59.5208 0.311645 59.7079C0.498683 59.8949 0.75236 60 1.01687 60H14.9796C15.2441 60 15.4978 59.8949 15.6849 59.7079C15.8719 59.5208 15.977 59.2672 15.977 59.0027V57.008H17.6425C18.2897 57.0093 18.9192 57.2191 19.4377 57.6064L21.2928 59.0027C22.1562 59.6495 23.2059 59.9994 24.2848 60H43.9025C44.6256 59.9999 45.3352 59.8032 45.9552 59.431C46.5752 59.0587 47.0823 58.525 47.4224 57.8868C47.7625 57.2486 47.9227 56.53 47.886 55.8078C47.8492 55.0856 47.6168 54.3869 47.2136 53.7866C47.7802 53.5971 48.2955 53.2798 48.7196 52.859C49.0918 52.4876 49.3866 52.046 49.5869 51.5598C49.7872 51.0736 49.8891 50.5524 49.8865 50.0266C49.8832 49.0884 49.5435 48.1824 48.9291 47.4734C49.2149 47.3064 49.4794 47.1055 49.717 46.875C50.1466 46.4457 50.4722 45.9238 50.6691 45.3493C50.866 44.7748 50.9288 44.1628 50.8527 43.5603C50.7767 42.9577 50.5638 42.3806 50.2304 41.873C49.897 41.3654 49.4518 40.9408 48.9291 40.6317C49.4246 40.0535 49.7437 39.3453 49.8484 38.5911C49.953 37.8369 49.8389 37.0685 49.5196 36.3772C49.2002 35.686 48.6891 35.101 48.0469 34.6919C47.4047 34.2827 46.6586 34.0666 45.8972 34.0692H41.9078V20.8145C41.904 20.3856 41.9951 19.9612 42.1744 19.5715C42.3537 19.1819 42.6168 18.8367 42.945 18.5605C44.0958 17.6039 45.0369 16.4202 45.7096 15.0834C46.3823 13.7466 46.7721 12.2855 46.8546 10.7913L47.1638 10.9209L48.9889 14.631C49.0706 14.7996 49.1981 14.9418 49.3568 15.0413C49.5156 15.1408 49.6992 15.1936 49.8865 15.1936C50.0739 15.1936 50.2574 15.1408 50.4162 15.0413C50.5749 14.9418 50.7025 14.7996 50.7841 14.631L52.6093 10.9209L57.2369 9.06586C57.4229 8.99234 57.5826 8.86458 57.695 8.69917C57.8075 8.53377 57.8677 8.33836 57.8677 8.13833C57.8677 7.9383 57.8075 7.7429 57.695 7.57749C57.5826 7.41209 57.4229 7.28433 57.2369 7.2108ZM13.9823 58.0053H2.01421V31.0771H13.9823V58.0053ZM45.8972 36.0638C46.4262 36.048 46.9398 36.2429 47.3251 36.6058C47.7104 36.9686 47.9358 37.4697 47.9517 37.9987C47.9676 38.5277 47.7726 39.0414 47.4098 39.4267C47.0469 39.812 46.5459 40.0373 46.0168 40.0532H37.9184C37.6539 40.0532 37.4003 40.1583 37.2132 40.3453C37.0262 40.5324 36.9211 40.786 36.9211 41.0505C36.9211 41.3151 37.0262 41.5687 37.2132 41.7558C37.4003 41.9428 37.6539 42.0479 37.9184 42.0479H46.8945C47.4248 42.0479 47.9335 42.2586 48.3085 42.6336C48.6835 43.0086 48.8942 43.5172 48.8942 44.0476C48.8942 44.5779 48.6835 45.0865 48.3085 45.4615C47.9335 45.8365 47.4248 46.0472 46.8945 46.0472H46.8845L37.9184 46.0372C37.6539 46.0372 37.4003 46.1423 37.2132 46.3294C37.0262 46.5164 36.9211 46.7701 36.9211 47.0346C36.9211 47.2991 37.0262 47.5528 37.2132 47.7398C37.4003 47.9268 37.6539 48.0319 37.9184 48.0319L45.9969 48.0419C46.5259 48.0551 47.028 48.278 47.3927 48.6614C47.7575 49.0448 47.9549 49.5574 47.9417 50.0864C47.9285 50.6155 47.7056 51.1176 47.3222 51.4823C46.9388 51.847 46.4262 52.0445 45.8972 52.0313H45.8872L37.9184 52.0213C37.6539 52.0213 37.4003 52.1264 37.2132 52.3134C37.0262 52.5004 36.9211 52.7541 36.9211 53.0186C36.9211 53.2831 37.0262 53.5368 37.2132 53.7238C37.4003 53.9109 37.6539 54.016 37.9184 54.016L43.9922 54.0259C44.4961 54.0712 44.9639 54.3062 45.3011 54.6834C45.6382 55.0606 45.8194 55.5518 45.8079 56.0576C45.7965 56.5634 45.5934 57.0459 45.2396 57.4075C44.8858 57.7691 44.4079 57.9828 43.9025 58.0053H24.2848C23.6376 58.004 23.0081 57.7942 22.4896 57.4069L20.6345 56.0106C19.7711 55.3638 18.7214 55.0139 17.6425 55.0133H15.977V34.0692H17.3134C17.9688 34.0707 18.618 33.9428 19.2238 33.6929C19.8296 33.4431 20.3802 33.0761 20.844 32.613L25.4916 27.9654C25.7677 27.6856 26.097 27.4637 26.4601 27.313C26.8232 27.1623 27.2128 27.0857 27.6059 27.0878H29.9397V33.0718C29.9421 33.8646 30.2581 34.6243 30.8187 35.1849C31.3793 35.7455 32.1389 36.0615 32.9317 36.0638H45.8972ZM41.6684 17.0246C41.1151 17.4883 40.6708 18.0684 40.3674 18.7235C40.064 19.3786 39.9089 20.0926 39.9131 20.8145V34.0692H36.9211V24.0958C36.9211 23.8313 36.816 23.5776 36.629 23.3905C36.442 23.2035 36.1883 23.0984 35.9238 23.0984C35.6593 23.0984 35.4056 23.2035 35.2185 23.3905C35.0315 23.5776 34.9264 23.8313 34.9264 24.0958V34.0692H32.9317C32.6672 34.0692 32.4136 33.9641 32.2265 33.7771C32.0395 33.59 31.9344 33.3363 31.9344 33.0718V20.8145C31.9386 20.0926 31.7835 19.3786 31.4801 18.7235C31.1767 18.0684 30.7325 17.4883 30.1791 17.0246C29.1063 16.132 28.2567 15.0014 27.6979 13.7226C27.139 12.4439 26.8864 11.0523 26.96 9.65874C27.0336 8.26515 27.4314 6.90797 28.1219 5.6952C28.8123 4.48243 29.7763 3.44755 30.9371 2.67291V11.1304C30.9381 11.285 30.9746 11.4373 31.0438 11.5756C31.113 11.714 31.2129 11.8346 31.336 11.9282L35.3254 14.9202C35.4973 15.0513 35.7076 15.1222 35.9238 15.1222C36.14 15.1222 36.3502 15.0513 36.5222 14.9202L40.5115 11.9282C40.6346 11.8346 40.7346 11.714 40.8037 11.5756C40.8729 11.4373 40.9094 11.285 40.9105 11.1304V2.67291C42.3463 3.62913 43.4754 4.97983 44.1618 6.56253L42.5361 7.2108C42.3501 7.28433 42.1905 7.41209 42.078 7.57749C41.9655 7.7429 41.9054 7.9383 41.9054 8.13833C41.9054 8.33836 41.9655 8.53377 42.078 8.69917C42.1905 8.86458 42.3501 8.99234 42.5361 9.06586L44.8898 10.0034C44.8898 10.0532 44.8998 10.0931 44.8998 10.133C44.9022 11.4489 44.6138 12.749 44.0551 13.9403C43.4965 15.1317 42.6815 16.1849 41.6684 17.0246ZM51.5122 9.20548C51.2821 9.29811 51.094 9.47202 50.9836 9.69418L49.8865 11.9282L48.7894 9.69418C48.6791 9.47202 48.491 9.29811 48.2609 9.20548L45.588 8.13833L45.7276 8.08846C45.7276 8.07849 45.7276 8.07849 45.7376 8.07849C45.7476 8.07849 45.7476 8.06852 45.7575 8.06852L48.2609 7.07118C48.3881 7.02283 48.5037 6.94806 48.6 6.85179C48.6962 6.75552 48.771 6.63994 48.8194 6.51267L49.8865 3.8398L50.9537 6.51267C51.002 6.63994 51.0768 6.75552 51.1731 6.85179C51.2693 6.94806 51.3849 7.02283 51.5122 7.07118L54.1851 8.13833L51.5122 9.20548Z" fill="#3B82F6"/>
</svg>
