<svg width="45" height="45" viewBox="0 0 45 45" fill="none" xmlns="http://www.w3.org/2000/svg">
<path d="M22.3422 5.71805C22.831 5.71805 23.2273 5.32176 23.2273 4.83292V0.885128C23.2273 0.396291 22.831 0 22.3422 0C21.8533 0 21.457 0.396291 21.457 0.885128V4.83292C21.4571 5.32176 21.8534 5.71805 22.3422 5.71805Z" fill="#3B82F6"/>
<path d="M10.5907 4.97282C10.7635 5.14525 10.9897 5.23138 11.2159 5.23138C11.4427 5.23138 11.6695 5.14473 11.8424 4.9715C12.1877 4.62548 12.1872 4.0651 11.8412 3.71978L8.61582 0.500856C8.26989 0.15554 7.70942 0.15598 7.3641 0.502086C7.01879 0.848104 7.01932 1.40848 7.36533 1.7538L10.5907 4.97282Z" fill="#3B82F6"/>
<path d="M33.471 5.23135C33.6974 5.23135 33.9238 5.14504 34.0965 4.97252L37.3194 1.7535C37.6653 1.4081 37.6656 0.847632 37.3201 0.501789C36.9747 0.155947 36.4144 0.155595 36.0684 0.501086L32.8455 3.7201C32.4997 4.06551 32.4993 4.62597 32.8448 4.97182C33.0177 5.14487 33.2444 5.23135 33.471 5.23135Z" fill="#3B82F6"/>
<path d="M43.9783 30.4086L42.4147 28.8493C41.8585 28.2938 41.1171 27.9877 40.3272 27.9877C39.8221 27.9877 39.3372 28.1134 38.9075 28.3489L35.9609 25.4058L36.1045 25.2625C37.2998 24.0647 37.2994 22.1184 36.1044 20.9247C35.6773 20.4969 35.1445 20.2116 34.5636 20.0916C34.6436 19.8155 34.6857 19.5263 34.6857 19.2304C34.6857 18.4082 34.3663 17.6373 33.7882 17.0615C33.361 16.6337 32.8282 16.3484 32.2474 16.2283C32.3274 15.9522 32.3695 15.6632 32.3695 15.3672C32.3695 14.5449 32.0501 13.774 31.471 13.1974C31.0336 12.7606 30.496 12.4841 29.9315 12.3664C30.2335 11.3252 29.9755 10.1537 29.1563 9.33317C28.4745 8.65422 27.5493 8.36243 26.6576 8.457L20.8188 7.3518C19.9283 7.18288 18.8162 7.07117 18.1142 7.71144C18.0699 7.75187 18.0248 7.79836 17.9803 7.85013C16.8919 7.4534 15.6224 7.68964 14.7508 8.56027C14.1726 9.13779 13.8541 9.9084 13.8541 10.7302C13.8541 11.0262 13.896 11.3152 13.9759 11.5914C13.3957 11.7113 12.8635 11.9963 12.4379 12.4227C11.8585 12.9997 11.539 13.7694 11.5384 14.5902C11.5381 14.8869 11.5802 15.177 11.6606 15.4538C11.0801 15.5735 10.5475 15.8579 10.1206 16.2844C9.54121 16.8631 9.22217 17.6342 9.22217 18.4555C9.22217 19.0846 9.40999 19.6839 9.75803 20.1902C9.31859 20.3391 8.91606 20.5871 8.579 20.9238C7.38284 22.1184 7.3824 24.0648 8.5798 25.2643L8.72279 25.4067L5.77588 28.3483C4.6807 27.8326 3.33134 28.0258 2.42758 28.9284L0.86298 30.4886C0.306468 31.0444 8.78888e-05 31.7859 0 32.5762C0 33.3667 0.306468 34.1082 0.86298 34.6641L2.81561 36.6144C3.16145 36.9599 3.72192 36.9595 4.06732 36.6137C4.41281 36.2678 4.41246 35.7074 4.06662 35.362L2.11399 33.4117C1.89233 33.1903 1.77026 32.8936 1.77026 32.5763C1.77026 32.2591 1.89233 31.9625 2.11346 31.7417L3.67815 30.1814C4.06908 29.7909 4.66742 29.7327 5.12181 30.0044C5.1538 30.0524 5.1908 30.0981 5.23316 30.1406C5.30901 30.2166 5.39558 30.2749 5.48751 30.3175L14.4603 39.2772C14.503 39.3701 14.5615 39.4575 14.6379 39.534C14.7122 39.6084 14.7971 39.666 14.8871 39.7083C15.0768 39.9229 15.1817 40.1969 15.1817 40.4892C15.1817 40.8065 15.0596 41.1031 14.8379 41.3245L13.2748 42.8858C12.813 43.3456 12.0617 43.3455 11.6012 42.8872L9.64861 40.9344C9.30295 40.5887 8.74257 40.5887 8.3969 40.9344C8.05123 41.2801 8.05123 41.8404 8.3969 42.1861L10.3509 44.1403C10.9261 44.7131 11.6814 44.9993 12.4371 44.9993C13.1929 44.9993 13.9491 44.7126 14.5249 44.1393L16.089 42.5771C16.6455 42.0212 16.952 41.2798 16.952 40.4892C16.952 39.9251 16.7951 39.3863 16.5034 38.9217L19.82 35.6092C19.8235 35.6056 19.827 35.602 19.8306 35.5984C20.2104 35.2058 21.268 35.2793 22.2907 35.3503C23.0174 35.4008 23.8275 35.457 24.6191 35.3658L28.251 38.9934C28.0157 39.4223 27.8901 39.9066 27.8901 40.4109C27.8901 41.2006 28.1966 41.9416 28.7531 42.4975L30.3172 44.0597C30.8734 44.6153 31.6148 44.9213 32.4047 44.9213C33.1946 44.9213 33.9359 44.6153 34.4921 44.0597L43.979 34.5844C44.5355 34.0286 44.8419 33.2872 44.8419 32.4967C44.8418 31.7063 44.5354 30.9649 43.9783 30.4086ZM20.4892 9.09112L24.3288 9.81787L22.0306 12.1152C21.6751 11.9443 21.1878 11.6257 20.6533 11.1143C19.9216 10.4144 19.3982 9.60624 19.3506 9.10219C19.3505 9.10193 19.3505 9.10167 19.3505 9.1014C19.3505 9.10132 19.3504 9.10123 19.3504 9.10114C19.347 9.06493 19.3461 9.03601 19.3465 9.01395C19.4623 8.98583 19.7697 8.95463 20.4892 9.09112ZM16.0017 9.81278C16.4502 9.36481 17.1468 9.31313 17.6534 9.65624C17.9406 10.8601 18.9676 11.9513 19.4296 12.3934C19.772 12.721 20.8707 13.7034 21.9797 13.9733C22.1297 14.1884 22.2114 14.4448 22.2114 14.7153C22.2114 15.0638 22.0773 15.3896 21.8331 15.6336C21.5895 15.8775 21.2632 16.0118 20.9141 16.0118C20.5649 16.0118 20.2386 15.8775 19.9939 15.6324L19.9938 15.6323L19.9934 15.6319L16.0017 11.6474C15.7583 11.4044 15.6243 11.0786 15.6243 10.7302C15.6243 10.3817 15.7584 10.0559 16.0017 9.81278ZM13.6889 13.6752C13.9324 13.4313 14.2584 13.297 14.6069 13.297C14.956 13.297 15.283 13.4316 15.5281 13.6765L18.7424 16.8843C19.2485 17.3913 19.2485 18.2162 18.7441 18.7214C18.4993 18.9653 18.1718 19.0995 17.8221 19.0995C17.4724 19.0995 17.1449 18.9653 16.9011 18.7224L16.901 18.7223L14.4625 16.2844C14.4588 16.2806 14.4546 16.2771 14.4508 16.2732L13.6879 15.5107C13.4431 15.2662 13.3084 14.9398 13.3087 14.5916C13.309 14.2445 13.4433 13.9197 13.6889 13.6752ZM11.3716 17.5369C11.6153 17.2935 11.942 17.1595 12.2916 17.1595C12.6383 17.1595 12.9622 17.2916 13.2049 17.5307L15.6508 19.9755C15.8947 20.2185 16.0291 20.5439 16.0291 20.892C16.0291 21.2399 15.8947 21.5654 15.6498 21.8092C15.4062 22.0525 15.0799 22.1866 14.7309 22.1866C14.3813 22.1866 14.054 22.0522 13.81 21.8092L12.9233 20.9236C12.9231 20.9233 12.9228 20.9232 12.9226 20.923L11.3717 19.3739C11.1272 19.1296 10.9925 18.8034 10.9925 18.4553C10.9925 18.1074 11.1272 17.781 11.3716 17.5369ZM9.83001 22.1762C10.0748 21.9317 10.4019 21.797 10.7511 21.797C11.1002 21.797 11.4272 21.9316 11.6719 22.1759L12.5598 23.0628C12.8038 23.3057 12.9381 23.6312 12.9381 23.9792C12.9381 24.3273 12.8037 24.6526 12.558 24.8975C12.3145 25.1414 11.9881 25.2758 11.639 25.2758C11.2898 25.2758 10.9635 25.1415 10.7182 24.8957L10.607 24.785C10.6055 24.7835 10.6044 24.7819 10.603 24.7805C10.6013 24.7789 10.5996 24.7775 10.5979 24.7759L9.83089 24.0119C9.32474 23.5047 9.3243 22.6813 9.83001 22.1762ZM27.8678 32.2358C27.5223 31.8898 26.9618 31.8896 26.6161 32.235L25.8286 33.0215C25.0803 33.7698 23.7244 33.6756 22.4132 33.5846C20.9893 33.4856 19.5169 33.3835 18.5641 34.3617L15.3039 37.618L7.15107 29.4771L10.0363 26.5971C10.5132 26.8894 11.0634 27.0461 11.6392 27.0461C12.4618 27.0461 13.2331 26.7272 13.8092 26.1501C14.3892 25.5725 14.7086 24.8016 14.7086 23.9793C14.7086 23.9717 14.7081 23.9641 14.7081 23.9565C14.7158 23.9565 14.7234 23.957 14.731 23.957C15.5525 23.957 16.3232 23.6391 16.9001 23.0629C17.48 22.4853 17.7995 21.7143 17.7995 20.8921C17.7995 20.8845 17.799 20.8769 17.799 20.8693C17.8067 20.8693 17.8145 20.8698 17.8223 20.8698C18.6434 20.8698 19.4146 20.5523 19.9953 19.9739C20.5982 19.37 20.8964 18.5749 20.8907 17.7816C20.8986 17.7817 20.9066 17.7821 20.9145 17.7821C21.737 17.782 22.5082 17.4632 23.0852 16.8852C23.6635 16.3077 23.982 15.5371 23.982 14.7153C23.982 14.1406 23.8257 13.5912 23.5343 13.1153L26.0632 10.5875C26.2516 10.3999 26.484 10.2821 26.7275 10.2335C26.7539 10.2307 26.7799 10.2265 26.8057 10.2214C27.1964 10.1675 27.6068 10.2881 27.9056 10.5857C28.4117 11.0927 28.4117 11.9176 27.9074 12.4228L27.1373 13.1898C27.1347 13.1924 27.132 13.1947 27.1294 13.1972L26.2424 14.0828C25.8964 14.4282 25.8961 14.9886 26.2416 15.3345C26.5872 15.6804 27.1475 15.6807 27.4933 15.3353L28.2665 14.5631C28.2667 14.5629 28.2669 14.5627 28.2671 14.5626L28.384 14.4461C28.8915 13.9432 29.7138 13.9443 30.2208 14.4506C30.4648 14.6935 30.5992 15.019 30.5992 15.367C30.5992 15.7149 30.4648 16.0404 30.2189 16.2853L29.4443 17.0614C29.4443 17.0615 29.4442 17.0616 29.4441 17.0618L28.5571 17.9451C28.2107 18.2901 28.2096 18.8506 28.5546 19.1968C28.8995 19.5432 29.4599 19.5443 29.8063 19.1994L30.6973 18.312C30.9408 18.068 31.2672 17.9337 31.6162 17.9337C31.9654 17.9337 32.2918 18.068 32.5371 18.3137C32.7811 18.5567 32.9154 18.8822 32.9154 19.2302C32.9154 19.5782 32.7811 19.9036 32.5357 20.148L30.9915 21.6928C30.646 22.0386 30.646 22.5989 30.9917 22.9445C31.1646 23.1173 31.391 23.2036 31.6175 23.2036C31.8441 23.2036 32.0706 23.1171 32.2434 22.9442L33.0002 22.1872C33.0045 22.183 33.0092 22.1794 33.0135 22.1751C33.257 21.9312 33.5834 21.7969 33.9325 21.7969C34.2817 21.7969 34.608 21.9312 34.8524 22.176C35.358 22.6811 35.3576 23.5046 34.8524 24.0107L34.0829 24.7793C34.0827 24.7795 34.0823 24.7798 34.0821 24.7801C34.0818 24.7803 34.0815 24.7807 34.0813 24.7809L32.86 26.0008C32.5141 26.3462 32.5138 26.9067 32.8592 27.2526C33.032 27.4256 33.2588 27.5122 33.4855 27.5122C33.7118 27.5122 33.9382 27.4259 34.111 27.2533L34.7084 26.6567L37.5715 29.5165L29.4194 37.6587L26.4985 34.7413C26.7021 34.6103 26.897 34.4564 27.0799 34.2735L27.8669 33.4874C28.2129 33.1421 28.2133 32.5816 27.8678 32.2358ZM42.7279 33.3319L33.241 42.8072C33.0191 43.0289 32.7221 43.1509 32.4046 43.1509C32.0872 43.1509 31.7901 43.0289 31.5681 42.8071L30.0039 41.2449C29.7823 41.0236 29.6602 40.7274 29.6602 40.4109C29.6602 40.0945 29.7823 39.7983 30.0039 39.5769L39.4907 30.1017C39.7127 29.8799 40.0097 29.7578 40.3273 29.7578C40.6447 29.7578 40.9418 29.8799 41.1643 30.1022L42.7279 31.6614C42.9496 31.8828 43.0717 32.1793 43.0717 32.4966C43.0716 32.814 42.9495 33.1106 42.7279 33.3319Z" fill="#0A0A0A"/>
<path d="M5.44142 38.0732C5.09874 38.4218 5.10349 38.9822 5.45214 39.3249L5.45469 39.3274C5.62669 39.4965 5.85002 39.5807 6.07325 39.5807C6.30238 39.5807 6.53151 39.492 6.70509 39.3154C7.04777 38.9669 7.0417 38.4052 6.69313 38.0625C6.34465 37.7198 5.78428 37.7246 5.44142 38.0732Z" fill="#0A0A0A"/>
<path d="M30.0358 30.9603C30.1705 30.9603 30.307 30.9297 30.4353 30.8651C30.8717 30.6449 31.0471 30.1127 30.827 29.6762C30.6068 29.2397 30.0745 29.0643 29.6381 29.2845L29.6332 29.2869C29.1967 29.5071 29.0239 30.0381 29.2439 30.4746C29.3993 30.7829 29.7119 30.9603 30.0358 30.9603Z" fill="#0A0A0A"/>
</svg>
