<svg width="45" height="45" viewBox="0 0 45 45" fill="none" xmlns="http://www.w3.org/2000/svg">
<path d="M36.0001 29.4155C35.9021 29.3176 35.7858 29.2398 35.6579 29.1868C35.5299 29.1338 35.3927 29.1065 35.2542 29.1065C35.1156 29.1065 34.9785 29.1338 34.8505 29.1868C34.7225 29.2398 34.6062 29.3176 34.5083 29.4155L33.8776 30.0462L30.5812 26.7498C32.2896 24.3693 33.3513 21.5864 33.6628 18.673C33.9742 15.7595 33.5247 12.815 32.3581 10.1272L37.2064 4.28161V6.73965C37.2064 7.01941 37.3175 7.28772 37.5153 7.48554C37.7132 7.68336 37.9815 7.7945 38.2612 7.7945C38.541 7.7945 38.8093 7.68336 39.0071 7.48554C39.2049 7.28772 39.3161 7.01941 39.3161 6.73965V1.35741C39.3161 1.07764 39.2049 0.809342 39.0071 0.61152C38.8093 0.413699 38.541 0.302564 38.2612 0.302564H32.8786C32.5989 0.302564 32.3306 0.413699 32.1327 0.61152C31.9349 0.809342 31.8238 1.07764 31.8238 1.35741C31.8238 1.63717 31.9349 1.90547 32.1327 2.10329C32.3306 2.30111 32.5989 2.41225 32.8786 2.41225H36.0155L31.3023 8.09521C30.6035 6.94764 29.77 5.88771 28.8196 4.93798C22.2356 -1.64599 11.5222 -1.64599 4.93805 4.93798C-1.6461 11.522 -1.64593 22.2354 4.93805 28.8195C7.77562 31.6497 11.526 33.3803 15.5207 33.7029C19.5154 34.0255 23.4949 32.9191 26.7498 30.5808L30.0462 33.8772L29.4154 34.5079C29.3174 34.6059 29.2397 34.7222 29.1867 34.8502C29.1337 34.9781 29.1064 35.1153 29.1064 35.2538C29.1064 35.3924 29.1337 35.5295 29.1867 35.6575C29.2397 35.7855 29.3174 35.9018 29.4154 35.9997L37.0542 43.6386C37.9281 44.5104 39.1121 45 40.3465 45C41.5809 45 42.7649 44.5104 43.6388 43.6386C44.5094 42.7641 44.9982 41.5802 44.9982 40.3463C44.9982 39.1123 44.5094 37.9286 43.6388 37.0541L36.0001 29.4155ZM6.42977 6.4297C8.05572 4.80399 10.0386 3.5801 12.2206 2.85536C14.4027 2.13062 16.7238 1.92503 18.9993 2.25493C21.2747 2.58484 23.4418 3.44115 25.3282 4.75575C27.2146 6.07036 28.7683 7.80699 29.8656 9.82753L26.0046 14.483L14.7705 8.49676C14.5659 8.38774 14.3311 8.34915 14.1024 8.38695C13.8737 8.42475 13.6638 8.53684 13.5052 8.70588L2.53107 20.4007C1.92559 17.9333 1.96626 15.3514 2.64916 12.9042C3.33206 10.457 4.63414 8.22714 6.42977 6.4297ZM6.42977 27.3278C5.09344 25.994 4.02662 24.4152 3.28766 22.6777L14.4909 10.7385L25.7714 16.7492C25.9858 16.8635 26.233 16.9002 26.4713 16.8533C26.7096 16.8064 26.9244 16.6787 27.0795 16.4918L30.8197 11.982C31.7404 14.6093 31.9012 17.4431 31.2835 20.1578C30.6658 22.8724 29.2947 25.3576 27.3279 27.328C21.5662 33.0894 12.1914 33.0894 6.42977 27.3278ZM28.3875 29.2353C28.5331 29.0995 28.6775 28.9618 28.8196 28.8198C28.9616 28.6778 29.0993 28.5333 29.2352 28.3876L32.3858 31.5382L31.538 32.3859L28.3875 29.2353ZM38.5465 42.1474L31.6532 35.2541L35.2541 31.6532L42.1475 38.5465C42.621 39.0249 42.8859 39.6712 42.8842 40.3443C42.8825 41.0174 42.6143 41.6624 42.1384 42.1384C41.6624 42.6143 41.0174 42.8824 40.3443 42.8841C39.6712 42.8858 39.0248 42.6209 38.5465 42.1474Z" fill="#0A0A0A"/>
<path d="M37.1909 4.28178L32.3426 10.1274L30.8043 11.9821L27.064 16.4919C26.909 16.6789 26.6941 16.8066 26.4558 16.8535C26.2175 16.9004 25.9703 16.8636 25.756 16.7494L14.4754 10.7386L3.27221 22.6779L2.51562 20.4009L13.4898 8.70605C13.6484 8.53701 13.8583 8.42492 14.087 8.38712C14.3157 8.34932 14.5505 8.38791 14.755 8.49693L25.9891 14.4832L29.8501 9.8277L31.2869 8.09538L36 2.41242H32.8632C32.5834 2.41242 32.3151 2.30128 32.1173 2.10346C31.9195 1.90564 31.8083 1.63734 31.8083 1.35758C31.8083 1.07782 31.9195 0.809512 32.1173 0.611691C32.3151 0.413869 32.5834 0.302734 32.8632 0.302734H38.2458C38.5255 0.302734 38.7938 0.413869 38.9917 0.611691C39.1895 0.809512 39.3006 1.07782 39.3006 1.35758V6.73982C39.3006 7.01958 39.1895 7.28789 38.9917 7.48571C38.7938 7.68353 38.5255 7.79467 38.2458 7.79467C37.966 7.79467 37.6977 7.68353 37.4999 7.48571C37.3021 7.28789 37.1909 7.01958 37.1909 6.73982V4.28178Z" fill="#3B82F6"/>
</svg>
