<svg width="48" height="45" viewBox="0 0 48 45" fill="none" xmlns="http://www.w3.org/2000/svg">
<path d="M12.7215 28.6295C13.1656 28.3734 13.3176 27.8049 13.0614 27.3608C12.8049 26.9171 12.2367 26.7647 11.7927 27.0208C11.3486 27.2773 11.1962 27.8459 11.4527 28.2896C11.7088 28.7337 12.2774 28.8861 12.7215 28.6295Z" fill="#0A0A0A"/>
<path d="M9.8444 29.2184C9.58789 28.7744 9.01972 28.622 8.57564 28.8785L6.96691 29.8073C6.52355 30.0634 5.95429 29.9107 5.69814 29.4673C5.44163 29.0232 4.87346 28.8709 4.42937 29.1274C3.98529 29.3839 3.83291 29.9521 4.08942 30.3961C4.85387 31.7204 6.5591 32.1874 7.89572 31.416L9.50444 30.4872C9.94853 30.2307 10.1009 29.6629 9.8444 29.2184Z" fill="#0A0A0A"/>
<path d="M8.9151 35.0395L13.5925 43.1415C14.6019 44.8917 16.8724 45.5397 18.668 44.5017C20.4447 43.4749 21.0553 41.2048 20.0274 39.4266L17.241 34.5997L19.6541 33.2065C20.0982 32.9496 20.2506 32.3818 19.994 31.9377L18.7862 29.8457C18.9303 29.8178 19.8772 29.632 36.5765 26.3562C38.641 26.2441 39.8778 23.9863 38.8351 22.1813L35.7482 16.8348L37.7209 13.847C37.9146 13.5531 37.9262 13.1754 37.7503 12.8707L35.8926 9.65322C35.7167 9.34846 35.3825 9.16995 35.0324 9.19063L31.459 9.40505L28.0322 3.46939C27.5359 2.60951 26.6466 2.08887 25.654 2.07653C25.642 2.07617 25.6304 2.07617 25.6184 2.07617C24.6591 2.07617 23.7884 2.55364 23.2725 3.3609L11.1392 18.8176L3.25118 23.3717C0.14874 25.1622 -0.925921 29.1422 0.871469 32.253C2.51357 35.0975 5.97556 36.2164 8.9151 35.0395ZM18.4191 40.3558C18.9321 41.2432 18.6284 42.3789 17.7384 42.893C16.8455 43.4093 15.7085 43.0922 15.2012 42.2131L10.5572 34.1683L13.7747 32.3107C19.1494 41.6213 18.3327 40.2067 18.4191 40.3558ZM16.3122 32.9906L15.3834 31.3819L16.9921 30.4531L17.9209 32.0618L16.3122 32.9906ZM34.5709 11.0791L35.8545 13.3024L34.7099 15.036L32.4974 11.2035L34.5709 11.0791ZM24.826 4.37933C25.0753 3.97152 25.4708 3.92944 25.6311 3.93379C25.7897 3.9356 26.1848 3.98495 26.4231 4.39783L37.2264 23.1101C37.5783 23.7192 37.1505 24.4851 36.4448 24.5026C36.3182 24.5055 36.2598 24.5283 35.9355 24.5889L24.5078 4.79548C24.7477 4.48708 24.7785 4.45733 24.826 4.37933ZM23.2717 6.3701L34.0085 24.967L17.8045 28.1452L12.8774 19.6114L23.2717 6.3701ZM2.4802 31.3242C2.07239 30.6185 1.85688 29.8174 1.85688 29.0069C1.85688 27.3503 2.74723 25.8076 4.17999 24.9804L11.4193 20.8007L16.0633 28.8444L8.82403 33.0244C6.60614 34.3044 3.76057 33.5417 2.4802 31.3242Z" fill="#0A0A0A"/>
<path d="M46.1764 4.06282L41.0008 6.94285C40.5527 7.19247 40.3913 7.7581 40.6409 8.20618C40.8898 8.65389 41.455 8.81607 41.9042 8.56609L47.0794 5.68606C47.5278 5.43644 47.6889 4.87081 47.4393 4.42273C47.1901 3.97429 46.6244 3.8132 46.1764 4.06282Z" fill="#3B82F6"/>
<path d="M45.6333 13.6828L42.0447 12.7214C41.5491 12.5886 41.0397 12.8824 40.9069 13.3781C40.7741 13.8737 41.0683 14.3827 41.5639 14.5155L45.1529 15.4769C45.6514 15.6108 46.1583 15.3122 46.2903 14.8202C46.4231 14.3246 46.1289 13.8152 45.6333 13.6828Z" fill="#3B82F6"/>
<path d="M36.6116 0.688597L35.6491 4.27757C35.5163 4.77318 35.8102 5.28221 36.3058 5.41536C36.801 5.54779 37.3104 5.25464 37.4436 4.75867L38.4058 1.16969C38.5386 0.674085 38.2447 0.164691 37.7491 0.0319003C37.2538 -0.10089 36.7444 0.192991 36.6116 0.688597Z" fill="#3B82F6"/>
</svg>
