<svg width="27" height="45" viewBox="0 0 27 45" fill="none" xmlns="http://www.w3.org/2000/svg">
<path d="M22.2695 0H4.69251C3.44841 0.00140123 2.25567 0.49624 1.37595 1.37595C0.49624 2.25567 0.00140123 3.44841 0 4.69251V40.3075C0.00140123 41.5516 0.49624 42.7443 1.37595 43.624C2.25567 44.5038 3.44841 44.9986 4.69251 45H22.2695C23.5136 44.9986 24.7063 44.5038 25.586 43.624C26.4657 42.7443 26.9606 41.5516 26.962 40.3075V4.69251C26.9606 3.44841 26.4657 2.25567 25.586 1.37595C24.7063 0.49624 23.5136 0.00140123 22.2695 0V0ZM18.7638 1.68449V2.77315C18.7634 2.99305 18.6759 3.20383 18.5203 3.35927C18.3648 3.51472 18.154 3.60215 17.9341 3.60241H9.03032C8.81047 3.60215 8.59969 3.5147 8.44423 3.35924C8.28877 3.20378 8.20132 2.99301 8.20107 2.77315V1.68449H18.7638ZM25.277 40.3075C25.2761 41.105 24.9589 41.8696 24.395 42.4335C23.8311 42.9974 23.0665 43.3146 22.269 43.3155H4.69251C3.89501 43.3146 3.13043 42.9974 2.56651 42.4335C2.00259 41.8696 1.68538 41.105 1.68449 40.3075V4.69251C1.68538 3.89501 2.00259 3.13043 2.56651 2.56651C3.13043 2.00259 3.89501 1.68538 4.69251 1.68449H6.51465V2.77315C6.51542 3.43961 6.7805 4.07854 7.25176 4.5498C7.72301 5.02105 8.36194 5.28613 9.0284 5.2869H17.9321C18.5986 5.28613 19.2376 5.02106 19.7089 4.54983C20.1803 4.07859 20.4455 3.43965 20.4464 2.77315V1.68449H22.2695C23.0669 1.68551 23.8313 2.00277 24.3952 2.56668C24.959 3.13058 25.2761 3.89509 25.277 4.69251V40.3075Z" fill="#0A0A0A"/>
</svg>
