<svg width="46" height="46" viewBox="0 0 46 46" fill="none" xmlns="http://www.w3.org/2000/svg">
<path d="M44.3639 17.9349C43.8419 17.9349 43.42 18.3569 43.42 18.8788V34.9254C43.42 35.4464 42.9971 35.8693 42.4761 35.8693H2.83174C2.3107 35.8693 1.88783 35.4464 1.88783 34.9254V8.4958C1.88783 7.97476 2.3107 7.55189 2.83174 7.55189H16.9904C17.5124 7.55189 17.9343 7.12996 17.9343 6.60798C17.9343 6.08599 17.5124 5.66406 16.9904 5.66406H2.83174C1.27051 5.66406 0 6.93457 0 8.4958V34.9254C0 36.4866 1.27051 37.7571 2.83174 37.7571H42.4761C44.0373 37.7571 45.3078 36.4866 45.3078 34.9254V18.8788C45.3078 18.3569 44.8859 17.9349 44.3639 17.9349Z" fill="#0A0A0A"/>
<path d="M30.2067 43.4202H28.3188V40.5884C28.3188 40.0665 27.8969 39.6445 27.3749 39.6445C26.8529 39.6445 26.431 40.0665 26.431 40.5884V43.4202H18.8797V40.5884C18.8797 40.0665 18.4578 39.6445 17.9358 39.6445C17.4138 39.6445 16.9919 40.0665 16.9919 40.5884V43.4202H15.1041C14.5821 43.4202 14.1602 43.8421 14.1602 44.3641C14.1602 44.8861 14.5821 45.308 15.1041 45.308H30.2067C30.7287 45.308 31.1506 44.8861 31.1506 44.3641C31.1506 43.8421 30.7287 43.4202 30.2067 43.4202Z" fill="#0A0A0A"/>
<path d="M14.1588 29.2617C13.6368 29.2617 13.2148 29.6836 13.2148 30.2056C13.2148 30.7276 13.6368 31.1495 14.1588 31.1495H38.7005C39.2225 31.1495 39.6444 30.7276 39.6444 30.2056C39.6444 29.6836 39.2225 29.2617 38.7005 29.2617H14.1588Z" fill="#0A0A0A"/>
<path d="M6.60797 29.2617C6.08599 29.2617 5.66406 29.6836 5.66406 30.2056C5.66406 30.7276 6.08599 31.1495 6.60797 31.1495H9.43971C9.9617 31.1495 10.3836 30.7276 10.3836 30.2056C10.3836 29.6836 9.9617 29.2617 9.43971 29.2617H6.60797Z" fill="#0A0A0A"/>
<path d="M20.4298 15.3235L21.9362 15.6246C22.0344 15.8936 22.143 16.1569 22.2628 16.4137L21.4114 17.6908C20.9027 18.4535 21.0037 19.4776 21.6521 20.1252L23.2964 21.7685C23.943 22.416 24.9653 22.5199 25.7298 22.0102L27.0135 21.155C27.2722 21.2767 27.5336 21.3862 27.7951 21.4834L28.0962 22.9918C28.2756 23.8904 29.0713 24.5417 29.9878 24.5417H32.3127C33.2292 24.5417 34.024 23.8904 34.2043 22.9909L34.5054 21.4834C34.7744 21.3853 35.0377 21.2767 35.2945 21.1578L36.5725 22.0102C37.3343 22.5161 38.3584 22.4151 39.005 21.7676L40.6493 20.1242C41.2978 19.4757 41.3988 18.4525 40.89 17.6899L40.0348 16.4071C40.1575 16.1485 40.267 15.886 40.3642 15.6255L41.8717 15.3235C42.7693 15.1441 43.4206 14.3494 43.4206 13.4328V11.107C43.4206 10.1914 42.7693 9.39665 41.8698 9.21636L40.3633 8.91525C40.2651 8.64529 40.1566 8.38289 40.0376 8.12614L40.8881 6.84903C41.3969 6.08635 41.2959 5.0622 40.6474 4.41468L39.0031 2.77133C38.3565 2.12475 37.3343 2.01997 36.5697 2.52969L35.286 3.38487C35.0274 3.26311 34.7659 3.15361 34.5044 3.05639L34.2033 1.54802C34.024 0.6513 33.2283 0 32.3117 0H29.9869C29.0703 0 28.2756 0.6513 28.0953 1.5499L27.7942 3.05733C27.5308 3.15456 27.2675 3.26405 27.0098 3.38581L25.7279 2.52969C24.9653 2.0228 23.9411 2.12475 23.2955 2.77227L21.6512 4.41562C21.0027 5.06409 20.9017 6.08729 21.4105 6.84997L22.2666 8.13275C22.1458 8.39044 22.0363 8.6519 21.94 8.91431L20.4288 9.21636C19.5302 9.39665 18.8789 10.1924 18.8789 11.108V13.4338C18.8789 14.3484 19.5302 15.1441 20.4298 15.3235ZM20.7998 11.0683L22.8471 10.6587C23.1888 10.5907 23.4663 10.3377 23.5664 10.0036C23.7165 9.50048 23.926 9.00021 24.1865 8.51503C24.3527 8.20826 24.3347 7.83353 24.1412 7.54375L22.9849 5.75126L24.6811 4.10224L26.4198 5.26231C26.7105 5.45676 27.0853 5.47564 27.393 5.30668C27.8763 5.04521 28.3775 4.83566 28.8815 4.68558C29.2166 4.58647 29.4696 4.3099 29.5376 3.96632L29.9878 1.88782L32.3533 1.91992L32.761 3.96443C32.829 4.30707 33.082 4.58364 33.4161 4.68369C33.9098 4.83094 34.4119 5.04144 34.9047 5.30668C35.2114 5.4728 35.5871 5.45487 35.8759 5.26137L37.6684 4.10602L39.3174 5.80223L38.1621 7.53525C37.9676 7.82692 37.9507 8.20071 38.1177 8.50843C38.3688 8.97189 38.5765 9.47499 38.7341 10.0036C38.8342 10.3377 39.1107 10.5898 39.4534 10.6577L41.4979 11.0674L41.5328 11.108L41.4998 13.4734L39.4562 13.8821C39.1136 13.9501 38.837 14.203 38.7369 14.5372C38.5897 15.0299 38.3801 15.5311 38.113 16.0248C37.9469 16.3325 37.9648 16.7073 38.1583 16.997L39.3146 18.7895L37.6184 20.4385L35.8854 19.2822C35.5956 19.0887 35.2209 19.0718 34.9131 19.2369C34.4478 19.489 33.9447 19.6966 33.417 19.8543C33.0829 19.9543 32.8309 20.2309 32.7629 20.5735L32.3117 22.6539L29.9463 22.6209L29.5376 20.5763C29.4696 20.2337 29.2166 19.9571 28.8825 19.8571C28.3888 19.7098 27.8867 19.4993 27.3939 19.2341C27.2542 19.1586 27.0994 19.1208 26.9456 19.1208C26.7625 19.1208 26.5793 19.1746 26.4217 19.2794L24.6292 20.4348L22.9802 18.7385L24.1365 17.0055C24.3309 16.7139 24.3479 16.3401 24.1809 16.0324C23.9279 15.5661 23.7212 15.0639 23.5635 14.5372C23.4635 14.203 23.1869 13.951 22.8443 13.8831L20.7667 13.4328L20.7998 11.0683Z" fill="#3B82F6"/>
<path d="M31.1479 17.9344C34.2713 17.9344 36.8113 15.3943 36.8113 12.2709C36.8113 11.8896 36.7736 11.5082 36.699 11.1391C36.5961 10.6285 36.0987 10.2981 35.5861 10.401C35.0755 10.5048 34.7442 11.0032 34.848 11.5139C34.899 11.7602 34.9235 12.0151 34.9235 12.2709C34.9235 14.3532 33.2301 16.0465 31.1479 16.0465C29.0656 16.0465 27.3722 14.3532 27.3722 12.2709C27.3722 10.1886 29.0656 8.49525 31.1479 8.49525C31.4037 8.49525 31.6576 8.51979 31.9049 8.57076C32.4136 8.67459 32.913 8.34328 33.0177 7.83262C33.1206 7.32196 32.7903 6.82452 32.2796 6.71975C31.9096 6.64518 31.5282 6.60742 31.1479 6.60742C28.0244 6.60742 25.4844 9.14749 25.4844 12.2709C25.4844 15.3943 28.0244 17.9344 31.1479 17.9344Z" fill="#3B82F6"/>
</svg>
