<svg width="49" height="46" viewBox="0 0 49 46" fill="none" xmlns="http://www.w3.org/2000/svg">
<path d="M42.148 0H6.85203C3.53984 0 0 1.84627 0 7.03454V31.3282C0 36.5048 3.53984 38.3628 6.85203 38.3628H19.9187V42.8382H17.7447C17.1642 42.8382 16.6862 43.3173 16.6862 43.925C16.6862 44.5326 17.1528 45.0117 17.7447 45.0117H31.6537C32.2341 45.0117 32.7122 44.5326 32.7122 43.925C32.7122 43.3173 32.2455 42.8382 31.6537 42.8382H29.0813V38.3628H42.148C47.1902 38.3628 49 34.7286 49 31.3282V7.03454C49 1.85796 45.4602 0 42.148 0ZM26.9756 42.8382H22.0244V38.3628H26.9756V42.8382ZM46.8943 31.3282C46.8943 32.7889 46.4276 36.201 42.148 36.201H6.85203C5.42927 36.201 2.10569 35.7219 2.10569 31.3282V29.7858H46.8943V31.3282ZM46.8943 27.624H2.10569V7.06959C2.10569 2.68761 5.42927 2.20852 6.85203 2.20852H42.148C43.5707 2.20852 46.8943 2.68761 46.8943 7.08128V27.6357V27.624Z" fill="#0A0A0A"/>
<path d="M40.1122 5.31612H40.1691L32.304 16.1367L28.6162 11.2172C28.4227 10.9601 28.1268 10.8082 27.8195 10.7965C27.5008 10.7965 27.2048 10.9251 27 11.1588L20.9902 18.1699L16.5853 10.446C16.4032 10.1188 16.0618 9.92012 15.6861 9.92012C15.3219 9.92012 14.9691 10.1188 14.7756 10.4343L7.50241 22.4935C7.1268 22.9492 7.18371 23.6386 7.62761 24.0126C8.07151 24.3982 8.74306 24.3397 9.10729 23.884C9.18696 23.7905 9.24387 23.6854 9.2894 23.5802L15.6065 13.005L19.8179 20.4602C20.1138 20.9744 20.7512 21.1497 21.2634 20.8459C21.3544 20.7874 21.4455 20.7173 21.5138 20.6355L27.6487 13.5893L31.4162 18.614C31.6325 18.8594 31.9398 19.0113 32.2585 19.0346C32.5886 19.0346 32.8959 18.871 33.0894 18.6023L41.7853 6.62487C42.1382 6.14577 42.0357 5.46803 41.5805 5.10578C41.1138 4.74354 40.4536 4.84871 40.1008 5.31612H40.1122Z" fill="#3B82F6"/>
</svg>
