<svg width="100" height="100" viewBox="0 0 100 100" fill="none" xmlns="http://www.w3.org/2000/svg">
<path d="M34.793 40.9388H46.9474V41.89H35.9071V49.0489H46.2891V50.0001H35.9071V57.8599H47.074V58.8111H34.793V40.9388ZM48.0363 40.9388H49.3277L55.0504 48.7986L60.8997 40.9388L68.8558 30.9551L55.7847 49.6246L62.5203 58.8111H61.1783L55.0504 50.4507L48.8972 58.8111H47.5805L54.3667 49.6246L48.0363 40.9388ZM63.0014 41.89V40.9388H76.8525V41.89H70.4714V58.8111H69.3572V41.89H63.0014Z" fill="white"/>
<path d="M19.5859 40.9395H20.9786L40.1831 69.2348L32.2468 58.8117L20.7507 42.2911L20.7001 58.8117H19.5859V40.9395Z" fill="white"/>
<path d="M76.7382 57.5723C76.9685 57.5723 77.1366 57.3986 77.1366 57.1742C77.1366 56.9498 76.9685 56.7761 76.7382 56.7761C76.5106 56.7761 76.3398 56.9498 76.3398 57.1742C76.3398 57.3986 76.5106 57.5723 76.7382 57.5723ZM77.833 56.525C77.833 57.1875 78.3181 57.6203 79.0253 57.6203C79.7787 57.6203 80.234 57.1742 80.234 56.3994V53.6716H79.6269V56.3967C79.6269 56.8269 79.4074 57.0566 79.0199 57.0566C78.6731 57.0566 78.4373 56.8429 78.4292 56.525H77.833ZM81.028 56.4902C81.0713 57.1795 81.6539 57.6203 82.5211 57.6203C83.4479 57.6203 84.0278 57.1581 84.0278 56.4208C84.0278 55.841 83.6972 55.5204 82.8951 55.3361L82.4642 55.2319C81.9547 55.1143 81.7488 54.9567 81.7488 54.6815C81.7488 54.3342 82.0685 54.1071 82.5482 54.1071C83.0035 54.1071 83.3178 54.3289 83.3747 54.6842H83.9655C83.9302 54.035 83.3503 53.5781 82.5563 53.5781C81.7027 53.5781 81.1336 54.035 81.1336 54.7216C81.1336 55.288 81.4561 55.6246 82.1634 55.7876L82.6674 55.9078C83.185 56.028 83.4127 56.2044 83.4127 56.4982C83.4127 56.8402 83.0549 57.0887 82.5672 57.0887C82.0442 57.0887 81.681 56.8563 81.6295 56.4902H81.028Z" fill="white"/>
</svg>
