<svg width="100" height="100" viewBox="0 0 100 100" fill="none" xmlns="http://www.w3.org/2000/svg">
<path fill-rule="evenodd" clip-rule="evenodd" d="M66.3494 40.6962C66.9741 40.8746 67.5808 41.0633 68.1663 41.2626C74.262 43.3388 78.2011 46.5908 78.2011 49.9535C78.2011 53.4603 73.9914 56.8891 67.5212 59.01C67.1793 59.1221 66.8287 59.23 66.4716 59.3344C66.5991 59.8413 66.7126 60.3394 66.8101 60.8269C68.0874 67.2103 67.1036 72.4569 64.0764 74.1907C61.1454 75.8695 56.4079 74.2205 51.6113 70.1367C51.1048 69.7054 50.5956 69.2455 50.0855 68.7595C49.692 69.1358 49.2992 69.4948 48.9078 69.8334C43.9558 74.116 38.8702 75.893 35.84 74.1642C32.9063 72.4901 31.9845 67.6061 33.1649 61.4552C33.2894 60.8062 33.4376 60.1409 33.6081 59.4619C33.0829 59.3129 32.5733 59.1558 32.0821 58.9897C25.8583 56.8851 21.7617 53.4141 21.7617 49.9535C21.7617 46.6029 25.5778 43.3727 31.5532 41.3116C32.2211 41.0813 32.9191 40.8648 33.6421 40.6617C33.4841 40.034 33.3443 39.4165 33.2248 38.8119C31.9868 32.5524 32.8579 27.5501 35.7994 25.8654C38.867 24.1085 43.9756 25.9952 49.0724 30.4725C49.3834 30.7457 49.6952 31.0314 50.0076 31.327C50.4763 30.8802 50.9453 30.4539 51.4129 30.0513C56.276 25.864 61.0913 24.1125 64.0356 25.7924C67.1062 27.5443 68.0054 32.8653 66.6301 39.4702C66.5463 39.8724 66.4521 40.2816 66.3494 40.6962ZM65.8146 57.0397C66.1373 56.9449 66.454 56.8472 66.7626 56.7462C72.3491 54.9147 75.7897 52.1126 75.7897 49.954C75.7897 47.9274 72.6039 45.2974 67.3811 43.5186C66.8411 43.3346 66.2808 43.1603 65.7034 42.995C65.0091 45.2177 64.0824 47.5662 62.9566 49.9656C64.1363 52.4235 65.1003 54.8024 65.8146 57.0397ZM64.7159 68.6603C65.09 66.6652 65.0093 64.1132 64.4445 61.2906C64.3564 60.85 64.2542 60.3993 64.139 59.9398C61.8014 60.4745 59.2237 60.8661 56.4952 61.1056C54.944 63.3273 53.3546 65.3278 51.7643 67.0486C52.2395 67.501 52.7131 67.9285 53.1834 68.3289C57.2855 71.8213 61.0892 73.1454 62.8679 72.1268C63.7037 71.6481 64.3797 70.4529 64.7159 68.6603ZM37.0444 72.0981C37.881 72.5753 39.2651 72.5579 41.0029 71.9508C42.9367 71.275 45.1311 69.9314 47.3209 68.0377C47.6775 67.7291 48.0362 67.4017 48.3962 67.0578C46.7483 65.3081 45.1129 63.3098 43.5513 61.1358C40.8163 60.9165 38.2575 60.5525 35.9454 60.0467C35.7868 60.6792 35.6492 61.298 35.5335 61.9005C34.524 67.1607 35.2641 71.0822 37.0444 72.0981ZM26.2789 53.273C27.8368 54.5928 30.1095 55.8023 32.8616 56.7329C33.3092 56.8842 33.7745 57.0279 34.2547 57.1645C34.9678 54.865 35.9075 52.4507 37.04 50.012C35.9219 47.609 34.9955 45.2326 34.2892 42.9597C33.6156 43.149 32.9666 43.3506 32.3465 43.5645C27.2363 45.3272 24.1724 47.9207 24.1724 49.954C24.1724 50.9094 24.8791 52.0869 26.2789 53.273ZM37.007 27.9303C35.2344 28.9455 34.5299 32.9912 35.5906 38.3542C35.7016 38.9157 35.8317 39.49 35.9786 40.0745C38.3147 39.5509 40.8556 39.1599 43.51 38.9165C45.0578 36.7553 46.6781 34.772 48.318 33.03C48.0348 32.7624 47.7524 32.5038 47.4711 32.2567C43.0705 28.3908 38.8952 26.8488 37.007 27.9303ZM58.2197 41.5093C58.8042 42.4156 59.3776 43.3474 59.936 44.3018C60.5062 45.2763 61.0477 46.2459 61.5597 47.2075C62.2734 45.5543 62.8796 43.9417 63.3661 42.3993C61.7458 42.0335 60.0205 41.7345 58.2197 41.5093ZM53.3293 38.7016C52.2338 37.2576 51.1201 35.9268 50.008 34.7348C48.8785 35.9405 47.7552 37.2696 46.6586 38.7001C47.7557 38.6494 48.865 38.6232 49.9811 38.6232C51.1079 38.6232 52.2254 38.65 53.3293 38.7016ZM38.4232 47.2058C38.9271 46.2397 39.4586 45.2753 40.0164 44.3183V44.3181C40.5758 43.3585 41.1539 42.4198 41.7466 41.5051C39.9573 41.726 38.2401 42.0176 36.6298 42.3741C37.1204 43.9383 37.7211 45.5583 38.4232 47.2058ZM36.5965 57.7457C38.2064 58.0924 39.9494 58.3689 41.7981 58.573C41.1901 57.6396 40.5978 56.6824 40.0261 55.7053H40.026C39.4647 54.7462 38.9311 53.7815 38.4259 52.8161C37.7089 54.499 37.095 56.1536 36.5965 57.7457ZM46.6789 61.3207C47.7921 62.7721 48.932 64.1215 50.0747 65.3413C51.1793 64.1382 52.289 62.7867 53.3881 61.3092C52.2687 61.3585 51.1315 61.3841 49.9811 61.3841C48.8614 61.3841 47.7596 61.3626 46.6789 61.3207ZM63.4779 57.6424C62.973 56.0773 62.3371 54.4314 61.5827 52.7303C61.0665 53.7147 60.5206 54.7025 59.9457 55.6889C59.3774 56.6639 58.799 57.6117 58.2131 58.5303C60.0747 58.3092 61.8415 58.0117 63.4779 57.6424ZM55.1496 58.8192C56.0692 57.4554 56.9749 56.0107 57.8572 54.4972C58.7382 52.9855 59.5493 51.4721 60.2823 49.9773C59.5471 48.5078 58.7342 47.0095 57.8492 45.4971C56.9742 44.0015 56.0631 42.5642 55.1298 41.2012C53.4518 41.0746 51.7284 41.0086 49.9811 41.0086H49.981C48.2415 41.0086 46.5203 41.0741 44.8418 41.1996C43.894 42.5727 42.9767 44.0147 42.1051 45.51L42.1053 45.5097C41.236 47.0011 40.4334 48.5095 39.7045 50.0112C40.4337 51.5095 41.2383 53.0161 42.1127 54.5102H42.1125C42.9891 56.0084 43.9145 57.4574 44.8711 58.8391C46.5163 58.9447 48.2247 58.9987 49.9811 58.9987C51.7446 58.9987 53.4748 58.9377 55.1496 58.8192ZM64.2684 38.9892C65.4559 33.2865 64.7209 28.9377 62.8309 27.8594C61.0566 26.847 57.1622 28.2635 52.9954 31.8511C52.5642 32.2225 52.1311 32.6161 51.6974 33.0289C53.3105 34.7486 54.9176 36.7349 56.4684 38.9199C59.1305 39.167 61.6732 39.5647 64.0148 40.0993C64.1074 39.7237 64.1927 39.353 64.2684 38.9892Z" fill="white"/>
<path d="M49.9813 44.9668C52.7646 44.9668 55.0211 47.1992 55.0211 49.953C55.0211 52.7068 52.7646 54.9393 49.9813 54.9393C47.1979 54.9393 44.9414 52.7068 44.9414 49.953C44.9414 47.1992 47.1979 44.9668 49.9813 44.9668Z" fill="white"/>
</svg>
