<svg width="45" height="45" viewBox="0 0 45 45" fill="none" xmlns="http://www.w3.org/2000/svg">
<path d="M44.7425 8.25434L36.7444 0.257432C36.5796 0.0926367 36.3561 0 36.123 0H10.0195C8.56564 0 7.38281 1.18283 7.38281 2.63672V4.31227C3.06519 6.00592 0 10.2142 0 15.1252C0 15.6105 0.393574 16.0041 0.878906 16.0041H11.6096C12.0949 16.0041 12.4885 15.6105 12.4885 15.1252V4.39453C12.4885 3.9092 12.0949 3.51562 11.6096 3.51562C10.7625 3.51562 9.93665 3.60765 9.14062 3.78079V2.63672C9.14062 2.15209 9.5349 1.75781 10.0195 1.75781H35.2441V7.11914C35.2441 8.57303 36.427 9.75586 37.8809 9.75586H43.2422V42.3633C43.2422 42.8479 42.8479 43.2422 42.3633 43.2422H10.0195C9.5349 43.2422 9.14062 42.8479 9.14062 42.3633V34.834C9.14062 34.3486 8.74705 33.955 8.26172 33.955C7.77639 33.955 7.38281 34.3486 7.38281 34.834V42.3633C7.38281 43.8172 8.56564 45 10.0195 45H42.3633C43.8172 45 45 43.8172 45 42.3633V8.87581C45 8.64272 44.9074 8.41913 44.7425 8.25434ZM10.7306 5.31237V14.2463H1.79666C2.21687 9.51355 5.99792 5.73258 10.7306 5.31237ZM37.8809 7.99805C37.3962 7.99805 37.002 7.60377 37.002 7.11914V3.00059L42.0001 7.99805H37.8809Z" fill="#0A0A0A"/>
<path d="M8.88302 31.0192C8.71963 30.8557 8.49287 30.7617 8.26172 30.7617C8.03057 30.7617 7.80381 30.8557 7.64033 31.0192C7.47686 31.1827 7.38281 31.4095 7.38281 31.6406C7.38281 31.8718 7.47677 32.0985 7.64033 32.2619C7.80381 32.4255 8.03057 32.5195 8.26172 32.5195C8.49287 32.5195 8.71963 32.4255 8.88302 32.2619C9.04658 32.0985 9.14062 31.8718 9.14062 31.6406C9.14062 31.4095 9.04658 31.1827 8.88302 31.0192Z" fill="#0A0A0A"/>
<path d="M14.7579 6.66406C14.2726 6.66406 13.879 7.05764 13.879 7.54297V17.3946H4.02734C3.54201 17.3946 3.14844 17.7882 3.14844 18.2735C3.14844 24.675 8.3564 29.8831 14.7579 29.8831C21.1594 29.8831 26.3675 24.675 26.3675 18.2735C26.3675 11.872 21.1594 6.66406 14.7579 6.66406ZM15.6368 8.46081C17.6943 8.64345 19.5718 9.46171 21.0716 10.717L15.6368 16.1517V8.46081ZM14.7579 28.1253C9.62185 28.1253 5.39105 24.1747 4.94519 19.1524H14.7579C15.0005 19.1524 15.22 19.0542 15.3791 18.8953C15.3792 18.8952 15.3793 18.8952 15.3795 18.895L22.3148 11.9597C23.7467 13.6707 24.6097 15.8732 24.6097 18.2735C24.6097 23.7058 20.1902 28.1253 14.7579 28.1253Z" fill="#0A0A0A"/>
<path d="M38.4991 27.7383C37.0453 27.7383 35.8624 28.9211 35.8624 30.375C35.8624 30.7394 35.9368 31.0866 36.071 31.4026L31.0073 36.4663C30.6594 36.2967 30.2688 36.2014 29.8564 36.2014C29.4538 36.2014 29.0722 36.2924 28.7305 36.4544L25.368 33.0919C25.4846 32.7945 25.5492 32.4711 25.5492 32.1327C25.5492 30.6788 24.3664 29.496 22.9125 29.496C21.4586 29.496 20.2758 30.6788 20.2758 32.1327C20.2758 32.5266 20.3633 32.9004 20.5188 33.2364L17.2937 36.4615C16.9501 36.2972 16.5657 36.205 16.1602 36.205C14.7063 36.205 13.5234 37.3878 13.5234 38.8417C13.5234 40.2956 14.7063 41.4784 16.1602 41.4784C17.614 41.4784 18.7969 40.2956 18.7969 38.8417C18.7969 38.4341 18.7039 38.0479 18.5381 37.7031L21.7453 34.496C22.0974 34.6707 22.4936 34.7694 22.9127 34.7694C23.386 34.7694 23.8301 34.6435 24.2145 34.4243L27.4821 37.692C27.3141 38.0387 27.2197 38.4275 27.2197 38.8381C27.2197 40.292 28.4025 41.4748 29.8564 41.4748C31.3103 41.4748 32.4931 40.292 32.4931 38.8381C32.4931 38.4375 32.403 38.0576 32.2424 37.7173L37.2587 32.7009C37.6287 32.899 38.051 33.0117 38.4991 33.0117C39.953 33.0117 41.1359 31.8289 41.1359 30.375C41.1359 28.9211 39.953 27.7383 38.4991 27.7383ZM16.1601 39.7207C15.6754 39.7207 15.2812 39.3264 15.2812 38.8418C15.2812 38.3571 15.6754 37.9629 16.1601 37.9629C16.3961 37.9629 16.6101 38.0568 16.7681 38.2087C16.7716 38.2124 16.7747 38.2163 16.7783 38.2199C16.7825 38.2242 16.7871 38.2277 16.7914 38.2317C16.9443 38.3899 17.039 38.6049 17.039 38.8418C17.039 39.3263 16.6447 39.7207 16.1601 39.7207ZM22.9125 33.0116C22.4279 33.0116 22.0336 32.6174 22.0336 32.1327C22.0336 31.6481 22.4279 31.2538 22.9125 31.2538C23.3972 31.2538 23.7914 31.6481 23.7914 32.1327C23.7914 32.6174 23.3972 33.0116 22.9125 33.0116ZM29.8562 39.717C29.3716 39.717 28.9773 39.3227 28.9773 38.8381C28.9773 38.3534 29.3716 37.9592 29.8562 37.9592C30.3409 37.9592 30.7351 38.3534 30.7351 38.8381C30.7351 39.3227 30.3409 39.717 29.8562 39.717ZM38.499 31.2538C38.0143 31.2538 37.6201 30.8595 37.6201 30.3749C37.6201 29.8903 38.0144 29.496 38.499 29.496C38.9836 29.496 39.3779 29.8903 39.3779 30.3749C39.3779 30.8595 38.9836 31.2538 38.499 31.2538Z" fill="#3B82F6"/>
<path d="M34.1114 20.6543H29.4727C28.9873 20.6543 28.5938 21.0479 28.5938 21.5332C28.5938 22.0185 28.9872 22.4121 29.4727 22.4121H34.1114C34.5968 22.4121 34.9903 22.0185 34.9903 21.5332C34.9903 21.0479 34.5968 20.6543 34.1114 20.6543Z" fill="#0A0A0A"/>
<path d="M38.7346 20.9118C38.5712 20.7483 38.3444 20.6543 38.1133 20.6543C37.8821 20.6543 37.6554 20.7483 37.4919 20.9118C37.3284 21.0753 37.2344 21.3021 37.2344 21.5332C37.2344 21.7644 37.3283 21.9911 37.4919 22.1545C37.6554 22.318 37.8812 22.4121 38.1133 22.4121C38.3444 22.4121 38.5712 22.3181 38.7346 22.1545C38.8981 21.9911 38.9922 21.7644 38.9922 21.5332C38.9922 21.3021 38.8981 21.0753 38.7346 20.9118Z" fill="#0A0A0A"/>
<path d="M40.2088 12.2168H29.4727C28.9873 12.2168 28.5938 12.6104 28.5938 13.0957C28.5938 13.581 28.9872 13.9746 29.4727 13.9746H40.2088C40.6942 13.9746 41.0878 13.581 41.0878 13.0957C41.0878 12.6104 40.6942 12.2168 40.2088 12.2168Z" fill="#0A0A0A"/>
<path d="M40.2088 16.4355H29.4727C28.9873 16.4355 28.5938 16.8291 28.5938 17.3145C28.5938 17.7998 28.9872 18.1934 29.4727 18.1934H40.2088C40.6942 18.1934 41.0878 17.7998 41.0878 17.3145C41.0878 16.8291 40.6942 16.4355 40.2088 16.4355Z" fill="#0A0A0A"/>
</svg>
