<svg width="48" height="45" viewBox="0 0 48 45" fill="none" xmlns="http://www.w3.org/2000/svg">
<path d="M12.9439 38.5581C12.5142 38.5557 12.0898 38.4636 11.6978 38.2877C11.3058 38.1119 10.9548 37.8561 10.6673 37.5368C10.3798 37.2176 10.1622 36.8418 10.0282 36.4335C9.8943 36.0253 9.84706 35.5936 9.88955 35.1661L10.9185 25.0134L4.1198 17.4024C3.76214 17.001 3.51585 16.5129 3.40544 15.9868C3.29504 15.4606 3.32438 14.9147 3.49053 14.4035C3.65669 13.8922 3.95386 13.4333 4.35248 13.0726C4.75109 12.7118 5.23724 12.4618 5.76253 12.3474L15.7367 10.1874L20.7266 1.61016C21.0121 1.12024 21.4211 0.713741 21.9127 0.431211C22.4043 0.148681 22.9614 0 23.5285 0C24.0955 0 24.6526 0.148681 25.1442 0.431211C25.6359 0.713741 26.0448 1.12024 26.3303 1.61016L31.3236 10.184L41.2989 12.344C41.825 12.4578 42.312 12.7076 42.7114 13.0684C43.1108 13.4293 43.4086 13.8886 43.5751 14.4004C43.7416 14.9123 43.7709 15.4589 43.6601 15.9856C43.5494 16.5124 43.3024 17.0009 42.9439 17.4024L36.1441 25.0134L37.173 35.1661C37.2273 35.7016 37.1401 36.2419 36.9202 36.7332C36.7003 37.2245 36.3554 37.6494 35.9198 37.9657C35.4843 38.282 34.9735 38.4785 34.4383 38.5356C33.9031 38.5927 33.3622 38.5083 32.8698 38.2911L23.5318 34.1764L14.1927 38.2911C13.7998 38.4667 13.3743 38.5577 12.9439 38.5581ZM23.5318 2.24863C23.3571 2.24676 23.1851 2.29165 23.0336 2.37866C22.882 2.46567 22.7565 2.59162 22.6701 2.74347L17.4266 11.7415C17.3482 11.876 17.2427 11.9928 17.1167 12.0844C16.9908 12.1759 16.8472 12.2403 16.695 12.2733L6.23717 14.5388C6.09443 14.569 5.96212 14.6362 5.85352 14.7336C5.74491 14.8311 5.66382 14.9553 5.61836 15.094C5.57291 15.2326 5.56468 15.3808 5.59451 15.5236C5.62434 15.6664 5.69119 15.7989 5.78834 15.9077L12.9181 23.8869C13.0217 24.0029 13.1 24.1393 13.1481 24.2873C13.1962 24.4352 13.213 24.5916 13.1975 24.7464L12.1203 35.3927C12.1057 35.5376 12.1294 35.6838 12.1889 35.8166C12.2485 35.9495 12.3419 36.0644 12.4598 36.1499C12.5776 36.2354 12.7159 36.2885 12.8607 36.3039C13.0055 36.3193 13.1518 36.2965 13.285 36.2376L23.083 31.9244C23.2254 31.8611 23.3794 31.8285 23.5352 31.8285C23.691 31.8285 23.845 31.8611 23.9874 31.9244L33.7787 36.2376C33.9119 36.2965 34.0582 36.3193 34.203 36.3039C34.3478 36.2885 34.486 36.2354 34.6039 36.1499C34.7218 36.0644 34.8152 35.9495 34.8747 35.8166C34.9343 35.6838 34.958 35.5376 34.9434 35.3927L33.8662 24.7464C33.8507 24.5916 33.8675 24.4352 33.9156 24.2873C33.9637 24.1393 34.042 24.0029 34.1456 23.8869L41.2753 15.9066C41.3722 15.7978 41.4388 15.6654 41.4685 15.5227C41.4981 15.38 41.4898 15.2321 41.4444 15.0936C41.399 14.9551 41.318 14.831 41.2096 14.7337C41.1011 14.6363 40.969 14.5691 40.8265 14.5388L30.3676 12.2733C30.2154 12.2403 30.0718 12.1759 29.9458 12.0844C29.8198 11.9928 29.7143 11.876 29.636 11.7415L24.3936 2.73898C24.3066 2.58797 24.1808 2.46292 24.0293 2.37672C23.8779 2.29053 23.7061 2.24631 23.5318 2.24863Z" fill="#0A0A0A"/>
<path d="M23.5322 45.0001C23.2346 45.0001 22.9492 44.8819 22.7388 44.6714C22.5284 44.461 22.4102 44.1756 22.4102 43.878V39.3897C22.4102 39.0921 22.5284 38.8067 22.7388 38.5962C22.9492 38.3858 23.2346 38.2676 23.5322 38.2676C23.8298 38.2676 24.1152 38.3858 24.3257 38.5962C24.5361 38.8067 24.6543 39.0921 24.6543 39.3897V43.878C24.6543 44.1756 24.5361 44.461 24.3257 44.6714C24.1152 44.8819 23.8298 45.0001 23.5322 45.0001Z" fill="#3B82F6"/>
<path d="M45.9418 28.7178C45.824 28.7181 45.7069 28.6996 45.595 28.6628L41.3311 27.2759C41.185 27.2356 41.0486 27.166 40.9301 27.0714C40.8116 26.9769 40.7134 26.8593 40.6416 26.7258C40.5698 26.5923 40.5258 26.4456 40.5123 26.2946C40.4988 26.1436 40.5159 25.9914 40.5628 25.8473C40.6097 25.7031 40.6853 25.5699 40.7851 25.4558C40.8849 25.3417 41.0068 25.2489 41.1434 25.1832C41.28 25.1175 41.4285 25.0801 41.58 25.0734C41.7314 25.0666 41.8827 25.0906 42.0246 25.144L46.2885 26.5309C46.5425 26.6135 46.7588 26.784 46.8983 27.0118C47.0379 27.2395 47.0916 27.5096 47.0498 27.7735C47.008 28.0373 46.8735 28.2776 46.6704 28.4511C46.4672 28.6246 46.2089 28.72 45.9418 28.72V28.7178Z" fill="#3B82F6"/>
<path d="M34.7422 6.00403C34.5353 6.00385 34.3325 5.94648 34.1562 5.83826C33.9799 5.73004 33.8369 5.57518 33.7431 5.3908C33.6493 5.20641 33.6083 4.99968 33.6246 4.79344C33.6409 4.58721 33.7139 4.3895 33.8356 4.22216L36.4736 0.591099C36.5603 0.47189 36.6697 0.370928 36.7954 0.293979C36.9211 0.217029 37.0608 0.165599 37.2064 0.142624C37.352 0.119649 37.5007 0.125579 37.644 0.160076C37.7874 0.194574 37.9225 0.256962 38.0417 0.34368C38.1609 0.430398 38.2619 0.539747 38.3388 0.665483C38.4158 0.79122 38.4672 0.930881 38.4902 1.07649C38.5131 1.22211 38.5072 1.37082 38.4727 1.51414C38.4382 1.65746 38.3758 1.79258 38.2891 1.91179L35.65 5.54061C35.546 5.68402 35.4095 5.80078 35.2517 5.88133C35.094 5.96188 34.9194 6.00392 34.7422 6.00403Z" fill="#3B82F6"/>
<path d="M12.3239 6.00314C12.1465 6.00321 11.9717 5.96125 11.8137 5.8807C11.6557 5.80015 11.5191 5.68329 11.415 5.53972L8.77695 1.9109C8.60196 1.67015 8.52978 1.36974 8.57629 1.07577C8.62279 0.781799 8.78417 0.518341 9.02493 0.343355C9.26568 0.168369 9.56609 0.0961897 9.86006 0.142695C10.154 0.1892 10.4175 0.350581 10.5925 0.591335L13.2305 4.2224C13.3521 4.38973 13.4252 4.58744 13.4415 4.79368C13.4578 4.99992 13.4168 5.20665 13.323 5.39103C13.2291 5.57542 13.0862 5.73028 12.9099 5.8385C12.7335 5.94672 12.5307 6.00409 12.3239 6.00426V6.00314Z" fill="#3B82F6"/>
<path d="M1.12187 28.7182C0.854736 28.7181 0.596382 28.6227 0.393268 28.4492C0.190153 28.2757 0.0556046 28.0354 0.0138165 27.7716C-0.0279716 27.5077 0.0257426 27.2377 0.1653 27.0099C0.304858 26.7821 0.521102 26.6116 0.775148 26.529L5.03906 25.1421C5.3175 25.0652 5.61488 25.0986 5.86929 25.2354C6.1237 25.3722 6.31555 25.6019 6.4049 25.8766C6.49425 26.1513 6.47421 26.4498 6.34897 26.7102C6.22373 26.9705 6.00292 27.1724 5.73251 27.274L1.46859 28.6609C1.35683 28.6984 1.23976 28.7177 1.12187 28.7182Z" fill="#3B82F6"/>
</svg>
