<svg width="100" height="100" viewBox="0 0 100 100" fill="none" xmlns="http://www.w3.org/2000/svg">
<path d="M56.0677 25C80.6047 41.7472 72.6661 60.1852 72.6661 60.1852C72.6661 60.1852 79.6423 68.0757 76.8356 75C76.8356 75 73.9489 70.1691 69.1377 70.1691C64.487 70.1691 61.7607 75 52.379 75C31.5308 75 21.668 57.5281 21.668 57.5281C40.4398 69.9487 53.2612 61.1514 53.2612 61.1514C44.7928 56.2122 26.8003 32.649 26.8003 32.649C42.4835 46.0436 49.2525 49.5571 49.2525 49.5571C45.2 46.207 33.8564 29.8309 33.8564 29.8309C42.9328 39.0522 60.9591 51.8921 60.9591 51.8921C66.1009 37.699 56.0677 25 56.0677 25Z" fill="white"/>
</svg>
