<svg width="54" height="60" viewBox="0 0 54 60" fill="none" xmlns="http://www.w3.org/2000/svg">
<path d="M37.5195 0C36.8724 0 36.3477 0.524766 36.3477 1.17188V6.5625C36.3477 7.20961 36.8724 7.73438 37.5195 7.73438C38.1666 7.73438 38.6914 7.20961 38.6914 6.5625V1.17188C38.6914 0.524766 38.1666 0 37.5195 0Z" fill="#3B82F6"/>
<path d="M10.5664 36.5625C9.91953 36.5625 9.39453 37.0875 9.39453 37.7344C9.39453 38.3813 9.91953 38.9062 10.5664 38.9062C11.2133 38.9062 11.7383 38.3813 11.7383 37.7344C11.7383 37.0875 11.2133 36.5625 10.5664 36.5625Z" fill="#3B82F6"/>
<path d="M53.9258 34.2188C53.9258 31.6341 51.823 29.5312 49.2383 29.5312H40.49C41.8443 26.0621 42.3925 21.9789 42.2868 18.3441C42.2667 17.6504 42.2401 17.2493 42.2041 16.9968C42.1435 14.4647 40.0644 12.4219 37.5195 12.4219C34.9348 12.4219 32.832 14.5247 32.832 17.1094V18.2812C32.832 25.6929 23.3148 29.8571 16.1323 31.6429C15.5893 30.4014 14.3497 29.5312 12.9102 29.5312H1.19141C0.544297 29.5312 0.0195312 30.056 0.0195312 30.7031V58.8281C0.0195312 59.4752 0.544297 60 1.19141 60H12.9102C14.3401 60 15.5725 59.1414 16.1212 57.913C16.7159 58.0656 17.268 58.2097 17.7777 58.3429C21.8693 59.4115 24.1231 60 29.6047 60H42.207C44.7917 60 46.8945 57.8972 46.8945 55.3125C46.8945 54.3488 46.6019 53.4523 46.1012 52.7065C47.9115 52.0733 49.2383 50.3436 49.2383 48.2812C49.2383 47.321 48.9528 46.4216 48.4536 45.6724C50.2559 45.0382 51.582 43.3125 51.582 41.25C51.582 40.2862 51.2894 39.3898 50.7887 38.644C52.599 38.0108 53.9258 36.2811 53.9258 34.2188ZM14.082 56.4844C14.082 57.1305 13.5563 57.6562 12.9102 57.6562H2.36328V31.875H12.9102C13.5563 31.875 14.082 32.4007 14.082 33.0469V56.4844ZM49.2383 36.5625C46.7247 36.5625 46.1255 36.5625 43.3789 36.5625C42.7318 36.5625 42.207 37.0873 42.207 37.7344C42.207 38.3815 42.7318 38.9062 43.3789 38.9062H46.8945C48.1869 38.9062 49.2383 39.9577 49.2383 41.25C49.2383 42.5445 48.189 43.5938 46.8945 43.5938H41.0352C40.388 43.5938 39.8633 44.1185 39.8633 44.7656C39.8633 45.4127 40.388 45.9375 41.0352 45.9375H44.5508C45.8278 45.9375 46.8945 46.9576 46.8945 48.2812C46.8945 49.5757 45.8452 50.625 44.5508 50.625C42.0372 50.625 41.438 50.625 38.6914 50.625C38.0443 50.625 37.5195 51.1498 37.5195 51.7969C37.5195 52.444 38.0443 52.9688 38.6914 52.9688H42.207C43.4994 52.9688 44.5508 54.0202 44.5508 55.3125C44.5508 56.6048 43.4994 57.6562 42.207 57.6562H29.6047C24.4242 57.6562 22.4008 57.1278 18.3699 56.0752C17.7794 55.9209 17.1317 55.7518 16.4258 55.5718V33.9873C24.9064 31.9672 35.1758 27.0364 35.1758 18.2812V17.1094C35.1758 15.817 36.2272 14.7656 37.5195 14.7656C38.8095 14.7656 39.8608 15.8154 39.8633 17.1057V17.1094C39.8633 17.6187 40.4989 23.8691 37.9501 29.5312H34.0039C33.3568 29.5312 32.832 30.056 32.832 30.7031C32.832 31.3502 33.3568 31.875 34.0039 31.875C34.8222 31.875 47.9026 31.875 49.2383 31.875C50.5306 31.875 51.582 32.9264 51.582 34.2188C51.582 35.5132 50.5327 36.5625 49.2383 36.5625Z" fill="#3B82F6"/>
<path d="M10.5664 41.25C9.9193 41.25 9.39453 41.7748 9.39453 42.4219V51.7969C9.39453 52.444 9.9193 52.9688 10.5664 52.9688C11.2135 52.9688 11.7383 52.444 11.7383 51.7969V42.4219C11.7383 41.7748 11.2135 41.25 10.5664 41.25Z" fill="#3B82F6"/>
<path d="M28.1445 14.7656H23.457C22.8099 14.7656 22.2852 15.2904 22.2852 15.9375C22.2852 16.5846 22.8099 17.1094 23.457 17.1094H28.1445C28.7916 17.1094 29.3164 16.5846 29.3164 15.9375C29.3164 15.2904 28.7916 14.7656 28.1445 14.7656Z" fill="#3B82F6"/>
<path d="M51.582 14.7656H46.8945C46.2474 14.7656 45.7227 15.2904 45.7227 15.9375C45.7227 16.5846 46.2474 17.1094 46.8945 17.1094H51.582C52.2291 17.1094 52.7539 16.5846 52.7539 15.9375C52.7539 15.2904 52.2291 14.7656 51.582 14.7656Z" fill="#3B82F6"/>
<path d="M48.2911 5.16539C47.8334 4.70789 47.0916 4.70789 46.6337 5.16539L43.3198 8.47934C42.8622 8.93695 42.8622 9.67898 43.3198 10.1367C43.7776 10.5943 44.5193 10.5942 44.9772 10.1367L48.2911 6.82277C48.7487 6.36516 48.7487 5.62312 48.2911 5.16539Z" fill="#3B82F6"/>
<path d="M31.7169 8.47934L28.4029 5.16539C27.9452 4.70789 27.2034 4.70789 26.7456 5.16539C26.2879 5.62301 26.2879 6.36504 26.7456 6.82277L30.0595 10.1367C30.5175 10.5943 31.2592 10.5942 31.7169 10.1367C32.1745 9.6791 32.1745 8.93707 31.7169 8.47934Z" fill="#3B82F6"/>
</svg>
