<svg width="100" height="100" viewBox="0 0 100 100" fill="none" xmlns="http://www.w3.org/2000/svg">
<path fill-rule="evenodd" clip-rule="evenodd" d="M28.0424 21.2773H73.0357C76.0513 21.2773 78.496 23.789 78.496 26.8874V73.1141C78.496 76.2125 76.0513 78.7242 73.0357 78.7242H28.0424C25.0267 78.7242 22.582 76.2125 22.582 73.1141V26.8874C22.582 23.789 25.0267 21.2773 28.0424 21.2773ZM56.9599 66.7469V66.5285L56.7446 66.5769C56.8158 66.6346 56.8876 66.6912 56.9599 66.7469ZM56.9599 66.7469V72.0297C57.8777 72.4918 58.9995 72.8328 60.246 73.0639C61.4925 73.2949 62.8523 73.405 64.212 73.405C65.5718 73.405 66.8183 73.2839 68.0648 73.0309C69.3112 72.7778 70.3311 72.3597 71.2376 71.8206C72.1554 71.2375 72.9373 70.5004 73.3906 69.5102C73.8438 68.5199 74.1951 67.4197 74.1951 65.9894C74.1951 64.9882 74.0365 64.119 73.7305 63.3489C73.4246 62.5787 72.9826 61.9186 72.3707 61.3685C71.7928 60.7853 71.1243 60.2682 70.3311 59.8281C69.5378 59.388 68.6313 58.9259 67.6115 58.5079C67.148 58.3238 66.7367 58.1439 66.3291 57.9656C66.079 57.8562 65.8303 57.7475 65.5718 57.6387C64.9826 57.3526 64.4727 57.0666 64.0987 56.7805C63.6795 56.4834 63.3622 56.1754 63.1355 55.8563C62.9089 55.5262 62.7956 55.1632 62.7956 54.7561C62.7956 54.382 62.8965 54.0409 63.1016 53.7329C63.3067 53.4248 63.5888 53.1718 63.9514 52.9517C64.314 52.7317 64.7673 52.5666 65.3112 52.4456C65.8438 52.3246 66.433 52.2696 67.1242 52.2696C67.6002 52.2696 68.0988 52.3037 68.5973 52.373C69.1186 52.4423 69.6512 52.549 70.1837 52.692C70.7163 52.8351 71.2376 53.0111 71.7702 53.2312C72.2687 53.4512 72.7333 53.7043 73.1299 53.9903V48.8192C72.2687 48.5002 71.3169 48.2581 70.2971 48.1041C69.2772 47.9501 68.1441 47.873 66.7843 47.873C65.4245 47.873 64.178 48.0161 62.9316 48.2911C61.6851 48.5662 60.6653 49.0063 59.7588 49.6114C58.8409 50.2055 58.1723 50.9317 57.6058 51.9219C57.0732 52.8461 56.8126 53.9023 56.8126 55.2226C56.8126 56.8729 57.2998 58.3032 58.2857 59.4034C59.2602 60.6137 60.7786 61.4939 62.7049 62.3741C63.3836 62.6414 63.9939 62.9088 64.5878 63.169C64.6781 63.2086 64.7681 63.248 64.8579 63.2873C65.5378 63.5843 66.1044 63.8924 66.5577 64.2114C67.0449 64.5305 67.4302 64.8826 67.6908 65.2567C67.9741 65.6307 68.1214 66.0708 68.1214 66.5769C68.1214 66.929 68.033 67.2591 67.8608 67.5671C67.6885 67.8752 67.4189 68.1393 67.0562 68.3593C66.6936 68.5794 66.2517 68.7554 65.6965 68.8874C65.1639 69.0084 64.5633 69.0745 63.7701 69.0745C62.5236 69.0745 61.2772 68.8654 60.144 68.4473C58.9846 68.0584 57.9232 67.4887 56.9599 66.7469ZM54.6936 52.9957H47.4414V73.1299H41.6623V52.9957H34.4102V48.4848H54.6936V52.9957Z" fill="white"/>
</svg>
