<svg width="45" height="45" viewBox="0 0 45 45" fill="none" xmlns="http://www.w3.org/2000/svg">
<path d="M34.2225 45H10.7775C4.8345 45 0 40.1655 0 34.224V10.776C0 4.8345 4.8345 0 10.7775 0H34.224C40.1655 0 45 4.8345 45 10.776V34.224C45 40.1655 40.1655 45 34.2225 45ZM10.7775 3C6.489 3 3 6.489 3 10.776V34.224C3 38.511 6.489 42 10.7775 42H34.224C38.511 42 42 38.511 42 34.224V10.776C42 6.489 38.511 3 34.2225 3H10.7775Z" fill="#0A0A0A"/>
<path d="M21.75 15C20.9205 15 20.25 15.672 20.25 16.5V22.5C20.25 24.981 18.5685 27 16.5 27C14.4315 27 12.75 24.981 12.75 22.5V16.5C12.75 15.6765 12.0735 15 11.25 15C10.4265 15 9.75 15.6765 9.75 16.5V22.5C9.75 26.6355 12.7785 30 16.5 30C20.2215 30 23.25 26.6355 23.25 22.5V16.5C23.25 15.672 22.5795 15 21.75 15Z" fill="#3B82F6"/>
<path d="M31.7677 22.4999L35.0212 17.2949C35.4607 16.5929 35.2462 15.6674 34.5457 15.2279C33.8407 14.7884 32.9167 15.0044 32.4787 15.7049L29.9992 19.6709L27.5212 15.7064C27.0832 15.0029 26.1592 14.7884 25.4542 15.2294C24.7522 15.6689 24.5392 16.5944 24.9787 17.2964L28.2307 22.4999L24.9772 27.7049C24.5407 28.4024 24.7552 29.3369 25.4527 29.7719C26.1502 30.2084 27.0832 29.9924 27.5197 29.2949L29.9992 25.3289L32.4772 29.2934C32.9137 29.9909 33.8467 30.2069 34.5442 29.7704C35.2417 29.3339 35.4562 28.4009 35.0197 27.7034L31.7677 22.4999Z" fill="#3B82F6"/>
</svg>
